SplineFontDB: 3.0
FontName: Line90Light
FullName: Line90 Light
FamilyName: Line90
Weight: Light
Copyright: Copyright (c) 2016, seaca
UComments: "2016-6-21: Created with FontForge (http://fontforge.org)"
Version: 001.300
ItalicAngle: 0
UnderlinePosition: -399
UnderlineWidth: 1600
Ascent: 1638
Descent: 410
InvalidEm: 0
LayerCount: 2
Layer: 0 0 "+gMyXYgAA" 1
Layer: 1 0 "+Uk2XYgAA" 0
XUID: [1021 290 1194610127 2540661]
StyleMap: 0x0000
FSType: 0
OS2Version: 0
OS2_WeightWidthSlopeOnly: 0
OS2_UseTypoMetrics: 1
CreationTime: 1466498773
ModificationTime: 1467821782
PfmFamily: 17
TTFWeight: 200
TTFWidth: 5
LineGap: 184
VLineGap: 184
OS2TypoAscent: 0
OS2TypoAOffset: 1
OS2TypoDescent: 0
OS2TypoDOffset: 1
OS2TypoLinegap: 184
OS2WinAscent: 0
OS2WinAOffset: 1
OS2WinDescent: 0
OS2WinDOffset: 1
HheadAscent: 0
HheadAOffset: 1
HheadDescent: 0
HheadDOffset: 1
OS2Vendor: 'PfEd'
MarkAttachClasses: 1
DEI: 91125
LangName: 1033
Encoding: Original
UnicodeInterp: none
NameList: AGL For New Fonts
DisplaySize: -48
AntiAlias: 1
FitToEm: 0
WinInfo: 1007 19 13
BeginPrivate: 0
EndPrivate
Grid
1265 -170 m 1
 1265 0 l 1
 1095 0 l 1
 1095 -170 l 1
 1265 -170 l 1
1265 60 m 1
 1265 230 l 1
 1095 230 l 1
 1095 60 l 1
 1265 60 l 1
1265 290 m 1
 1265 460 l 1
 1095 460 l 1
 1095 290 l 1
 1265 290 l 1
1265 520 m 1
 1265 690 l 1
 1095 690 l 1
 1095 520 l 1
 1265 520 l 1
1265 750 m 1
 1265 920 l 1
 1095 920 l 1
 1095 750 l 1
 1265 750 l 1
1265 980 m 1
 1265 1150 l 1
 1095 1150 l 1
 1095 980 l 1
 1265 980 l 1
865 0 m 1
 865 -170 l 1
 1035 -170 l 1
 1035 0 l 1
 865 0 l 1
805 -170 m 1
 805 0 l 1
 635 0 l 1
 635 -170 l 1
 805 -170 l 1
865 230 m 1
 865 60 l 1
 1035 60 l 1
 1035 230 l 1
 865 230 l 1
805 60 m 1
 805 230 l 1
 635 230 l 1
 635 60 l 1
 805 60 l 1
865 290 m 1
 1035 290 l 1
 1035 460 l 1
 865 460 l 1
 865 290 l 1
805 290 m 1
 805 460 l 1
 635 460 l 1
 635 290 l 1
 805 290 l 1
865 520 m 1
 1035 520 l 1
 1035 690 l 1
 865 690 l 1
 865 520 l 1
805 520 m 1
 805 690 l 1
 635 690 l 1
 635 520 l 1
 805 520 l 1

StartChar: v
Encoding: 1 118 1
Width: 770
VWidth: 1638
Flags: W
HStem: 0 21G<345 405> 230 60<175 345 405 575> 730 20G<115 175 575 635> 730 20G<115 175 575 635>
VStem: 115 60<290 750> 345 60<0 230> 575 60<290 750>
CounterMasks: 1 0e
LayerCount: 2
Fore
SplineSet
635 750 m 1xee
 635 230 l 1
 405 230 l 1
 405 0 l 5
 345 0 l 1
 345 230 l 1
 115 230 l 1
 115 750 l 1
 175 750 l 1
 175 290 l 1
 575 290 l 1
 575 750 l 1
 635 750 l 1xee
EndSplineSet
Validated: 1
EndChar

StartChar: A
Encoding: 3 65 3
Width: 770
VWidth: 1638
Flags: W
HStem: 0 21G<115 175 575 635> 690 60<175 575> 1150 60<175 575>
VStem: 115 60<0 690 750 1150> 575 60<0 690 750 1150>
LayerCount: 2
Fore
SplineSet
175 1150 m 1
 175 750 l 1
 575 750 l 1
 575 1150 l 1
 175 1150 l 1
115 1210 m 5
 635 1210 l 1
 635 0 l 1
 575 0 l 1
 575 690 l 1
 175 690 l 1
 175 0 l 1
 115 0 l 1
 115 1210 l 5
EndSplineSet
Validated: 1
EndChar

StartChar: exclam
Encoding: 4 33 4
Width: 770
VWidth: 1638
Flags: W
HStem: 0 60<115 405> 1190 20G<345 405>
VStem: 345 60<230 1210>
LayerCount: 2
Fore
SplineSet
115 60 m 1
 405 60 l 1
 405 0 l 1
 114 0 l 1
 115 60 l 1
345 1210 m 5
 405 1210 l 1
 405 230 l 1
 345 230 l 1
 345 1210 l 5
EndSplineSet
Validated: 1
EndChar

StartChar: quotedbl
Encoding: 5 34 5
Width: 770
VWidth: 1638
Flags: W
HStem: 920 290<115 175 345 405>
VStem: 115 60<920 1210> 345 60<920 1210>
LayerCount: 2
Fore
SplineSet
345 1210 m 5
 405 1210 l 1
 405 920 l 1
 345 920 l 1
 345 1210 l 5
115 1210 m 1
 175 1210 l 1
 175 920 l 1
 115 920 l 1
 115 1210 l 1
EndSplineSet
Validated: 1
EndChar

StartChar: numbersign
Encoding: 6 35 6
Width: 770
VWidth: 1638
Flags: W
HStem: 0 21G<345 405 575 635> 230 60<115 345 405 575> 920 60<115 345 405 575> 1190 20G<345 405 575 635>
VStem: 345 60<0 230 290 920 980 1210> 575 60<0 230 290 920 980 1210>
LayerCount: 2
Fore
SplineSet
405 920 m 1
 405 290 l 1
 575 290 l 1
 575 920 l 1
 405 920 l 1
635 1210 m 1
 635 0 l 1
 575 0 l 5
 575 230 l 1
 405 230 l 1
 405 0 l 1
 345 0 l 1
 345 230 l 1
 115 230 l 1
 115 290 l 1
 345 290 l 1
 345 920 l 1
 115 920 l 1
 115 980 l 1
 345 980 l 1
 345 1210 l 1
 405 1210 l 1
 405 980 l 1
 575 980 l 1
 575 1210 l 1
 635 1210 l 1
EndSplineSet
Validated: 1
EndChar

StartChar: dollar
Encoding: 7 36 7
Width: 770
VWidth: 1638
Flags: W
HStem: 0 21G<345 405> 230 60<115 345 405 575> 690 60<175 345 405 575> 920 60<175 345 405 635> 1190 20G<345 405>
VStem: 115 60<750 920> 345 60<0 230 290 690 750 920 980 1210> 575 60<290 690>
CounterMasks: 1 07
LayerCount: 2
Fore
SplineSet
405 690 m 1
 405 290 l 1
 575 290 l 1
 575 690 l 1
 405 690 l 1
175 920 m 1
 175 750 l 1
 345 750 l 1
 345 920 l 1
 175 920 l 1
345 1210 m 1
 405 1210 l 5
 405 980 l 1
 635 980 l 1
 635 920 l 1
 405 920 l 1
 405 750 l 1
 635 750 l 1
 635 230 l 1
 405 230 l 1
 405 0 l 1
 345 0 l 1
 345 230 l 1
 115 230 l 1
 115 290 l 1
 345 290 l 1
 345 690 l 1
 115 690 l 1
 115 980 l 1
 345 980 l 1
 345 1210 l 1
EndSplineSet
Validated: 1
EndChar

StartChar: percent
Encoding: 8 37 8
Width: 770
VWidth: 1638
Flags: W
HStem: 0 21G<115 175> 230 60<405 575> 460 60<405 575> 690 60<175 575> 920 60<175 345> 1150 60<175 345>
VStem: 115 60<0 690 980 1150> 345 60<290 460 980 1150> 575 60<290 460 750 1210>
CounterMasks: 1 0380
LayerCount: 2
Fore
SplineSet
405 460 m 1
 405 290 l 1
 575 290 l 1
 575 460 l 1
 405 460 l 1
345 520 m 1
 635 520 l 1
 635 230 l 1
 345 230 l 1
 345 520 l 1
175 1150 m 1
 175 980 l 1
 345 980 l 1
 345 1150 l 1
 175 1150 l 1
115 1210 m 1
 405 1210 l 1
 405 920 l 1
 115 920 l 1
 115 1210 l 1
575 1210 m 1
 635 1210 l 1
 635 690 l 1
 175 690 l 1
 175 0 l 1
 115 0 l 5
 115 750 l 1
 575 750 l 1
 575 1210 l 1
EndSplineSet
Validated: 1
EndChar

StartChar: ampersand
Encoding: 9 38 9
Width: 770
VWidth: 1638
Flags: W
HStem: 0 60<175 345 405 635> 690 60<175 345 405 635> 1150 60<175 405>
VStem: 115 60<60 690 750 1150> 345 60<60 690 750 980>
LayerCount: 2
Fore
SplineSet
175 690 m 1
 175 60 l 1
 345 60 l 1
 345 690 l 1
 175 690 l 1
405 1210 m 1
 405 1150 l 1
 175 1150 l 1
 175 750 l 1
 345 750 l 1
 345 980 l 1
 405 980 l 1
 405 750 l 1
 635 750 l 1
 635 690 l 1
 405 690 l 1
 405 60 l 1
 635 60 l 5
 635 0 l 1
 115 0 l 1
 115 1210 l 1
 405 1210 l 1
EndSplineSet
Validated: 1
EndChar

StartChar: quotesingle
Encoding: 10 39 10
Width: 770
VWidth: 1638
Flags: W
HStem: 920 290<345 405>
VStem: 345 60<920 1210>
LayerCount: 2
Fore
SplineSet
345 1210 m 1
 405 1210 l 5
 405 920 l 1
 345 920 l 1
 345 1210 l 1
EndSplineSet
Validated: 1
EndChar

StartChar: parenleft
Encoding: 11 40 11
Width: 770
VWidth: 1638
Flags: W
HStem: 0 60<405 635> 230 60<175 345> 920 60<175 345> 1150 60<405 635>
VStem: 114 61<290 920> 345 60<60 230 980 1150>
LayerCount: 2
Fore
SplineSet
635 1210 m 1
 635 1150 l 5
 405 1150 l 1
 405 920 l 1
 175 920 l 1
 175 290 l 1
 405 290 l 1
 405 60 l 1
 635 60 l 1
 635 0 l 1
 345 0 l 1
 345 230 l 1
 114 230 l 1
 115 980 l 1
 345 980 l 1
 345 1210 l 1
 635 1210 l 1
EndSplineSet
Validated: 1
EndChar

StartChar: parenright
Encoding: 12 41 12
Width: 770
VWidth: 1638
Flags: W
HStem: 0 60<115 345> 230 60<405 575> 920 60<405 575> 1150 60<115 345>
VStem: 345 60<60 230 980 1150> 575 60<290 920>
LayerCount: 2
Fore
SplineSet
115 1210 m 1
 405 1210 l 5
 405 980 l 1
 635 980 l 1
 635 230 l 1
 405 230 l 1
 405 0 l 1
 115 0 l 1
 115 60 l 1
 345 60 l 1
 345 290 l 1
 575 290 l 1
 575 920 l 1
 345 920 l 1
 345 1150 l 1
 115 1150 l 1
 115 1210 l 1
EndSplineSet
Validated: 1
EndChar

StartChar: asterisk
Encoding: 13 42 13
Width: 770
VWidth: 1638
Flags: W
HStem: 690 60<175 345 405 575>
VStem: 115 60<460 690 750 980> 345 60<460 690 750 980> 575 60<460 690 750 980>
CounterMasks: 1 70
LayerCount: 2
Fore
SplineSet
345 980 m 1
 405 980 l 1
 405 750 l 1
 575 750 l 1
 575 980 l 1
 635 980 l 1
 635 460 l 1
 575 460 l 1
 575 690 l 1
 405 690 l 5
 405 460 l 1
 345 460 l 1
 345 690 l 1
 175 690 l 1
 175 460 l 1
 115 460 l 1
 115 980 l 1
 175 980 l 1
 175 750 l 1
 345 750 l 1
 345 980 l 1
EndSplineSet
Validated: 1
EndChar

StartChar: plus
Encoding: 14 43 14
Width: 770
VWidth: 1638
Flags: W
HStem: 460 60<115 345 405 635> 730 20G<345 405> 730 20G<345 405>
VStem: 345 60<230 460 520 750>
LayerCount: 2
Fore
SplineSet
345 750 m 1xd0
 405 750 l 1
 405 520 l 1
 635 520 l 1
 635 460 l 1
 405 460 l 1
 405 230 l 1
 345 230 l 1
 345 460 l 5
 115 460 l 1
 115 520 l 1
 345 520 l 1
 345 750 l 1xd0
EndSplineSet
Validated: 1
EndChar

StartChar: comma
Encoding: 15 44 15
Width: 770
VWidth: 1638
Flags: W
HStem: -230 21G<345 405> 0 60<115 345>
VStem: 345 60<-230 0>
LayerCount: 2
Fore
SplineSet
115 0 m 1
 115 60 l 1
 405 60 l 1
 405 -230 l 5
 345 -230 l 1
 345 0 l 1
 115 0 l 1
EndSplineSet
Validated: 1
EndChar

StartChar: hyphen
Encoding: 16 45 16
Width: 770
VWidth: 1638
Flags: W
HStem: 460 60<115 635>
VStem: 115 520<460 520>
LayerCount: 2
Fore
SplineSet
115 460 m 1
 115 520 l 1
 635 520 l 1
 635 460 l 5
 115 460 l 1
EndSplineSet
Validated: 1
EndChar

StartChar: period
Encoding: 17 46 17
Width: 770
VWidth: 1638
Flags: W
HStem: 0 60<115 405>
VStem: 114 291<0 60>
LayerCount: 2
Fore
SplineSet
115 60 m 1
 405 60 l 1
 405 0 l 5
 114 0 l 1
 115 60 l 1
EndSplineSet
Validated: 1
EndChar

StartChar: slash
Encoding: 18 47 18
Width: 770
VWidth: 1638
Flags: W
HStem: 0 21G<115 175> 460 60<175 345> 690 60<405 575> 1190 20G<575 635>
VStem: 115 60<0 460> 345 60<520 690> 575 60<750 1210>
CounterMasks: 1 0e
LayerCount: 2
Fore
SplineSet
635 1210 m 5
 635 690 l 1
 405 690 l 1
 405 460 l 1
 175 460 l 1
 175 0 l 1
 115 0 l 1
 115 520 l 1
 345 520 l 1
 345 750 l 1
 575 750 l 1
 575 1210 l 1
 635 1210 l 5
EndSplineSet
Validated: 1
EndChar

StartChar: zero
Encoding: 19 48 19
Width: 770
VWidth: 1638
Flags: W
HStem: -0 60<175 575> 230 60<175 345> 460 60<405 575> 690 60<175 575>
VStem: 115 60<60 230 290 690> 345 60<290 460> 575 60<60 460 520 690>
CounterMasks: 1 0e
LayerCount: 2
Fore
SplineSet
575 460 m 1
 405 460 l 1
 405 230 l 1
 175 230 l 1
 175 60 l 1
 575 60 l 1
 575 460 l 1
575 690 m 1
 175 690 l 1
 175 290 l 1
 345 290 l 1
 345 520 l 5
 575 520 l 1
 575 690 l 1
115 750 m 1
 635 750 l 1
 635 0 l 1
 115 -0 l 1
 115 750 l 1
EndSplineSet
Validated: 1
EndChar

StartChar: one
Encoding: 20 49 20
Width: 770
VWidth: 1638
Flags: W
HStem: -0 60<115 345 405 635> 690 60<115 345>
VStem: 345 60<60 690>
LayerCount: 2
Fore
SplineSet
635 0 m 1
 115 -0 l 1
 115 60 l 1
 345 60 l 1
 345 690 l 1
 115 690 l 1
 115 750 l 1
 405 750 l 1
 405 60 l 1
 635 60 l 1
 635 0 l 1
EndSplineSet
Validated: 1
EndChar

StartChar: two
Encoding: 21 50 21
Width: 770
VWidth: 1638
Flags: W
HStem: 0 60<115 345 405 635> 230 60<405 575> 690 60<175 575>
VStem: 115 60<460 690> 345 60<60 230> 575 60<290 690>
CounterMasks: 1 1c
LayerCount: 2
Fore
SplineSet
635 0 m 1
 114 0 l 1
 115 60 l 1
 345 60 l 1
 345 290 l 5
 575 290 l 1
 575 690 l 1
 175 690 l 1
 175 460 l 1
 115 460 l 1
 115 750 l 1
 635 750 l 1
 635 230 l 1
 405 230 l 1
 405 60 l 1
 635 60 l 1
 635 0 l 1
EndSplineSet
Validated: 1
EndChar

StartChar: three
Encoding: 22 51 22
Width: 770
VWidth: 1638
Flags: W
HStem: -230 60<115 575> 230 60<348 575> 690 60<115 575>
VStem: 575 60<-170 230 290 690>
CounterMasks: 1 e0
LayerCount: 2
Fore
SplineSet
115 750 m 1
 635 750 l 1
 635 -230 l 1
 115 -230 l 1
 115 -170 l 5
 575 -170 l 1
 575 230 l 1
 348 230 l 1
 348 290 l 1
 575 290 l 1
 575 690 l 1
 115 690 l 1
 115 750 l 1
EndSplineSet
Validated: 1
EndChar

StartChar: four
Encoding: 23 52 23
Width: 770
VWidth: 1638
Flags: W
HStem: -230 21G<575 635> 0 60<175 575> 230 60<175 345> 730 20G<345 405 575 635> 730 20G<345 405 575 635>
VStem: 115 60<60 230> 345 60<290 750> 575 60<-230 0 60 750>
CounterMasks: 1 07
LayerCount: 2
Fore
SplineSet
635 -230 m 1xf7
 575 -230 l 1
 575 0 l 1
 115 0 l 1
 115 290 l 1
 345 290 l 1
 345 750 l 5
 405 750 l 1
 405 230 l 1
 175 230 l 1
 175 60 l 1
 575 60 l 1
 575 750 l 1
 635 750 l 1
 635 -230 l 1xf7
EndSplineSet
Validated: 1
EndChar

StartChar: five
Encoding: 24 53 24
Width: 770
VWidth: 1638
Flags: W
HStem: -230 60<115 575> 230 60<175 575> 690 60<175 635>
VStem: 115 60<290 690> 575 60<-170 230>
CounterMasks: 1 e0
LayerCount: 2
Fore
SplineSet
635 750 m 1
 635 690 l 1
 175 690 l 1
 175 290 l 5
 635 290 l 1
 635 -230 l 1
 115 -230 l 1
 115 -170 l 1
 575 -170 l 1
 575 230 l 1
 115 230 l 1
 115 750 l 1
 635 750 l 1
EndSplineSet
Validated: 1
EndChar

StartChar: six
Encoding: 25 54 25
Width: 770
VWidth: 1638
Flags: W
HStem: 0 60<175 575> 690 60<175 575> 1150 60<175 635>
VStem: 115 60<60 690 750 1150> 575 60<60 690>
LayerCount: 2
Fore
SplineSet
175 690 m 1
 175 60 l 1
 575 60 l 1
 575 690 l 1
 175 690 l 1
635 1210 m 5
 635 1150 l 1
 175 1150 l 1
 175 750 l 1
 635 750 l 1
 635 0 l 1
 115 0 l 1
 115 1210 l 1
 635 1210 l 5
EndSplineSet
Validated: 1
EndChar

StartChar: seven
Encoding: 26 55 26
Width: 770
VWidth: 1638
Flags: W
HStem: -230 21G<345 405> 230 60<405 575> 690 60<175 575>
VStem: 115 60<460 690> 345 60<-230 230> 575 60<290 690>
CounterMasks: 1 1c
LayerCount: 2
Fore
SplineSet
115 460 m 1
 115 750 l 1
 635 750 l 1
 635 230 l 1
 405 230 l 1
 405 -230 l 1
 345 -230 l 1
 345 290 l 5
 575 290 l 1
 575 690 l 1
 175 690 l 1
 175 460 l 1
 115 460 l 1
EndSplineSet
Validated: 1
EndChar

StartChar: eight
Encoding: 27 56 27
Width: 770
VWidth: 1638
Flags: W
HStem: 0 60<175 575> 690 60<175 575> 1150 60<175 575>
VStem: 115 60<60 690 750 1150> 575 60<60 690 750 1150>
LayerCount: 2
Fore
SplineSet
175 690 m 1
 175 60 l 1
 575 60 l 1
 575 690 l 1
 175 690 l 1
175 1150 m 5
 175 750 l 1
 575 750 l 1
 575 1150 l 1
 175 1150 l 5
115 1210 m 1
 635 1210 l 1
 635 0 l 1
 115 0 l 1
 115 1210 l 1
EndSplineSet
Validated: 1
EndChar

StartChar: nine
Encoding: 28 57 28
Width: 770
VWidth: 1638
Flags: W
HStem: -230 60<115 575> 230 60<175 575> 690 60<175 575>
VStem: 115 60<290 690> 575 60<-170 230 290 690>
CounterMasks: 1 e0
LayerCount: 2
Fore
SplineSet
175 690 m 1
 175 290 l 5
 575 290 l 1
 575 690 l 1
 175 690 l 1
115 750 m 1
 635 750 l 1
 635 -230 l 1
 115 -230 l 1
 115 -170 l 1
 575 -170 l 1
 575 230 l 1
 115 230 l 1
 115 750 l 1
EndSplineSet
Validated: 1
EndChar

StartChar: colon
Encoding: 29 58 29
Width: 770
VWidth: 1638
Flags: W
HStem: 230 60<115 405> 920 60<115 405>
VStem: 115 290
LayerCount: 2
Fore
SplineSet
115 980 m 1
 405 980 l 1
 405 920 l 5
 115 920 l 1
 115 980 l 1
115 290 m 1
 405 290 l 1
 405 230 l 1
 114 230 l 1
 115 290 l 1
EndSplineSet
Validated: 1
EndChar

StartChar: semicolon
Encoding: 30 59 30
Width: 770
VWidth: 1638
Flags: W
HStem: 0 21G<345 405> 460 60<115 345> 920 60<115 405>
VStem: 345 60<0 460>
LayerCount: 2
Fore
SplineSet
115 520 m 1
 405 520 l 1
 405 0 l 1
 345 0 l 1
 345 460 l 1
 115 460 l 1
 115 520 l 1
115 980 m 1
 405 980 l 1
 405 920 l 5
 115 920 l 1
 115 980 l 1
EndSplineSet
Validated: 1
EndChar

StartChar: less
Encoding: 31 60 31
Width: 770
VWidth: 1638
Flags: W
HStem: 0 21G<575 635> 230 60<405 575> 460 60<175 345> 690 60<175 345> 920 60<405 575> 1190 20G<575 635>
VStem: 115 60<520 690> 345 60<290 460 750 920> 575 60<0 230 980 1210>
CounterMasks: 1 0380
LayerCount: 2
Fore
SplineSet
635 1210 m 1
 635 920 l 1
 405 920 l 1
 405 690 l 1
 175 690 l 1
 175 520 l 1
 405 520 l 5
 405 290 l 1
 635 290 l 1
 635 0 l 1
 575 0 l 1
 575 230 l 1
 345 230 l 1
 345 460 l 1
 115 460 l 1
 115 750 l 1
 345 750 l 1
 345 980 l 1
 575 980 l 1
 575 1210 l 1
 635 1210 l 1
EndSplineSet
Validated: 1
EndChar

StartChar: equal
Encoding: 32 61 32
Width: 770
VWidth: 1638
Flags: W
HStem: 460 60<115 635> 690 60<115 635>
VStem: 115 520<460 520 690 750>
LayerCount: 2
Fore
SplineSet
115 750 m 1
 635 750 l 1
 635 690 l 5
 115 690 l 1
 115 750 l 1
115 520 m 1
 635 520 l 1
 635 460 l 1
 115 460 l 1
 115 520 l 1
EndSplineSet
Validated: 1
EndChar

StartChar: greater
Encoding: 33 62 33
Width: 770
VWidth: 1638
Flags: W
HStem: 0 21G<115 175> 230 60<175 345> 460 60<405 575> 690 60<405 575> 920 60<175 345> 1190 20G<115 175>
VStem: 115 60<0 230 980 1210> 345 60<290 460 750 920> 575 60<520 690>
CounterMasks: 1 0380
LayerCount: 2
Fore
SplineSet
115 1210 m 1
 175 1210 l 1
 175 980 l 1
 405 980 l 1
 405 750 l 1
 635 750 l 1
 635 460 l 1
 405 460 l 1
 405 230 l 1
 175 230 l 1
 175 0 l 25
 115 0 l 1
 115 290 l 5
 345 290 l 1
 347 520 l 1
 575 520 l 1
 575 690 l 1
 345 690 l 1
 345 920 l 1
 115 920 l 1
 115 1210 l 1
EndSplineSet
Validated: 1
EndChar

StartChar: question
Encoding: 34 63 34
Width: 770
VWidth: 1638
Flags: W
HStem: 0 60<115 405> 690 60<405 575> 1150 60<175 575>
VStem: 115 60<690 1150> 345 60<230 690> 575 60<750 1150>
CounterMasks: 1 1c
LayerCount: 2
Fore
SplineSet
115 690 m 1
 115 1210 l 1
 635 1210 l 1
 635 690 l 1
 405 690 l 1
 405 230 l 1
 345 230 l 1
 346 750 l 1
 575 750 l 1
 575 1150 l 1
 175 1150 l 1
 175 690 l 1
 115 690 l 1
115 60 m 1
 405 60 l 1
 405 0 l 1
 115 0 l 5
 115 60 l 1
EndSplineSet
Validated: 1
EndChar

StartChar: at
Encoding: 35 64 35
Width: 770
VWidth: 1638
Flags: W
HStem: 0 60<175 635> 230 60<405 575> 690 60<405 575> 1150 60<175 575>
VStem: 115 60<60 1150> 345 60<290 690> 575 60<290 690 750 1150>
CounterMasks: 1 0e
LayerCount: 2
Fore
SplineSet
405 690 m 1
 405 290 l 1
 575 290 l 1
 575 690 l 1
 405 690 l 1
115 1210 m 1
 635 1210 l 1
 635 230 l 1
 345 230 l 1
 346 750 l 1
 575 750 l 1
 575 1150 l 1
 175 1150 l 1
 175 60 l 1
 635 60 l 1
 635 0 l 1
 115 0 l 5
 115 1210 l 1
EndSplineSet
Validated: 1
EndChar

StartChar: B
Encoding: 36 66 36
Width: 770
VWidth: 1638
Flags: W
HStem: 0 60<175 575> 690 60<175 345 405 575> 1150 60<175 345>
VStem: 115 60<60 690 750 1150> 345 60<750 1150> 575 60<60 690>
CounterMasks: 1 1c
LayerCount: 2
Fore
SplineSet
175 690 m 1
 175 60 l 1
 575 60 l 1
 575 690 l 1
 175 690 l 1
175 1150 m 1
 175 750 l 1
 345 750 l 1
 345 1150 l 1
 175 1150 l 1
115 1210 m 1
 405 1210 l 1
 405 750 l 1
 635 750 l 1
 635 0 l 1
 115 0 l 1
 115 1210 l 1
EndSplineSet
Validated: 1
EndChar

StartChar: C
Encoding: 37 67 37
Width: 770
VWidth: 1638
Flags: W
HStem: 0 60<175 635> 1150 60<175 635>
VStem: 115 60<60 1150>
LayerCount: 2
Fore
SplineSet
115 1210 m 1
 635 1210 l 1
 635 1150 l 1
 175 1150 l 1
 175 60 l 1
 635 60 l 5
 635 0 l 1
 115 0 l 1
 115 1210 l 1
EndSplineSet
Validated: 1
EndChar

StartChar: D
Encoding: 38 68 38
Width: 770
VWidth: 1638
Flags: W
HStem: 0 60<175 345> 230 60<405 575> 920 60<405 575> 1150 60<175 345>
VStem: 115 60<60 1150> 345 60<60 230 980 1150> 575 60<290 920>
CounterMasks: 1 0e
LayerCount: 2
Fore
SplineSet
175 1150 m 1
 175 60 l 1
 345 60 l 1
 345 290 l 1
 575 290 l 1
 575 920 l 1
 345 920 l 1
 345 1150 l 1
 175 1150 l 1
115 1210 m 5
 405 1210 l 1
 405 980 l 1
 635 980 l 1
 635 230 l 1
 405 230 l 1
 405 0 l 1
 115 0 l 1
 115 1210 l 5
EndSplineSet
Validated: 1
EndChar

StartChar: E
Encoding: 39 69 39
Width: 770
VWidth: 1638
Flags: W
HStem: 0 60<175 635> 690 60<175 635> 1150 60<175 635>
VStem: 115 60<60 690 750 1150>
LayerCount: 2
Fore
SplineSet
115 1210 m 1
 635 1210 l 1
 635 1150 l 1
 175 1150 l 1
 175 750 l 1
 635 750 l 1
 635 690 l 1
 175 690 l 1
 175 60 l 1
 635 60 l 1
 635 0 l 1
 115 0 l 5
 115 1210 l 1
EndSplineSet
Validated: 1
EndChar

StartChar: F
Encoding: 40 70 40
Width: 770
VWidth: 1638
Flags: W
HStem: 0 21G<115 175> 690 60<175 635> 1150 60<175 635>
VStem: 115 60<0 690 750 1150>
LayerCount: 2
Fore
SplineSet
115 1210 m 1
 635 1210 l 1
 635 1150 l 1
 175 1150 l 1
 175 750 l 1
 635 750 l 1
 635 690 l 1
 175 690 l 1
 175 0 l 1
 115 0 l 5
 115 1210 l 1
EndSplineSet
Validated: 1
EndChar

StartChar: G
Encoding: 41 71 41
Width: 770
VWidth: 1638
Flags: W
HStem: 0 60<175 575> 690 60<346 575> 1150 60<175 635>
VStem: 115 60<60 1150> 575 60<60 690>
LayerCount: 2
Fore
SplineSet
635 1210 m 1
 635 1150 l 1
 175 1150 l 1
 175 60 l 1
 575 60 l 1
 575 690 l 1
 346 690 l 1
 346 750 l 1
 635 750 l 1
 635 0 l 1
 115 0 l 5
 115 1210 l 1
 635 1210 l 1
EndSplineSet
Validated: 1
EndChar

StartChar: H
Encoding: 42 72 42
Width: 770
VWidth: 1638
Flags: W
HStem: 0 21G<115 175 575 635> 690 60<175 575> 1190 20G<115 175 575 635>
VStem: 115 60<0 690 750 1210> 575 60<0 690 750 1210>
LayerCount: 2
Fore
SplineSet
115 1210 m 1
 175 1210 l 1
 175 750 l 1
 575 750 l 1
 575 1210 l 1
 635 1210 l 1
 635 0 l 1
 575 0 l 1
 575 690 l 1
 175 690 l 1
 175 0 l 1
 115 0 l 1
 115 1210 l 1
EndSplineSet
Validated: 1
EndChar

StartChar: I
Encoding: 43 73 43
Width: 770
VWidth: 1638
Flags: W
HStem: 0 60<115 345 405 635> 1150 60<115 345 405 635>
VStem: 345 60<60 1150>
LayerCount: 2
Fore
SplineSet
115 1210 m 1
 635 1210 l 1
 635 1150 l 1
 405 1150 l 1
 405 60 l 1
 635 60 l 1
 635 0 l 1
 115 0 l 1
 115 60 l 1
 345 60 l 1
 345 1150 l 1
 115 1150 l 1
 115 1210 l 1
EndSplineSet
Validated: 1
EndChar

StartChar: J
Encoding: 44 74 44
Width: 770
VWidth: 1638
Flags: W
HStem: -230 60<175 345> 1150 60<115 345 405 635>
VStem: 115 60<-170 60> 345 60<-170 1150>
LayerCount: 2
Fore
SplineSet
115 1210 m 1
 635 1210 l 1
 635 1150 l 1
 405 1150 l 1
 405 -230 l 5
 115 -230 l 1
 115 60 l 1
 175 60 l 1
 175 -170 l 1
 345 -170 l 1
 345 1150 l 1
 115 1150 l 1
 115 1210 l 1
EndSplineSet
Validated: 1
EndChar

StartChar: K
Encoding: 45 75 45
Width: 770
VWidth: 1638
Flags: W
HStem: 0 60<405 635> 690 55<175 345> 920 60<405 635> 1190 20G<115 175>
VStem: 115 60<0 690 745 1210> 345 60<60 690 750 920>
LayerCount: 2
Fore
SplineSet
115 1210 m 5
 175 1210 l 1
 175 745 l 1
 345 750 l 1
 345 980 l 1
 635 980 l 1
 635 920 l 1
 405 920 l 1
 405 60 l 1
 635 60 l 1
 635 0 l 1
 345 0 l 1
 345 690 l 1
 175 690 l 1
 175 0 l 1
 115 0 l 1
 115 1210 l 5
EndSplineSet
Validated: 1
EndChar

StartChar: L
Encoding: 46 76 46
Width: 770
VWidth: 1638
Flags: W
HStem: 0 60<175 635> 1190 20G<115 175>
VStem: 115 60<60 1210>
LayerCount: 2
Fore
SplineSet
175 1210 m 5
 175 60 l 1
 635 60 l 1
 635 0 l 1
 115 0 l 1
 115 1210 l 5
 175 1210 l 5
EndSplineSet
Validated: 1
EndChar

StartChar: M
Encoding: 47 77 47
Width: 770
VWidth: 1638
Flags: W
HStem: 0 21G<115 175 575 635> 920 60<175 345 406 575> 1190 20G<115 175 575 635>
VStem: 115 60<0 920 980 1210> 346 59<690 920> 575 60<0 920 980 1210>
LayerCount: 2
Fore
SplineSet
635 1210 m 1
 635 0 l 1
 575 0 l 1
 575 920 l 1
 406 920 l 1
 405 690 l 1
 346 690 l 1
 345 920 l 1
 175 920 l 1
 175 0 l 1
 115 0 l 1
 115 1210 l 1
 175 1210 l 1
 175 980 l 1
 575 980 l 1
 575 1210 l 1
 635 1210 l 1
EndSplineSet
Validated: 1
EndChar

StartChar: N
Encoding: 48 78 48
Width: 770
VWidth: 1638
Flags: W
HStem: 0 21G<115 175 575 635> 230 60<405 575> 920 60<175 345> 1190 20G<115 175 575 635>
VStem: 115 60<0 920 980 1210> 345 60<290 920> 575 60<0 230 290 1210>
CounterMasks: 1 0e
LayerCount: 2
Fore
SplineSet
635 1210 m 1
 635 0 l 1
 575 0 l 1
 575 230 l 1
 345 230 l 1
 345 920 l 1
 175 920 l 1
 175 0 l 1
 115 0 l 1
 115 1210 l 1
 175 1210 l 1
 175 980 l 1
 406 980 l 1
 405 290 l 1
 575 290 l 1
 575 1210 l 1
 635 1210 l 1
EndSplineSet
Validated: 1
EndChar

StartChar: O
Encoding: 49 79 49
Width: 770
VWidth: 1638
Flags: W
HStem: 0 60<175 575> 1150 60<175 575>
VStem: 115 60<60 1150> 575 60<60 1150>
LayerCount: 2
Fore
SplineSet
575 1150 m 5
 175 1150 l 5
 175 60 l 1
 575 60 l 1
 575 1150 l 5
635 1210 m 5
 635 0 l 1
 115 0 l 1
 115 1210 l 5
 635 1210 l 5
EndSplineSet
Validated: 1
EndChar

StartChar: P
Encoding: 50 80 50
Width: 770
VWidth: 1638
Flags: W
HStem: 0 21G<115 175> 690 60<175 575> 1150 60<175 575>
VStem: 115 60<0 690 750 1150> 575 60<750 1150>
LayerCount: 2
Fore
SplineSet
175 1150 m 1
 175 750 l 1
 575 750 l 1
 575 1150 l 1
 175 1150 l 1
115 1210 m 5
 635 1210 l 1
 635 690 l 1
 175 690 l 1
 175 0 l 1
 115 0 l 1
 115 1210 l 5
EndSplineSet
Validated: 1
EndChar

StartChar: Q
Encoding: 51 81 51
Width: 770
VWidth: 1638
Flags: W
HStem: -230 60<405 635> 0 60<175 345 405 575> 460 60<175 345> 1150 60<175 575>
VStem: 115 60<60 460 520 1150> 345 60<-170 0 60 460> 575 60<60 1150>
CounterMasks: 1 0e
LayerCount: 2
Fore
SplineSet
175 1150 m 5
 175 520 l 1
 405 520 l 1
 405 60 l 1
 575 60 l 1
 575 1150 l 5
 175 1150 l 5
175 460 m 1
 175 60 l 1
 345 60 l 1
 345 460 l 1
 175 460 l 1
115 1210 m 5
 635 1210 l 5
 635 0 l 1
 405 0 l 1
 405 -170 l 1
 635 -170 l 1
 635 -230 l 1
 345 -230 l 1
 345 0 l 1
 115 0 l 1
 115 1210 l 5
EndSplineSet
Validated: 1
EndChar

StartChar: R
Encoding: 52 82 52
Width: 770
VWidth: 1638
Flags: W
HStem: 0 60<405 635> 690 60<175 346 405 575> 1150 60<175 575>
VStem: 115 60<0 690 750 1150> 345 60<60 690> 575 60<750 1150>
CounterMasks: 1 1c
LayerCount: 2
Fore
SplineSet
175 1150 m 1
 175 750 l 1
 575 750 l 1
 575 1150 l 1
 175 1150 l 1
115 1210 m 1
 635 1210 l 1
 635 690 l 1
 405 690 l 1
 405 60 l 1
 635 60 l 1
 635 0 l 1
 345 0 l 5
 346 690 l 1
 175 690 l 1
 175 0 l 1
 115 0 l 1
 115 1210 l 1
EndSplineSet
Validated: 1
EndChar

StartChar: S
Encoding: 53 83 53
Width: 770
VWidth: 1638
Flags: W
HStem: 0 60<115 575> 690 60<175 575> 1150 60<175 635>
VStem: 115 60<750 1150> 575 60<60 690>
LayerCount: 2
Fore
SplineSet
635 1210 m 5
 635 1150 l 5
 175 1150 l 5
 175 750 l 1
 635 750 l 1
 635 0 l 1
 115 0 l 1
 115 60 l 1
 575 60 l 1
 575 690 l 1
 115 690 l 1
 115 1210 l 5
 635 1210 l 5
EndSplineSet
Validated: 1
EndChar

StartChar: T
Encoding: 54 84 54
Width: 770
VWidth: 1638
Flags: W
HStem: 0 21G<345 405> 1150 60<115 345 405 635>
VStem: 345 60<0 1150>
LayerCount: 2
Fore
SplineSet
635 1210 m 1
 635 1150 l 1
 405 1150 l 1
 405 0 l 5
 345 0 l 1
 345 1150 l 1
 115 1150 l 1
 115 1210 l 1
 635 1210 l 1
EndSplineSet
Validated: 1
EndChar

StartChar: U
Encoding: 55 85 55
Width: 770
VWidth: 1638
Flags: W
HStem: 0 60<175 575> 1190 20G<115 175 575 635>
VStem: 115 60<60 1210> 575 60<60 1210>
LayerCount: 2
Fore
SplineSet
635 1210 m 5
 635 0 l 1
 115 0 l 1
 115 1210 l 5
 175 1210 l 5
 175 60 l 1
 575 60 l 1
 575 1210 l 5
 635 1210 l 5
EndSplineSet
Validated: 1
EndChar

StartChar: V
Encoding: 56 86 56
Width: 770
VWidth: 1638
Flags: W
HStem: 0 21G<345 405> 230 60<175 345 405 575> 1190 20G<115 175 575 635>
VStem: 115 60<290 1210> 345 60<0 230> 575 60<290 1210>
CounterMasks: 1 1c
LayerCount: 2
Fore
SplineSet
635 1210 m 1
 635 230 l 1
 405 230 l 5
 405 0 l 1
 345 0 l 1
 345 230 l 1
 115 230 l 1
 115 1210 l 1
 175 1210 l 1
 175 290 l 1
 575 290 l 1
 575 1210 l 1
 635 1210 l 1
EndSplineSet
Validated: 1
EndChar

StartChar: W
Encoding: 57 87 57
Width: 770
VWidth: 1638
Flags: W
HStem: 0 21G<115 175 575 635> 230 60<175 345 405 575> 1190 20G<115 175 575 635>
VStem: 115 60<0 230 290 1210> 345 60<290 520> 575 60<0 230 290 1210>
CounterMasks: 1 1c
LayerCount: 2
Fore
SplineSet
635 1210 m 1
 635 0 l 1
 575 0 l 1
 575 230 l 1
 175 230 l 1
 175 0 l 25
 115 0 l 1
 115 1210 l 1
 175 1210 l 1
 175 290 l 1
 345 290 l 1
 345 520 l 1
 405 520 l 1
 405 290 l 5
 575 290 l 1
 575 1210 l 1
 635 1210 l 1
EndSplineSet
Validated: 1
EndChar

StartChar: X
Encoding: 58 88 58
Width: 770
VWidth: 1638
Flags: W
HStem: 0 21G<115 175 575 635> 460 60<175 345 405 575> 690 60<175 345 405 575> 1190 20G<115 175 575 635>
VStem: 115 60<0 460 750 1210> 345 60<520 690> 575 60<0 460 750 1210>
CounterMasks: 1 0e
LayerCount: 2
Fore
SplineSet
635 1210 m 1
 635 690 l 1
 405 690 l 1
 405 520 l 1
 635 520 l 1
 635 0 l 1
 575 0 l 1
 575 460 l 1
 175 460 l 1
 175 0 l 1
 115 0 l 1
 115 520 l 1
 345 520 l 1
 345 690 l 1
 115 690 l 1
 115 1210 l 1
 175 1210 l 1
 175 750 l 1
 575 750 l 1
 575 1210 l 1
 635 1210 l 1
EndSplineSet
Validated: 1
EndChar

StartChar: Y
Encoding: 59 89 59
Width: 770
VWidth: 1638
Flags: W
HStem: 0 21G<345 405> 690 60<175 346 405 575> 1190 20G<115 175 575 635>
VStem: 115 60<750 1210> 345 60<0 690> 575 60<750 1210>
CounterMasks: 1 1c
LayerCount: 2
Fore
SplineSet
635 1210 m 1
 635 690 l 1
 405 690 l 1
 405 0 l 5
 345 0 l 1
 346 690 l 1
 115 690 l 1
 115 1210 l 1
 175 1210 l 1
 175 750 l 1
 575 750 l 1
 575 1210 l 1
 635 1210 l 1
EndSplineSet
Validated: 1
EndChar

StartChar: Z
Encoding: 60 90 60
Width: 770
VWidth: 1638
Flags: W
HStem: 0 60<175 635> 460 60<175 345> 690 60<405 575> 1150 60<115 575>
VStem: 115 60<60 460> 345 60<520 690> 575 60<750 1150>
CounterMasks: 1 0e
LayerCount: 2
Fore
SplineSet
115 1210 m 1
 635 1210 l 1
 635 690 l 1
 405 690 l 1
 405 460 l 5
 175 460 l 1
 175 60 l 1
 635 60 l 1
 635 0 l 1
 115 0 l 1
 115 520 l 1
 345 520 l 1
 345 750 l 1
 575 750 l 1
 575 1150 l 1
 115 1150 l 1
 115 1210 l 1
EndSplineSet
Validated: 1
EndChar

StartChar: bracketleft
Encoding: 61 91 61
Width: 770
VWidth: 1638
Flags: W
HStem: 0 60<405 635> 1150 60<405 635>
VStem: 345 60<60 1150>
LayerCount: 2
Fore
SplineSet
635 1210 m 1
 635 1150 l 1
 405 1150 l 1
 405 60 l 1
 635 60 l 1
 635 0 l 1
 345 0 l 5
 345 1210 l 1
 635 1210 l 1
EndSplineSet
Validated: 1
EndChar

StartChar: backslash
Encoding: 62 92 62
Width: 770
VWidth: 1638
Flags: W
HStem: 0 21G<575 635> 460 60<405 575> 690 60<175 345> 1190 20G<115 175>
VStem: 115 60<750 1210> 345 60<520 690> 575 60<0 460>
CounterMasks: 1 0e
LayerCount: 2
Fore
SplineSet
115 1210 m 5
 175 1210 l 5
 175 750 l 1
 405 750 l 1
 405 520 l 1
 635 520 l 1
 635 0 l 1
 575 0 l 1
 575 460 l 1
 345 460 l 1
 345 690 l 1
 115 690 l 1
 115 1210 l 5
EndSplineSet
Validated: 1
EndChar

StartChar: bracketright
Encoding: 63 93 63
Width: 770
VWidth: 1638
Flags: W
HStem: 0 60<115 345> 1150 60<115 345>
VStem: 345 60<60 1150>
LayerCount: 2
Fore
SplineSet
115 1210 m 1
 405 1210 l 5
 405 0 l 5
 115 0 l 1
 115 60 l 1
 345 60 l 1
 345 1150 l 1
 115 1150 l 1
 115 1210 l 1
EndSplineSet
Validated: 1
EndChar

StartChar: asciicircum
Encoding: 64 94 64
Width: 770
VWidth: 1638
Flags: W
HStem: 920 60<175 345 405 575> 1190 20G<345 405>
VStem: 115 60<690 920> 345 60<980 1210> 575 60<690 920>
CounterMasks: 1 38
LayerCount: 2
Fore
SplineSet
405 1210 m 1
 405 980 l 5
 635 980 l 1
 635 690 l 1
 575 690 l 1
 575 920 l 1
 175 920 l 1
 175 690 l 1
 115 690 l 1
 115 980 l 1
 345 980 l 1
 345 1210 l 1
 405 1210 l 1
EndSplineSet
Validated: 1
EndChar

StartChar: underscore
Encoding: 65 95 65
Width: 770
VWidth: 1638
Flags: W
HStem: 0 60<115 635>
VStem: 115 520<0 60>
LayerCount: 2
Fore
SplineSet
115 60 m 1
 635 60 l 1
 635 0 l 5
 115 0 l 1
 115 60 l 1
EndSplineSet
Validated: 1
EndChar

StartChar: grave
Encoding: 66 96 66
Width: 770
VWidth: 1638
Flags: W
HStem: 920 60<405 635> 1150 60<115 345>
VStem: 345 60<980 1150>
LayerCount: 2
Fore
SplineSet
115 1150 m 1
 115 1210 l 1
 405 1210 l 1
 405 980 l 5
 635 980 l 1
 635 920 l 1
 345 920 l 1
 345 1150 l 1
 115 1150 l 1
EndSplineSet
Validated: 1
EndChar

StartChar: a
Encoding: 67 97 67
Width: 770
VWidth: 1638
Flags: W
HStem: 0 60<175 575> 460 60<175 575> 690 60<115 575>
VStem: 115 60<60 460> 575 60<60 460 520 690>
LayerCount: 2
Fore
SplineSet
575 460 m 1
 175 460 l 1
 175 60 l 5
 575 60 l 1
 575 460 l 1
115 750 m 1
 635 750 l 1
 635 0 l 1
 115 0 l 1
 115 520 l 1
 575 520 l 1
 575 690 l 1
 115 690 l 1
 115 750 l 1
EndSplineSet
Validated: 1
EndChar

StartChar: b
Encoding: 68 98 68
Width: 770
VWidth: 1638
Flags: W
HStem: 0 60<175 575> 690 60<175 575> 1190 20G<115 175>
VStem: 115 60<60 690 750 1210> 575 60<60 690>
LayerCount: 2
Fore
SplineSet
175 690 m 1
 175 60 l 1
 575 60 l 1
 575 690 l 1
 175 690 l 1
175 1210 m 5
 175 750 l 1
 635 750 l 1
 635 0 l 1
 115 0 l 1
 115 1210 l 5
 175 1210 l 5
EndSplineSet
Validated: 1
EndChar

StartChar: c
Encoding: 69 99 69
Width: 770
VWidth: 1638
Flags: W
HStem: 0 60<175 635> 690 60<175 635>
VStem: 115 60<60 690>
LayerCount: 2
Fore
SplineSet
635 750 m 1
 635 690 l 1
 175 690 l 1
 175 60 l 1
 635 60 l 1
 635 0 l 5
 115 0 l 1
 115 750 l 1
 635 750 l 1
EndSplineSet
Validated: 1
EndChar

StartChar: d
Encoding: 70 100 70
Width: 770
VWidth: 1638
Flags: W
HStem: 0 60<175 575> 690 60<175 575> 1190 20G<575 635>
VStem: 115 60<60 690> 575 60<60 690 750 1210>
LayerCount: 2
Fore
SplineSet
175 690 m 1
 175 60 l 1
 575 60 l 1
 575 690 l 1
 175 690 l 1
635 1210 m 5
 635 0 l 1
 115 0 l 1
 115 750 l 1
 575 750 l 1
 575 1210 l 5
 635 1210 l 5
EndSplineSet
Validated: 1
EndChar

StartChar: e
Encoding: 71 101 71
Width: 770
VWidth: 1638
Flags: W
HStem: 0 60<175 635> 460 60<175 575> 690 60<175 575>
VStem: 115 60<60 460 520 690> 575 60<520 690>
LayerCount: 2
Fore
SplineSet
175 690 m 1
 175 520 l 1
 575 520 l 1
 575 690 l 1
 175 690 l 1
115 750 m 5
 635 750 l 1
 635 460 l 1
 175 460 l 1
 175 60 l 1
 635 60 l 1
 635 0 l 1
 115 0 l 1
 115 750 l 5
EndSplineSet
Validated: 1
EndChar

StartChar: f
Encoding: 72 102 72
Width: 770
VWidth: 1638
Flags: W
HStem: 0 21G<345 405> 690 60<115 345 405 635> 1150 60<405 635>
VStem: 345 60<0 690 750 1150>
LayerCount: 2
Fore
SplineSet
635 1210 m 1
 635 1150 l 1
 405 1150 l 1
 405 750 l 1
 635 750 l 1
 635 690 l 1
 405 690 l 1
 405 0 l 1
 345 0 l 1
 345 690 l 5
 115 690 l 1
 115 750 l 1
 345 750 l 1
 345 1210 l 1
 635 1210 l 1
EndSplineSet
Validated: 1
EndChar

StartChar: g
Encoding: 73 103 73
Width: 770
VWidth: 1638
Flags: W
HStem: -230 60<175 575> 0 60<175 575> 230 60<175 345> 690 60<175 345 405 635>
VStem: 115 60<-170 0 60 230 290 690> 345 60<290 690> 575 60<-170 0>
CounterMasks: 1 0e
LayerCount: 2
Fore
SplineSet
175 0 m 1
 175 -170 l 1
 575 -170 l 1
 575 0 l 1
 175 0 l 1
175 690 m 1
 175 290 l 1
 345 290 l 1
 345 690 l 1
 175 690 l 1
635 750 m 1
 635 690 l 1
 405 690 l 5
 405 230 l 1
 175 230 l 1
 175 60 l 1
 635 60 l 1
 635 -230 l 1
 115 -230 l 1
 115 750 l 1
 635 750 l 1
EndSplineSet
Validated: 1
EndChar

StartChar: h
Encoding: 74 104 74
Width: 770
VWidth: 1638
Flags: W
HStem: 0 21G<115 175 575 635> 690 60<175 575> 1190 20G<115 175>
VStem: 115 60<0 690 750 1210> 575 60<0 690>
LayerCount: 2
Fore
SplineSet
175 1210 m 5
 175 750 l 1
 635 750 l 1
 635 0 l 1
 575 0 l 1
 575 690 l 1
 175 690 l 1
 175 0 l 1
 115 0 l 1
 115 1210 l 5
 175 1210 l 5
EndSplineSet
Validated: 1
EndChar

StartChar: i
Encoding: 75 105 75
Width: 770
VWidth: 1638
Flags: W
HStem: 0 60<115 345 405 635> 690 60<115 345> 920 60<115 405>
VStem: 345 60<60 690>
LayerCount: 2
Fore
SplineSet
115 750 m 1
 405 750 l 1
 405 60 l 5
 635 60 l 1
 635 0 l 1
 115 0 l 1
 115 60 l 1
 345 60 l 1
 345 690 l 1
 115 690 l 1
 115 750 l 1
115 980 m 1
 405 980 l 1
 405 920 l 1
 115 920 l 1
 115 980 l 1
EndSplineSet
Validated: 1
EndChar

StartChar: j
Encoding: 76 106 76
Width: 770
VWidth: 1638
Flags: W
HStem: -230 60<115 345> 690 60<115 345> 920 60<114 405>
VStem: 115 290<-230 -170 690 750 920 980> 345 60<-170 690>
LayerCount: 2
Fore
SplineSet
115 750 m 1xf0
 405 750 l 1
 405 -230 l 1
 115 -230 l 1
 115 -170 l 1xf0
 345 -170 l 1
 345 690 l 1xe8
 115 690 l 1
 115 750 l 1xf0
114 980 m 1
 405 980 l 1
 405 920 l 5
 114 920 l 1
 114 980 l 1
EndSplineSet
Validated: 1
EndChar

StartChar: k
Encoding: 77 107 77
Width: 770
VWidth: 1638
Flags: W
HStem: 0 60<405 635> 460 60<175 345> 690 60<405 635> 1190 20G<115 175>
VStem: 115 60<0 460 520 1210> 345 60<60 460 520 690>
LayerCount: 2
Fore
SplineSet
175 1210 m 5
 175 520 l 1
 345 520 l 1
 345 750 l 1
 635 750 l 1
 635 690 l 1
 405 690 l 1
 405 60 l 1
 635 60 l 1
 635 0 l 1
 345 0 l 1
 345 460 l 1
 175 460 l 1
 175 0 l 1
 115 0 l 1
 115 1210 l 5
 175 1210 l 5
EndSplineSet
Validated: 1
EndChar

StartChar: l
Encoding: 78 108 78
Width: 770
VWidth: 1638
Flags: W
HStem: 0 60<405 635> 1150 60<115 345>
VStem: 345 60<60 1150>
LayerCount: 2
Fore
SplineSet
115 1210 m 5
 405 1210 l 5
 405 60 l 1
 635 60 l 1
 635 0 l 1
 345 0 l 1
 345 1150 l 5
 115 1150 l 5
 115 1210 l 5
EndSplineSet
Validated: 1
EndChar

StartChar: m
Encoding: 79 109 79
Width: 770
VWidth: 1638
Flags: W
HStem: 0 21G<115 175 575 635> 690 60<175 345 405 575>
VStem: 115 60<0 690> 345 60<230 690> 575 60<0 690>
CounterMasks: 1 38
LayerCount: 2
Fore
SplineSet
115 750 m 1
 635 750 l 1
 635 0 l 1
 575 0 l 1
 575 690 l 1
 405 690 l 5
 405 230 l 1
 345 230 l 1
 345 690 l 1
 175 690 l 1
 175 0 l 1
 115 0 l 1
 115 750 l 1
EndSplineSet
Validated: 1
EndChar

StartChar: n
Encoding: 80 110 80
Width: 770
VWidth: 1638
Flags: W
HStem: 0 21G<115 175 575 635> 460 60<175 575> 730 20G<115 175> 730 20G<115 175>
VStem: 115 60<0 460 520 750> 575 60<0 460>
LayerCount: 2
Fore
SplineSet
115 750 m 1xec
 175 750 l 1
 175 520 l 1
 635 520 l 1
 635 0 l 1
 575 0 l 1
 575 460 l 1
 175 460 l 1
 175 0 l 1
 115 0 l 1
 115 750 l 1xec
EndSplineSet
Validated: 1
EndChar

StartChar: o
Encoding: 81 111 81
Width: 770
VWidth: 1638
Flags: W
HStem: 0 60<175 575> 690 60<175 575>
VStem: 115 60<60 690> 575 60<60 690>
LayerCount: 2
Fore
SplineSet
175 690 m 1
 175 60 l 1
 575 60 l 1
 575 690 l 1
 175 690 l 1
115 750 m 5
 635 750 l 1
 635 0 l 1
 115 0 l 1
 115 750 l 5
EndSplineSet
Validated: 1
EndChar

StartChar: p
Encoding: 82 112 82
Width: 770
VWidth: 1638
Flags: W
HStem: -230 21G<115 175> 230 60<175 575> 690 60<175 575>
VStem: 115 60<-230 230 290 690> 575 60<290 690>
LayerCount: 2
Fore
SplineSet
175 690 m 1
 175 290 l 1
 575 290 l 1
 575 690 l 1
 175 690 l 1
115 750 m 1
 635 750 l 1
 635 230 l 1
 175 230 l 1
 175 -230 l 25
 115 -230 l 1
 115 750 l 1
EndSplineSet
Validated: 1
EndChar

StartChar: q
Encoding: 83 113 83
Width: 770
VWidth: 1638
Flags: W
HStem: -230 21G<575 635> 230 60<175 575> 690 60<175 575>
VStem: 115 60<290 690> 575 60<-230 230 290 690>
LayerCount: 2
Fore
SplineSet
175 690 m 1
 175 290 l 1
 575 290 l 1
 575 690 l 1
 175 690 l 1
115 750 m 1
 635 750 l 1
 635 -230 l 5
 575 -230 l 1
 575 230 l 1
 115 230 l 1
 115 750 l 1
EndSplineSet
Validated: 1
EndChar

StartChar: r
Encoding: 84 114 84
Width: 770
VWidth: 1638
Flags: W
HStem: 0 21G<115 175> 690 60<175 575>
VStem: 115 60<0 690> 575 60<460 690>
LayerCount: 2
Fore
SplineSet
115 0 m 1
 115 750 l 1
 635 750 l 1
 635 460 l 5
 575 460 l 1
 575 690 l 1
 175 690 l 1
 175 0 l 1
 115 0 l 1
EndSplineSet
Validated: 1
EndChar

StartChar: s
Encoding: 85 115 85
Width: 770
VWidth: 1638
Flags: W
HStem: 0 60<115 575> 460 60<175 575> 690 60<175 635>
VStem: 115 60<520 690> 575 60<60 460>
LayerCount: 2
Fore
SplineSet
635 750 m 5
 635 690 l 1
 175 690 l 1
 175 520 l 1
 635 520 l 1
 635 0 l 1
 115 0 l 1
 115 60 l 1
 575 60 l 1
 575 460 l 1
 115 460 l 1
 115 750 l 1
 635 750 l 5
EndSplineSet
Validated: 1
EndChar

StartChar: t
Encoding: 86 116 86
Width: 770
VWidth: 1638
Flags: W
HStem: 0 60<405 635> 690 60<115 345 405 635>
VStem: 345 60<60 690 750 980>
LayerCount: 2
Fore
SplineSet
345 980 m 1
 406 980 l 1
 405 750 l 1
 635 750 l 1
 635 690 l 1
 405 690 l 1
 405 60 l 1
 635 60 l 1
 635 0 l 1
 345 0 l 5
 345 690 l 1
 115 690 l 1
 115 750 l 1
 345 750 l 1
 345 980 l 1
EndSplineSet
Validated: 1
EndChar

StartChar: u
Encoding: 87 117 87
Width: 770
VWidth: 1638
Flags: W
HStem: 0 60<175 575> 730 20G<115 175 575 635> 730 20G<115 175 575 635>
VStem: 115 60<60 750> 575 60<60 750>
LayerCount: 2
Fore
SplineSet
635 750 m 1xd8
 635 0 l 1
 115 0 l 1
 115 750 l 5
 175 750 l 1
 175 60 l 1
 575 60 l 1
 575 750 l 1
 635 750 l 1xd8
EndSplineSet
Validated: 1
EndChar

StartChar: w
Encoding: 88 119 88
Width: 770
VWidth: 1638
Flags: W
HStem: 0 21G<115 175 575 635> 230 60<175 345 405 575> 730 20G<115 175 575 635> 730 20G<115 175 575 635>
VStem: 115 60<0 230 290 750> 345 60<290 520> 575 60<0 230 290 750>
CounterMasks: 1 0e
LayerCount: 2
Fore
SplineSet
635 750 m 1xee
 635 0 l 1
 575 0 l 1
 575 230 l 1
 175 230 l 1
 175 0 l 25
 115 0 l 1
 115 750 l 1
 175 750 l 1
 175 290 l 1
 345 290 l 1
 345 520 l 5
 405 520 l 1
 405 290 l 1
 575 290 l 1
 575 750 l 1
 635 750 l 1xee
EndSplineSet
Validated: 1
EndChar

StartChar: x
Encoding: 89 120 89
Width: 770
VWidth: 1638
Flags: W
HStem: 0 21G<115 175 575 635> 230 60<175 345 405 575> 460 60<175 345 405 575> 730 20G<115 175 575 635> 730 20G<115 175 575 635>
VStem: 115 60<0 230 520 750> 345 60<290 460> 575 60<0 230 520 750>
CounterMasks: 1 07
LayerCount: 2
Fore
SplineSet
635 750 m 1xf7
 635 460 l 1
 405 460 l 1
 405 290 l 1
 635 290 l 1
 635 0 l 1
 575 0 l 1
 575 230 l 1
 175 230 l 1
 175 0 l 25
 115 0 l 1
 115 290 l 1
 345 290 l 1
 345 460 l 5
 115 460 l 1
 115 750 l 1
 175 750 l 1
 175 520 l 1
 575 520 l 1
 575 750 l 1
 635 750 l 1xf7
EndSplineSet
Validated: 1
EndChar

StartChar: y
Encoding: 90 121 90
Width: 770
VWidth: 1638
Flags: W
HStem: -230 60<115 575> 230 60<175 575> 730 20G<115 175 575 635> 730 20G<115 175 575 635>
VStem: 115 60<290 750> 575 60<-170 230 290 750>
LayerCount: 2
Fore
SplineSet
635 750 m 1xec
 635 -230 l 1
 115 -230 l 5
 115 -170 l 1
 575 -170 l 1
 575 230 l 1
 115 230 l 1
 115 750 l 1
 175 750 l 1
 175 290 l 1
 575 290 l 1
 575 750 l 1
 635 750 l 1xec
EndSplineSet
Validated: 1
EndChar

StartChar: z
Encoding: 91 122 91
Width: 770
VWidth: 1638
Flags: W
HStem: 0 60<175 635> 230 60<175 345> 460 60<405 575> 690 60<115 575>
VStem: 115 60<60 230> 345 60<290 460> 575 60<520 690>
CounterMasks: 1 0e
LayerCount: 2
Fore
SplineSet
115 750 m 1
 635 750 l 1
 635 460 l 1
 405 460 l 1
 405 230 l 5
 175 230 l 1
 175 60 l 1
 635 60 l 1
 635 0 l 1
 115 0 l 1
 115 290 l 1
 345 290 l 1
 345 520 l 1
 575 520 l 1
 575 690 l 1
 115 690 l 1
 115 750 l 1
EndSplineSet
Validated: 1
EndChar

StartChar: braceleft
Encoding: 92 123 92
Width: 770
VWidth: 1638
Flags: W
HStem: 0 60<405 635> 690 60<115 345> 1150 60<405 635>
VStem: 345 60<60 690 750 1150>
LayerCount: 2
Fore
SplineSet
635 1210 m 1
 635 1150 l 1
 405 1150 l 1
 405 60 l 1
 635 60 l 1
 635 0 l 1
 345 0 l 5
 345 690 l 1
 115 690 l 1
 115 750 l 1
 345 750 l 1
 345 1210 l 1
 635 1210 l 1
EndSplineSet
Validated: 1
EndChar

StartChar: bar
Encoding: 93 124 93
Width: 770
VWidth: 1638
Flags: W
HStem: 0 21G<115 175> 1190 20G<115 175>
VStem: 115 60<0 1210>
LayerCount: 2
Fore
SplineSet
115 1210 m 5
 175 1210 l 5
 175 0 l 1
 115 0 l 1
 115 1210 l 5
EndSplineSet
Validated: 1
EndChar

StartChar: braceright
Encoding: 94 125 94
Width: 770
VWidth: 1638
Flags: W
HStem: 0 60<115 345> 690 60<405 635> 1150 60<115 345>
VStem: 345 60<60 690 750 1150>
LayerCount: 2
Fore
SplineSet
115 1210 m 5
 405 1210 l 5
 405 750 l 1
 635 750 l 1
 635 690 l 1
 405 690 l 1
 405 0 l 1
 115 0 l 1
 115 60 l 1
 345 60 l 1
 345 1150 l 1
 115 1150 l 1
 115 1210 l 5
EndSplineSet
Validated: 1
EndChar

StartChar: asciitilde
Encoding: 95 126 95
Width: 770
VWidth: 1638
Flags: W
HStem: 920 60<405 575> 1150 60<175 345>
VStem: 115 60<920 1150> 345 60<980 1150> 575 60<980 1210>
CounterMasks: 1 38
LayerCount: 2
Fore
SplineSet
115 920 m 1
 115 1210 l 1
 405 1210 l 1
 405 980 l 1
 575 980 l 1
 575 1210 l 1
 635 1210 l 1
 635 920 l 1
 345 920 l 1
 345 1150 l 1
 175 1150 l 1
 175 920 l 1
 115 920 l 1
EndSplineSet
Validated: 1
EndChar

StartChar: exclamdown
Encoding: 96 161 96
Width: 770
Flags: W
HStem: -230 21G<345 405> 1150 60<345 635>
VStem: 345 60<-230 980>
LayerCount: 2
Fore
SplineSet
345 980 m 5
 405 980 l 1
 405 -230 l 1
 345 -230 l 1
 345 980 l 5
345 1210 m 1
 635 1210 l 1
 635 1150 l 1
 345 1150 l 1
 345 1210 l 1
EndSplineSet
Validated: 1
EndChar

StartChar: cent
Encoding: 97 162 97
Width: 770
Flags: W
HStem: 0 21G<345 405> 230 60<175 345 405 635> 920 60<175 345 405 635> 1190 20G<345 405>
VStem: 115 60<290 920> 345 60<0 230 290 920 980 1210>
LayerCount: 2
Fore
SplineSet
175 920 m 1
 175 290 l 1
 345 290 l 1
 345 920 l 1
 175 920 l 1
635 980 m 1
 635 920 l 1
 405 920 l 1
 405 290 l 1
 635 290 l 1
 635 230 l 1
 405 230 l 1
 405 0 l 5
 345 0 l 1
 345 230 l 1
 115 230 l 1
 114 980 l 1
 345 980 l 1
 345 1210 l 1
 405 1210 l 1
 405 980 l 1
 635 980 l 1
EndSplineSet
Validated: 1
EndChar

StartChar: yen
Encoding: 99 165 99
Width: 770
VWidth: 1638
Flags: W
HStem: 0 21G<345 405> 230 60<115 345 405 635> 460 60<115 345 405 635> 690 60<175 345 405 575> 1190 20G<115 175 575 635>
VStem: 115 60<750 1210> 345 60<0 230 290 460 520 690> 575 60<750 1210>
CounterMasks: 1 07
LayerCount: 2
Fore
SplineSet
635 1210 m 1
 635 690 l 1
 405 690 l 1
 405 520 l 1
 635 520 l 1
 635 460 l 1
 405 460 l 1
 405 290 l 1
 635 290 l 1
 635 230 l 1
 405 230 l 1
 405 0 l 5
 345 0 l 1
 345 230 l 1
 115 230 l 1
 115 290 l 1
 345 290 l 1
 345 460 l 1
 115 460 l 1
 115 520 l 1
 345 520 l 1
 345 690 l 1
 115 690 l 1
 115 1210 l 1
 175 1210 l 1
 175 750 l 1
 575 750 l 1
 575 1210 l 1
 635 1210 l 1
EndSplineSet
Validated: 1
EndChar

StartChar: brokenbar
Encoding: 100 166 100
Width: 770
Flags: W
HStem: 0 21G<345 405> 1190 20G<345 405>
VStem: 345 60<0 520 690 1210>
LayerCount: 2
Fore
SplineSet
345 520 m 1
 405 520 l 1
 405 0 l 5
 345 0 l 1
 345 520 l 1
345 1210 m 1
 405 1210 l 1
 405 690 l 1
 345 690 l 1
 345 1210 l 1
EndSplineSet
Validated: 1
EndChar

StartChar: section
Encoding: 101 167 101
Width: 770
Flags: W
HStem: 0 60<115 575> 460 60<175 575> 690 60<175 575> 1150 60<175 635>
VStem: 115 60<520 690 750 1150> 575 60<60 460 520 690>
LayerCount: 2
Fore
SplineSet
175 690 m 1
 175 520 l 1
 575 520 l 1
 575 690 l 1
 175 690 l 1
635 1210 m 5
 635 1150 l 5
 175 1150 l 5
 175 750 l 1
 635 750 l 1
 635 0 l 1
 115 0 l 1
 115 60 l 1
 575 60 l 1
 575 460 l 1
 115 460 l 1
 115 1210 l 5
 635 1210 l 5
EndSplineSet
Validated: 1
EndChar

StartChar: copyright
Encoding: 102 169 102
Width: 770
Flags: W
HStem: 230 60<175 575> 460 60<405 575> 690 60<405 575> 920 60<175 575>
VStem: 115 60<290 920> 345 60<520 690> 575 60<290 460 520 690 750 920>
CounterMasks: 1 0e
LayerCount: 2
Fore
SplineSet
405 690 m 1
 405 520 l 1
 575 520 l 1
 575 690 l 1
 405 690 l 1
575 750 m 1
 575 920 l 5
 175 920 l 5
 175 290 l 1
 575 290 l 1
 575 460 l 1
 345 460 l 1
 345 750 l 1
 575 750 l 1
115 980 m 5
 635 980 l 5
 635 230 l 1
 115 230 l 1
 115 980 l 5
EndSplineSet
Validated: 1
EndChar

StartChar: ordfeminine
Encoding: 103 170 103
Width: 770
Flags: W
HStem: 690 60<175 345> 920 60<175 345> 1150 60<115 345>
VStem: 115 60<750 920> 345 60<750 920 980 1150>
CounterMasks: 1 e0
LayerCount: 2
Fore
SplineSet
175 920 m 1
 175 750 l 1
 345 750 l 1
 345 920 l 1
 175 920 l 1
115 1210 m 1
 405 1210 l 1
 405 690 l 5
 115 690 l 1
 115 980 l 1
 345 980 l 1
 345 1150 l 1
 115 1150 l 1
 115 1210 l 1
EndSplineSet
Validated: 1
EndChar

StartChar: degree
Encoding: 104 176 104
Width: 770
Flags: W
HStem: 920 60<175 345> 1150 60<175 345>
VStem: 115 60<980 1150> 345 60<980 1150>
LayerCount: 2
Fore
SplineSet
175 1150 m 1
 175 980 l 1
 345 980 l 5
 345 1150 l 1
 175 1150 l 1
115 1210 m 1
 405 1210 l 1
 405 920 l 1
 115 920 l 1
 115 1210 l 1
EndSplineSet
Validated: 1
EndChar

StartChar: logicalnot
Encoding: 105 172 105
Width: 770
Flags: W
HStem: 690 60<115 575>
VStem: 575 60<460 690>
LayerCount: 2
Fore
SplineSet
115 750 m 5
 635 750 l 1
 635 460 l 1
 575 460 l 1
 575 690 l 1
 115 690 l 1
 115 750 l 5
EndSplineSet
Validated: 1
EndChar

StartChar: uni00B2
Encoding: 106 178 106
Width: 770
Flags: W
HStem: 690 60<175 405> 920 60<175 345> 1150 60<115 345>
VStem: 115 60<750 920> 345 60<980 1150>
CounterMasks: 1 e0
LayerCount: 2
Fore
SplineSet
115 1210 m 1
 405 1210 l 1
 405 920 l 1
 175 920 l 1
 175 750 l 1
 405 750 l 5
 405 690 l 1
 115 690 l 1
 115 980 l 1
 345 980 l 1
 345 1150 l 1
 115 1150 l 1
 115 1210 l 1
EndSplineSet
Validated: 1
EndChar

StartChar: uni00B3
Encoding: 107 179 107
Width: 770
Flags: W
HStem: 690 60<115 345> 920 60<115 345> 1150 60<115 345>
VStem: 115 290<690 750 920 980 1150 1210> 345 60<750 920 980 1150>
CounterMasks: 1 e0
LayerCount: 2
Fore
SplineSet
115 1210 m 1xf0
 405 1210 l 1
 405 690 l 5
 115 690 l 1
 115 750 l 1xf0
 345 750 l 1
 345 920 l 1xe8
 115 920 l 1
 115 980 l 1xf0
 345 980 l 1
 345 1150 l 1xe8
 115 1150 l 1
 115 1210 l 1xf0
EndSplineSet
Validated: 1
EndChar

StartChar: ordmasculine
Encoding: 108 186 108
Width: 770
Flags: W
HStem: 690 60<175 345> 1150 60<175 345>
VStem: 115 60<750 1150> 345 60<750 1150>
LayerCount: 2
Fore
SplineSet
175 1150 m 1
 175 750 l 1
 345 750 l 1
 345 1150 l 1
 175 1150 l 1
115 1210 m 1
 405 1210 l 1
 405 690 l 5
 115 690 l 1
 115 1210 l 1
EndSplineSet
Validated: 1
EndChar

StartChar: onequarter
Encoding: 109 188 109
Width: 770
VWidth: 1638
Flags: W
HStem: 0 21G<114 174> 481 60<174 358> 722 60<418 605>
VStem: 114 60<0 481> 358 61<541 722> 605 61<782 1249>
LayerCount: 2
Fore
SplineSet
666 1249 m 29
 666 722 l 29
 418 722 l 29
 419 481 l 29
 174 481 l 29
 174 0 l 29
 114 0 l 29
 114 541 l 29
 358 541 l 29
 358 782 l 29
 605 782 l 29
 605 1249 l 29
 666 1249 l 29
EndSplineSet
Validated: 1
EndChar

StartChar: germandbls
Encoding: 110 223 110
Width: 770
Flags: W
HStem: 0 60<348 575> 690 60<405 575> 1150 60<175 345>
VStem: 115 60<0 1150> 345 60<750 1150> 575 60<60 690>
CounterMasks: 1 1c
LayerCount: 2
Fore
SplineSet
115 0 m 1
 115 1210 l 5
 405 1210 l 5
 405 750 l 1
 635 750 l 1
 635 0 l 1
 348 0 l 1
 348 60 l 1
 575 60 l 1
 575 690 l 1
 345 690 l 1
 345 1150 l 5
 175 1150 l 5
 175 0 l 1
 115 0 l 1
EndSplineSet
Validated: 1
EndChar

StartChar: Thorn
Encoding: 111 222 111
Width: 770
Flags: W
HStem: 0 21G<115 175> 230 60<175 575> 920 60<175 575> 1190 20G<115 175>
VStem: 115 60<0 230 290 920 980 1210> 575 60<290 920>
LayerCount: 2
Fore
SplineSet
175 920 m 1
 175 290 l 1
 575 290 l 1
 575 920 l 1
 175 920 l 1
115 1210 m 1
 175 1210 l 1
 175 980 l 1
 635 980 l 1
 635 230 l 1
 175 230 l 1
 175 0 l 25
 115 0 l 1
 115 1210 l 1
EndSplineSet
Validated: 1
EndChar

StartChar: thorn
Encoding: 112 254 112
Width: 770
Flags: W
HStem: -230 21G<115 175> 0 60<175 575> 460 60<175 575> 730 20G<115 175> 730 20G<115 175>
VStem: 115 60<-230 0 60 460 520 750> 575 60<60 460>
LayerCount: 2
Fore
SplineSet
175 460 m 1xe6
 175 60 l 1
 575 60 l 1
 575 460 l 1
 175 460 l 1xe6
115 -230 m 1
 115 750 l 1
 175 750 l 1xf6
 175 520 l 1
 635 520 l 5
 635 0 l 1
 175 0 l 1
 175 -230 l 1
 115 -230 l 1
EndSplineSet
Validated: 1
EndChar

StartChar: AE
Encoding: 113 198 113
Width: 770
Flags: W
HStem: 0 60<405 635> 690 60<175 345 405 635> 1150 60<175 345 405 635>
VStem: 115 60<0 690 750 1150> 345 60<60 690 750 1150>
LayerCount: 2
Fore
SplineSet
175 1150 m 1
 175 750 l 1
 345 750 l 1
 345 1150 l 1
 175 1150 l 1
115 0 m 1
 115 1210 l 1
 635 1210 l 1
 635 1150 l 1
 405 1150 l 1
 405 750 l 1
 635 750 l 1
 635 690 l 1
 405 690 l 1
 405 60 l 1
 635 60 l 1
 635 0 l 1
 345 0 l 1
 345 690 l 1
 175 690 l 1
 175 0 l 1
 115 0 l 1
EndSplineSet
Validated: 1
EndChar

StartChar: ae
Encoding: 114 230 114
Width: 770
Flags: W
HStem: 0 60<175 345 405 635> 460 60<175 345 405 575> 690 60<115 345 405 575>
VStem: 115 60<60 460> 345 60<60 460 520 690> 575 60<520 690>
CounterMasks: 1 1c
LayerCount: 2
Fore
SplineSet
175 460 m 1
 175 60 l 1
 345 60 l 1
 345 460 l 1
 175 460 l 1
405 690 m 1
 405 520 l 1
 575 520 l 1
 575 690 l 1
 405 690 l 1
115 750 m 1
 635 750 l 1
 635 460 l 1
 405 460 l 1
 405 60 l 1
 635 60 l 1
 635 0 l 1
 115 0 l 1
 115 520 l 1
 345 520 l 1
 345 690 l 5
 115 690 l 1
 115 750 l 1
EndSplineSet
Validated: 1
EndChar

StartChar: Eth
Encoding: 115 208 115
Width: 770
VWidth: 1638
Flags: W
HStem: 0 60<175 345> 230 60<405 575> 690 60<175 405> 920 60<405 575> 1150 60<175 345>
VStem: 115 60<60 690 750 1150> 345 60<60 230 980 1150> 575 60<290 920>
CounterMasks: 1 07
LayerCount: 2
Fore
SplineSet
175 1150 m 1
 175 750 l 1
 405 750 l 1
 405 690 l 1
 175 690 l 1
 175 60 l 1
 345 60 l 1
 345 290 l 1
 575 290 l 1
 575 920 l 1
 345 920 l 1
 345 1150 l 1
 175 1150 l 1
115 1210 m 1
 405 1210 l 1
 405 980 l 1
 635 980 l 1
 635 230 l 1
 405 230 l 1
 405 0 l 1
 115 0 l 1
 115 1210 l 1
EndSplineSet
Validated: 1
EndChar

StartChar: Dcroat
Encoding: 116 272 116
Width: 770
VWidth: 1638
Flags: W
HStem: 0 60<175 345> 230 60<405 575> 690 60<175 405> 920 60<405 575> 1150 60<175 345>
VStem: 115 60<60 690 750 1150> 345 60<60 230 980 1150> 575 60<290 920>
CounterMasks: 1 07
LayerCount: 2
Fore
SplineSet
175 1150 m 1
 175 750 l 1
 405 750 l 1
 405 690 l 1
 175 690 l 1
 175 60 l 1
 345 60 l 1
 345 290 l 1
 575 290 l 1
 575 920 l 1
 345 920 l 1
 345 1150 l 1
 175 1150 l 1
115 1210 m 1
 405 1210 l 1
 405 980 l 1
 635 980 l 1
 635 230 l 1
 405 230 l 1
 405 0 l 1
 115 0 l 1
 115 1210 l 1
EndSplineSet
Validated: 1
EndChar

StartChar: uni0410
Encoding: 117 1040 117
Width: 770
VWidth: 1638
Flags: W
HStem: 0 21G<115 175 575 635> 690 60<175 575> 1150 60<175 575>
VStem: 115 60<0 690 750 1150> 575 60<0 690 750 1150>
LayerCount: 2
Fore
SplineSet
175 1150 m 1
 175 750 l 1
 575 750 l 1
 575 1150 l 1
 175 1150 l 1
115 1210 m 5
 635 1210 l 1
 635 0 l 1
 575 0 l 1
 575 690 l 1
 175 690 l 1
 175 0 l 1
 115 0 l 1
 115 1210 l 5
EndSplineSet
Validated: 1
EndChar

StartChar: uni0412
Encoding: 118 1042 118
Width: 770
VWidth: 1638
Flags: W
HStem: 0 60<175 575> 690 60<175 345 405 575> 1150 60<175 345>
VStem: 115 60<60 690 750 1150> 345 60<750 1150> 575 60<60 690>
CounterMasks: 1 1c
LayerCount: 2
Fore
SplineSet
175 690 m 1
 175 60 l 1
 575 60 l 1
 575 690 l 1
 175 690 l 1
175 1150 m 1
 175 750 l 1
 345 750 l 1
 345 1150 l 1
 175 1150 l 1
115 1210 m 1
 405 1210 l 1
 405 750 l 1
 635 750 l 1
 635 0 l 1
 115 0 l 1
 115 1210 l 1
EndSplineSet
Validated: 1
EndChar

StartChar: uni0411
Encoding: 119 1041 119
Width: 770
VWidth: 1638
Flags: W
HStem: 0 60<175 575> 690 60<175 575> 1150 60<175 635>
VStem: 115 60<60 690 750 1150> 575 60<60 690>
LayerCount: 2
Fore
SplineSet
175 690 m 1
 175 60 l 1
 575 60 l 1
 575 690 l 1
 175 690 l 1
635 1210 m 5
 635 1150 l 1
 175 1150 l 1
 175 750 l 1
 635 750 l 1
 635 0 l 1
 115 0 l 1
 115 1210 l 1
 635 1210 l 5
EndSplineSet
Validated: 1
EndChar

StartChar: uni0413
Encoding: 120 1043 120
Width: 770
Flags: W
HStem: 0 21G<115 175> 1150 60<175 635>
VStem: 115 60<0 1150>
LayerCount: 2
Fore
SplineSet
115 1210 m 5
 635 1210 l 5
 635 1150 l 5
 175 1150 l 5
 175 0 l 1
 115 0 l 1
 115 1210 l 5
EndSplineSet
Validated: 1
EndChar

StartChar: uni00B9
Encoding: 198 185 198
Width: 770
Flags: MW
LayerCount: 2
Fore
SplineSet
115 1215 m 29
 405 1215 l 25
 408 690 l 25
 346 690 l 25
 345 1155 l 25
 115 1155 l 25
 115 1215 l 29
EndSplineSet
Validated: 1
EndChar

StartChar: uni0414
Encoding: 811 1044 811
Width: 770
Flags: W
HStem: -230 21G<115 175 575 635> 0 60<175 345 405 575> 1150 60<405 575>
VStem: 115 60<-230 0> 345 60<60 1150> 575 60<-230 0 60 1150>
CounterMasks: 1 1c
LayerCount: 2
Fore
SplineSet
405 1150 m 5
 405 60 l 1
 575 60 l 1
 575 1150 l 5
 405 1150 l 5
115 -230 m 1
 115 60 l 1
 345 60 l 1
 345 1210 l 5
 635 1210 l 5
 635 -230 l 1
 575 -230 l 1
 575 -0 l 1
 175 0 l 1
 175 -230 l 1
 115 -230 l 1
EndSplineSet
Validated: 1
EndChar

StartChar: uni0415
Encoding: 812 1045 812
Width: 770
VWidth: 1638
Flags: W
HStem: 0 60<175 635> 690 60<175 635> 1150 60<175 635>
VStem: 115 60<60 690 750 1150>
LayerCount: 2
Fore
SplineSet
115 1210 m 1
 635 1210 l 1
 635 1150 l 1
 175 1150 l 1
 175 750 l 1
 635 750 l 1
 635 690 l 1
 175 690 l 1
 175 60 l 1
 635 60 l 1
 635 0 l 1
 115 0 l 5
 115 1210 l 1
EndSplineSet
Validated: 1
EndChar

StartChar: uni0417
Encoding: 813 1047 813
Width: 770
Flags: W
HStem: 0 60<115 575> 690 60<115 345 405 575> 1150 60<115 345>
VStem: 345 60<750 1150> 575 60<60 690>
LayerCount: 2
Fore
SplineSet
115 1210 m 5
 405 1210 l 5
 405 750 l 1
 635 750 l 1
 635 0 l 1
 115 0 l 1
 115 60 l 1
 575 60 l 1
 575 690 l 1
 115 690 l 1
 115 750 l 1
 345 750 l 1
 345 1150 l 5
 115 1150 l 5
 115 1210 l 5
EndSplineSet
Validated: 1
EndChar

StartChar: uni0418
Encoding: 814 1048 814
Width: 770
Flags: W
HStem: 0 21G<115 175 575 635> 230 60<175 345> 920 60<406 575> 1190 20G<115 175 575 635>
VStem: 115 60<0 230 290 1210> 345 60<290 920> 575 60<0 920 980 1210>
CounterMasks: 1 0e
LayerCount: 2
Fore
SplineSet
115 1210 m 1
 175 1210 l 1
 175 290 l 1
 345 290 l 1
 345 980 l 1
 575 980 l 1
 575 1210 l 1
 635 1210 l 1
 635 0 l 1
 575 0 l 1
 575 920 l 1
 406 920 l 1
 405 230 l 1
 175 230 l 1
 175 0 l 25
 115 0 l 1
 115 1210 l 1
EndSplineSet
Validated: 1
EndChar

StartChar: uni0419
Encoding: 815 1049 815
Width: 770
Flags: W
HStem: 0 21G<115 175 575 635> 230 60<175 345> 460 60<405 575> 730 20G<115 175 575 635> 730 20G<115 175 575 635> 920 60<175 575> 1190 20G<575 635>
VStem: 115 60<0 230 290 750 980 1208> 345 60<290 460> 575 60<0 460 520 750 980 1210>
CounterMasks: 1 01c0
LayerCount: 2
Fore
SplineSet
635 750 m 1xf7c0
 635 0 l 1
 575 0 l 1
 575 460 l 1
 405 460 l 1
 405 230 l 5
 175 230 l 1
 175 0 l 25
 115 0 l 1
 115 750 l 25
 175 750 l 1
 175 290 l 1
 345 290 l 1
 345 520 l 1
 575 520 l 1
 575 750 l 1
 635 750 l 1xf7c0
635 1210 m 1
 635 920 l 1
 115 920 l 1
 115 1208 l 25
 175 1208 l 25
 175 980 l 1
 575 980 l 1
 575 1210 l 1
 635 1210 l 1
EndSplineSet
Validated: 1
EndChar

StartChar: uni041A
Encoding: 816 1050 816
Width: 770
VWidth: 1638
Flags: W
HStem: 0 60<405 635> 690 55<175 345> 920 60<405 635> 1190 20G<115 175>
VStem: 115 60<0 690 745 1210> 345 60<60 690 750 920>
LayerCount: 2
Fore
SplineSet
115 1210 m 5
 175 1210 l 1
 175 745 l 1
 345 750 l 1
 345 980 l 1
 635 980 l 1
 635 920 l 1
 405 920 l 1
 405 60 l 1
 635 60 l 1
 635 0 l 1
 345 0 l 1
 345 690 l 1
 175 690 l 1
 175 0 l 1
 115 0 l 1
 115 1210 l 5
EndSplineSet
Validated: 1
EndChar

StartChar: uni041B
Encoding: 817 1051 817
Width: 770
Flags: W
HStem: 0 60<115 345> 1150 60<405 575>
VStem: 345 60<60 1150> 575 60<0 1150>
LayerCount: 2
Fore
SplineSet
635 1210 m 5
 635 0 l 1
 575 0 l 1
 575 1150 l 5
 405 1150 l 5
 405 0 l 1
 115 0 l 1
 115 60 l 1
 345 60 l 1
 345 1210 l 5
 635 1210 l 5
EndSplineSet
Validated: 1
EndChar

StartChar: uni041C
Encoding: 818 1052 818
Width: 770
VWidth: 1638
Flags: W
HStem: 0 21G<115 175 575 635> 920 60<175 345 406 575> 1190 20G<115 175 575 635>
VStem: 115 60<0 920 980 1210> 346 59<690 920> 575 60<0 920 980 1210>
LayerCount: 2
Fore
SplineSet
635 1210 m 1
 635 0 l 1
 575 0 l 1
 575 920 l 1
 406 920 l 1
 405 690 l 1
 346 690 l 1
 345 920 l 1
 175 920 l 1
 175 0 l 1
 115 0 l 1
 115 1210 l 1
 175 1210 l 1
 175 980 l 1
 575 980 l 1
 575 1210 l 1
 635 1210 l 1
EndSplineSet
Validated: 1
EndChar

StartChar: uni041D
Encoding: 819 1053 819
Width: 770
VWidth: 1638
Flags: W
HStem: 0 21G<115 175 575 635> 690 60<175 575> 1190 20G<115 175 575 635>
VStem: 115 60<0 690 750 1210> 575 60<0 690 750 1210>
LayerCount: 2
Fore
SplineSet
115 1210 m 1
 175 1210 l 1
 175 750 l 1
 575 750 l 1
 575 1210 l 1
 635 1210 l 1
 635 0 l 1
 575 0 l 1
 575 690 l 1
 175 690 l 1
 175 0 l 1
 115 0 l 1
 115 1210 l 1
EndSplineSet
Validated: 1
EndChar

StartChar: uni041E
Encoding: 820 1054 820
Width: 770
VWidth: 1638
Flags: W
HStem: 0 60<175 575> 1150 60<175 575>
VStem: 115 60<60 1150> 575 60<60 1150>
LayerCount: 2
Fore
SplineSet
575 1150 m 5
 175 1150 l 5
 175 60 l 1
 575 60 l 1
 575 1150 l 5
635 1210 m 5
 635 0 l 1
 115 0 l 1
 115 1210 l 5
 635 1210 l 5
EndSplineSet
Validated: 1
EndChar

StartChar: uni041F
Encoding: 821 1055 821
Width: 770
Flags: W
HStem: 0 21G<115 175 575 635> 1150 60<175 575>
VStem: 115 60<0 1150> 575 60<0 1150>
LayerCount: 2
Fore
SplineSet
115 1210 m 5
 635 1210 l 5
 635 0 l 1
 575 0 l 1
 575 1150 l 5
 175 1150 l 5
 175 0 l 1
 115 0 l 1
 115 1210 l 5
EndSplineSet
Validated: 1
EndChar

StartChar: uni0420
Encoding: 822 1056 822
Width: 770
VWidth: 1638
Flags: W
HStem: 0 21G<115 175> 690 60<175 575> 1150 60<175 575>
VStem: 115 60<0 690 750 1150> 575 60<750 1150>
LayerCount: 2
Fore
SplineSet
175 1150 m 1
 175 750 l 1
 575 750 l 1
 575 1150 l 1
 175 1150 l 1
115 1210 m 5
 635 1210 l 1
 635 690 l 1
 175 690 l 1
 175 0 l 1
 115 0 l 1
 115 1210 l 5
EndSplineSet
Validated: 1
EndChar

StartChar: uni0421
Encoding: 823 1057 823
Width: 770
VWidth: 1638
Flags: W
HStem: 0 60<175 635> 1150 60<175 635>
VStem: 115 60<60 1150>
LayerCount: 2
Fore
SplineSet
115 1210 m 1
 635 1210 l 1
 635 1150 l 1
 175 1150 l 1
 175 60 l 1
 635 60 l 5
 635 0 l 1
 115 0 l 1
 115 1210 l 1
EndSplineSet
Validated: 1
EndChar

StartChar: uni0422
Encoding: 824 1058 824
Width: 770
VWidth: 1638
Flags: W
HStem: 0 21G<345 405> 1150 60<115 345 405 635>
VStem: 345 60<0 1150>
LayerCount: 2
Fore
SplineSet
635 1210 m 1
 635 1150 l 1
 405 1150 l 1
 405 0 l 5
 345 0 l 1
 345 1150 l 1
 115 1150 l 1
 115 1210 l 1
 635 1210 l 1
EndSplineSet
Validated: 1
EndChar

StartChar: uni0423
Encoding: 825 1059 825
Width: 770
Flags: W
HStem: 0 60<115 575> 690 60<175 575> 1190 20G<115 175 575 635>
VStem: 115 60<750 1210> 575 60<60 690 750 1210>
LayerCount: 2
Fore
SplineSet
635 1210 m 5
 635 0 l 1
 115 0 l 1
 115 60 l 1
 575 60 l 1
 575 690 l 1
 115 690 l 1
 115 1210 l 5
 175 1210 l 5
 175 750 l 1
 575 750 l 1
 575 1210 l 5
 635 1210 l 5
EndSplineSet
Validated: 1
EndChar

StartChar: uni0424
Encoding: 826 1060 826
Width: 770
Flags: W
HStem: 0 21G<345 405> 230 60<175 345 405 575> 920 60<175 345 406 575> 1190 20G<345 405>
VStem: 115 60<290 920> 345 60<0 230 290 920 980 1210> 575 60<290 920>
CounterMasks: 1 0e
LayerCount: 2
Fore
SplineSet
406 920 m 1
 405 290 l 1
 575 290 l 1
 575 920 l 1
 406 920 l 1
175 920 m 1
 175 290 l 1
 345 290 l 1
 345 920 l 1
 175 920 l 1
405 1210 m 1
 405 980 l 1
 635 980 l 1
 635 230 l 1
 405 230 l 1
 405 0 l 5
 345 0 l 1
 345 230 l 1
 115 230 l 1
 115 980 l 1
 345 980 l 1
 345 1210 l 1
 405 1210 l 1
EndSplineSet
Validated: 1
EndChar

StartChar: uni0425
Encoding: 827 1061 827
Width: 770
VWidth: 1638
Flags: W
HStem: 0 21G<115 175 575 635> 460 60<175 345 405 575> 690 60<175 345 405 575> 1190 20G<115 175 575 635>
VStem: 115 60<0 460 750 1210> 345 60<520 690> 575 60<0 460 750 1210>
CounterMasks: 1 0e
LayerCount: 2
Fore
SplineSet
635 1210 m 1
 635 690 l 1
 405 690 l 1
 405 520 l 1
 635 520 l 1
 635 0 l 1
 575 0 l 1
 575 460 l 1
 175 460 l 1
 175 0 l 1
 115 0 l 1
 115 520 l 1
 345 520 l 1
 345 690 l 1
 115 690 l 1
 115 1210 l 1
 175 1210 l 1
 175 750 l 1
 575 750 l 1
 575 1210 l 1
 635 1210 l 1
EndSplineSet
Validated: 1
EndChar

StartChar: uni0426
Encoding: 828 1062 828
Width: 770
Flags: W
HStem: -230 21G<575 635> 0 60<175 575> 1190 20G<115 175 575 635>
VStem: 115 60<60 1210> 575 60<-230 0 60 1210>
LayerCount: 2
Fore
SplineSet
635 1210 m 5
 635 -230 l 1
 575 -230 l 1
 575 0 l 1
 115 0 l 1
 115 1210 l 29
 175 1210 l 5
 175 60 l 1
 575 60 l 1
 575 1210 l 5
 635 1210 l 5
EndSplineSet
Validated: 1
EndChar

StartChar: uni0427
Encoding: 829 1063 829
Width: 770
Flags: W
HStem: 0 21G<575 635> 460 60<175 575> 1190 20G<115 175 575 635>
VStem: 115 60<520 1210> 575 60<0 460 520 1210>
LayerCount: 2
Fore
SplineSet
635 1210 m 1
 635 0 l 1
 575 0 l 1
 575 460 l 1
 115 460 l 1
 115 1210 l 1
 175 1210 l 1
 175 520 l 1
 575 520 l 1
 575 1210 l 1
 635 1210 l 1
EndSplineSet
Validated: 1
EndChar

StartChar: uni0428
Encoding: 830 1064 830
Width: 770
Flags: W
HStem: 0 60<175 345 405 575> 730 20G<345 405> 730 20G<345 405> 1190 20G<115 175 575 635>
VStem: 115 60<60 1210> 345 60<60 750> 575 60<60 1210>
CounterMasks: 1 0e
LayerCount: 2
Fore
SplineSet
635 1210 m 1xde
 635 0 l 1
 115 0 l 1
 115 1210 l 1
 175 1210 l 1
 175 60 l 1
 345 60 l 1
 345 750 l 5
 405 750 l 1
 405 60 l 1
 575 60 l 1
 575 1210 l 1
 635 1210 l 1xde
EndSplineSet
Validated: 1
EndChar

StartChar: uni0429
Encoding: 831 1065 831
Width: 770
Flags: W
HStem: -230 21G<575 635> 0 60<175 345 405 575> 730 20G<345 405> 730 20G<345 405> 1190 20G<115 175 575 635>
VStem: 115 60<60 1210> 345 60<60 750> 575 60<-230 0 60 1210>
CounterMasks: 1 07
LayerCount: 2
Fore
SplineSet
635 1210 m 1xef
 635 -230 l 1
 575 -230 l 1
 575 0 l 1
 115 0 l 1
 115 1210 l 25
 175 1210 l 1
 175 60 l 1
 345 60 l 1
 345 750 l 1
 405 750 l 1
 405 60 l 5
 575 60 l 1
 575 1210 l 1
 635 1210 l 1xef
EndSplineSet
Validated: 1
EndChar

StartChar: uni042A
Encoding: 832 1066 832
Width: 770
Flags: W
HStem: 0 60<405 575> 690 60<405 575> 1150 60<115 345>
VStem: 345 60<60 690 750 1150> 575 60<60 690>
LayerCount: 2
Fore
SplineSet
405 690 m 1
 405 60 l 1
 575 60 l 1
 575 690 l 1
 405 690 l 1
115 1210 m 5
 405 1210 l 5
 405 750 l 1
 635 750 l 1
 635 0 l 1
 345 0 l 1
 345 1150 l 5
 115 1150 l 5
 115 1210 l 5
EndSplineSet
Validated: 1
EndChar

StartChar: uni042B
Encoding: 833 1067 833
Width: 770
Flags: W
HStem: 0 60<175 345> 690 60<175 345> 1190 20G<115 175 575 635>
VStem: 115 60<60 690 750 1210> 345 60<60 690> 575 60<0 1210>
CounterMasks: 1 1c
LayerCount: 2
Fore
SplineSet
575 1210 m 5
 635 1210 l 5
 635 0 l 1
 575 0 l 1
 575 1210 l 5
175 690 m 1
 175 60 l 1
 345 60 l 1
 345 690 l 1
 175 690 l 1
175 1210 m 5
 175 750 l 1
 405 750 l 1
 405 0 l 1
 115 0 l 1
 115 1210 l 5
 175 1210 l 5
EndSplineSet
Validated: 1
EndChar

StartChar: uni042C
Encoding: 834 1068 834
Width: 770
VWidth: 1638
Flags: W
HStem: 0 60<175 575> 690 60<175 575> 1190 20G<115 175>
VStem: 115 60<60 690 750 1210> 575 60<60 690>
LayerCount: 2
Fore
SplineSet
175 690 m 1
 175 60 l 1
 575 60 l 1
 575 690 l 1
 175 690 l 1
175 1210 m 5
 175 750 l 1
 635 750 l 1
 635 0 l 1
 115 0 l 1
 115 1210 l 5
 175 1210 l 5
EndSplineSet
Validated: 1
EndChar

StartChar: uni042D
Encoding: 835 1069 835
Width: 770
Flags: W
HStem: 0 60<175 575> 690 60<346 575> 1150 60<175 575>
VStem: 115 60<60 290 920 1150> 575 60<60 690 750 1150>
LayerCount: 2
Fore
SplineSet
635 1210 m 1
 635 0 l 1
 115 0 l 1
 115 290 l 25
 175 290 l 1
 175 60 l 1
 575 60 l 1
 575 690 l 1
 346 690 l 1
 346 750 l 1
 575 750 l 1
 575 1150 l 1
 175 1150 l 1
 175 920 l 1
 115 920 l 1
 115 1210 l 1
 635 1210 l 1
EndSplineSet
Validated: 1
EndChar

StartChar: uni042E
Encoding: 836 1070 836
Width: 770
Flags: W
HStem: 0 60<405 575> 690 60<175 345> 1150 60<405 575>
VStem: 115 60<0 690 750 1210> 345 60<60 690 750 1150> 575 60<60 1150>
CounterMasks: 1 1c
LayerCount: 2
Fore
SplineSet
405 1150 m 5
 405 60 l 1
 575 60 l 1
 575 1150 l 5
 405 1150 l 5
635 1210 m 5
 635 0 l 1
 345 0 l 1
 345 690 l 1
 175 690 l 1
 175 0 l 1
 115 0 l 1
 115 1210 l 5
 175 1210 l 5
 175 750 l 1
 345 750 l 1
 345 1210 l 5
 635 1210 l 5
EndSplineSet
Validated: 1
EndChar

StartChar: uni042F
Encoding: 837 1071 837
Width: 770
Flags: W
HStem: 0 60<115 345> 690 60<175 345 405 575> 1150 60<175 575>
VStem: 115 60<750 1150> 345 60<60 690> 575 60<0 690 750 1150>
CounterMasks: 1 1c
LayerCount: 2
Fore
SplineSet
175 1150 m 5
 175 750 l 1
 575 750 l 1
 575 1150 l 5
 175 1150 l 5
635 1210 m 5
 635 0 l 1
 575 0 l 1
 575 690 l 1
 405 690 l 1
 405 0 l 1
 115 0 l 1
 115 60 l 1
 345 60 l 1
 345 690 l 1
 115 690 l 1
 115 1210 l 5
 635 1210 l 5
EndSplineSet
Validated: 1
EndChar

StartChar: uni0430
Encoding: 838 1072 838
Width: 770
VWidth: 1638
Flags: W
HStem: 0 60<175 575> 460 60<175 575> 690 60<115 575>
VStem: 115 60<60 460> 575 60<60 460 520 690>
LayerCount: 2
Fore
SplineSet
575 460 m 1
 175 460 l 1
 175 60 l 5
 575 60 l 1
 575 460 l 1
115 750 m 1
 635 750 l 1
 635 0 l 1
 115 0 l 1
 115 520 l 1
 575 520 l 1
 575 690 l 1
 115 690 l 1
 115 750 l 1
EndSplineSet
Validated: 1
EndChar

StartChar: uni0416
Encoding: 839 1046 839
Width: 770
Flags: W
HStem: 0 21G<115 175 345 405 575 635> 460 60<175 345 405 575> 690 60<175 345 405 575> 1190 20G<115 175 345 405 575 635>
VStem: 115 60<0 460 750 1210> 345 60<0 460 520 690 750 1210> 575 60<0 460 750 1210>
CounterMasks: 1 0e
LayerCount: 2
Fore
SplineSet
405 1210 m 5
 405 750 l 1
 575 750 l 1
 575 1210 l 1
 635 1210 l 1
 635 690 l 1
 405 690 l 1
 405 520 l 1
 635 520 l 1
 635 0 l 1
 575 0 l 1
 575 460 l 1
 405 460 l 1
 405 0 l 1
 345 0 l 1
 345 460 l 1
 175 460 l 1
 175 0 l 1
 115 0 l 1
 115 520 l 1
 345 520 l 1
 345 690 l 1
 115 690 l 1
 115 1210 l 1
 175 1210 l 1
 175 750 l 1
 345 750 l 1
 345 1210 l 1
 405 1210 l 5
EndSplineSet
Validated: 1
EndChar

StartChar: uni0431
Encoding: 840 1073 840
Width: 770
Flags: W
HStem: 0 60<175 575> 690 60<175 575> 920 60<175 575> 1190 20G<575 635>
VStem: 115 60<60 690 750 920> 575 60<60 690 980 1210>
LayerCount: 2
Fore
SplineSet
175 690 m 1
 175 60 l 1
 575 60 l 1
 575 690 l 1
 175 690 l 1
575 1210 m 1
 635 1210 l 1
 635 920 l 1
 175 920 l 1
 175 750 l 1
 635 750 l 1
 635 0 l 1
 115 0 l 1
 115 980 l 1
 575 980 l 1
 575 1210 l 1
EndSplineSet
Validated: 1
EndChar

StartChar: uni0432
Encoding: 841 1074 841
Width: 770
Flags: W
HStem: 0 60<175 575> 460 60<175 345 405 575> 690 60<175 345>
VStem: 115 60<60 460 520 690> 345 60<520 690> 575 60<60 460>
CounterMasks: 1 1c
LayerCount: 2
Fore
SplineSet
175 460 m 1
 175 60 l 1
 575 60 l 1
 575 460 l 1
 175 460 l 1
175 690 m 1
 175 520 l 1
 345 520 l 1
 345 690 l 5
 175 690 l 1
115 750 m 1
 405 750 l 1
 405 520 l 1
 635 520 l 1
 635 0 l 1
 115 0 l 1
 115 750 l 1
EndSplineSet
Validated: 1
EndChar

StartChar: uni0433
Encoding: 842 1075 842
Width: 770
Flags: W
HStem: 0 21G<115 175> 690 60<175 635>
VStem: 115 60<0 690>
LayerCount: 2
Fore
SplineSet
115 750 m 1
 635 750 l 5
 635 690 l 1
 175 690 l 1
 175 0 l 1
 115 0 l 1
 115 750 l 1
EndSplineSet
Validated: 1
EndChar

StartChar: uni0434
Encoding: 843 1076 843
Width: 770
Flags: W
HStem: -230 21G<115 175 575 635> 0 60<175 345 405 575> 690 60<405 575>
VStem: 115 60<-230 0> 345 60<60 690> 575 60<-230 0 60 690>
CounterMasks: 1 1c
LayerCount: 2
Fore
SplineSet
405 690 m 5
 405 60 l 1
 575 60 l 1
 575 690 l 1
 405 690 l 5
115 -230 m 1
 115 60 l 1
 345 60 l 1
 345 750 l 1
 635 750 l 1
 635 -230 l 1
 575 -230 l 1
 575 0 l 1
 175 0 l 1
 175 -230 l 1
 115 -230 l 1
EndSplineSet
Validated: 1
EndChar

StartChar: uni0436
Encoding: 844 1078 844
Width: 770
VWidth: 1638
Flags: W
HStem: 0 21G<115 175 345 405 575 635> 230 60<175 345 405 575> 460 60<175 345 405 575> 730 20G<115 175 345 405 575 635> 730 20G<115 175 345 405 575 635>
VStem: 115 60<0 230 520 750> 345 60<0 230 290 460 520 750> 575 60<0 230 520 750>
CounterMasks: 1 07
LayerCount: 2
Fore
SplineSet
635 750 m 1xf7
 635 460 l 1
 405 460 l 1
 405 290 l 1
 635 290 l 1
 635 0 l 1
 575 0 l 1
 575 230 l 1
 405 230 l 1
 405 0 l 5
 345 0 l 1
 345 230 l 1
 175 230 l 1
 175 0 l 25
 115 0 l 1
 115 290 l 1
 345 290 l 1
 345 460 l 1
 115 460 l 1
 115 750 l 1
 175 750 l 1
 175 520 l 1
 345 520 l 1
 345 750 l 1
 405 750 l 1
 405 520 l 1
 575 520 l 1
 575 750 l 1
 635 750 l 1xf7
EndSplineSet
Validated: 1
EndChar

StartChar: uni0401
Encoding: 845 1025 845
Width: 770
Flags: W
HStem: 0 60<175 635> 460 60<175 635> 690 60<175 635> 1190 20G<115 175 575 635>
VStem: 115 60<60 460 520 690 920 1210> 575 60<920 1210>
LayerCount: 2
Fore
SplineSet
635 60 m 29
 635 0 l 25
 115 0 l 25
 115 750 l 25
 635 750 l 25
 635 690 l 25
 175 690 l 25
 175 520 l 25
 635 520 l 25
 635 460 l 25
 175 460 l 25
 175 60 l 25
 635 60 l 29
635 1210 m 25
 635 920 l 25
 575 920 l 25
 575 1210 l 25
 635 1210 l 25
175 1210 m 25
 175 920 l 25
 115 920 l 25
 115 1210 l 25
 175 1210 l 25
EndSplineSet
Validated: 1
EndChar

StartChar: uni0435
Encoding: 859 1077 859
Width: 770
VWidth: 1638
Flags: W
HStem: 0 60<175 635> 460 60<175 575> 690 60<175 575>
VStem: 115 60<60 460 520 690> 575 60<520 690>
LayerCount: 2
Fore
SplineSet
175 690 m 1
 175 520 l 1
 575 520 l 1
 575 690 l 1
 175 690 l 1
115 750 m 5
 635 750 l 1
 635 460 l 1
 175 460 l 1
 175 60 l 1
 635 60 l 1
 635 0 l 1
 115 0 l 1
 115 750 l 5
EndSplineSet
Validated: 1
EndChar

StartChar: uni0437
Encoding: 860 1079 860
Width: 770
Flags: W
HStem: 0 60<115 575> 460 60<115 345 405 575> 690 60<115 345>
VStem: 345 60<520 690> 575 60<60 460>
LayerCount: 2
Fore
SplineSet
115 750 m 1
 405 750 l 1
 405 520 l 1
 635 520 l 1
 635 0 l 1
 115 0 l 1
 115 60 l 1
 575 60 l 1
 575 460 l 1
 115 460 l 1
 115 520 l 1
 345 520 l 5
 345 690 l 1
 115 690 l 1
 115 750 l 1
EndSplineSet
Validated: 1
EndChar

StartChar: uni0438
Encoding: 861 1080 861
Width: 770
Flags: W
HStem: 0 21G<115 175 575 635> 230 60<175 345> 460 60<405 575> 730 20G<115 175 575 635> 730 20G<115 175 575 635>
VStem: 115 60<0 230 290 750> 345 60<290 460> 575 60<0 460 520 750>
CounterMasks: 1 07
LayerCount: 2
Fore
SplineSet
635 750 m 1xf7
 635 0 l 1
 575 0 l 1
 575 460 l 1
 405 460 l 1
 405 230 l 1
 175 230 l 1
 175 0 l 25
 115 0 l 1
 115 750 l 25
 175 750 l 1
 175 290 l 1
 345 290 l 1
 345 520 l 5
 575 520 l 1
 575 750 l 1
 635 750 l 1xf7
EndSplineSet
Validated: 1
EndChar

StartChar: uni0439
Encoding: 862 1081 862
Width: 770
Flags: W
HStem: 0 60<175 345> 460 60<405 575> 690 60<175 575>
VStem: 115 60<60 520 750 980> 345 60<60 460> 575 60<0 460 750 980>
CounterMasks: 1 1c
LayerCount: 2
Fore
SplineSet
115 980 m 5
 175 980 l 5
 175 750 l 1
 575 750 l 1
 575 980 l 5
 635 980 l 5
 635 690 l 1
 115 690 l 1
 115 980 l 5
635 520 m 1
 635 0 l 1
 575 0 l 1
 575 460 l 1
 405 460 l 1
 405 0 l 1
 115 0 l 1
 115 520 l 25
 175 520 l 1
 175 60 l 1
 345 60 l 1
 345 520 l 1
 635 520 l 1
EndSplineSet
Validated: 1
EndChar

StartChar: uni043A
Encoding: 863 1082 863
Width: 770
VWidth: 1638
Flags: W
HStem: 0 60<405 635> 460 60<175 345> 690 60<405 635>
VStem: 115 60<0 460 520 750> 345 60<60 460 520 690>
LayerCount: 2
Fore
SplineSet
175 750 m 5
 175 520 l 1
 345 520 l 1
 345 750 l 1
 635 750 l 1
 635 690 l 1
 405 690 l 1
 405 60 l 1
 635 60 l 1
 635 0 l 1
 345 0 l 1
 345 460 l 1
 175 460 l 1
 175 0 l 1
 115 0 l 1
 115 750 l 5
 175 750 l 5
EndSplineSet
Validated: 1
EndChar

StartChar: uni043B
Encoding: 864 1083 864
Width: 770
Flags: W
HStem: 0 60<115 345> 690 60<405 575>
VStem: 345 60<60 690> 575 60<0 690>
LayerCount: 2
Fore
SplineSet
635 750 m 1
 635 0 l 1
 575 0 l 1
 575 690 l 1
 405 690 l 1
 405 0 l 5
 115 0 l 1
 115 60 l 1
 345 60 l 1
 345 750 l 1
 635 750 l 1
EndSplineSet
Validated: 1
EndChar

StartChar: uni043C
Encoding: 865 1084 865
Width: 770
VWidth: 1638
Flags: W
HStem: 0 21G<115 175 575 635> 460 60<175 345 405 575> 730 20G<115 175 575 635> 730 20G<115 175 575 635>
VStem: 115 60<0 460 520 750> 345 60<230 460> 575 60<0 460 520 750>
CounterMasks: 1 0e
LayerCount: 2
Fore
SplineSet
115 750 m 1xee
 175 750 l 1
 175 520 l 1
 575 520 l 1
 575 750 l 1
 635 750 l 1
 635 0 l 1
 575 0 l 1
 575 460 l 1
 405 460 l 1
 405 230 l 5
 345 230 l 1
 345 460 l 1
 175 460 l 1
 175 0 l 1
 115 0 l 1
 115 750 l 1xee
EndSplineSet
Validated: 1
EndChar

StartChar: uni043D
Encoding: 866 1085 866
Width: 770
Flags: W
HStem: 0 21G<115 175 575 635> 460 60<175 575> 730 20G<115 175 575 635> 730 20G<115 175 575 635>
VStem: 115 60<0 460 520 750> 575 60<0 460 520 750>
LayerCount: 2
Fore
SplineSet
635 750 m 1xec
 635 0 l 5
 575 0 l 1
 575 460 l 1
 175 460 l 1
 175 0 l 1
 115 0 l 1
 115 750 l 25
 175 750 l 1
 175 520 l 1
 575 520 l 1
 575 750 l 1
 635 750 l 1xec
EndSplineSet
Validated: 1
EndChar

StartChar: uni043E
Encoding: 867 1086 867
Width: 770
VWidth: 1638
Flags: W
HStem: 0 60<175 575> 690 60<175 575>
VStem: 115 60<60 690> 575 60<60 690>
LayerCount: 2
Fore
SplineSet
175 690 m 1
 175 60 l 1
 575 60 l 1
 575 690 l 1
 175 690 l 1
115 750 m 5
 635 750 l 1
 635 0 l 1
 115 0 l 1
 115 750 l 5
EndSplineSet
Validated: 1
EndChar

StartChar: uni043F
Encoding: 868 1087 868
Width: 770
Flags: W
HStem: 0 21G<115 175 575 635> 690 60<175 575>
VStem: 115 60<0 690> 575 60<0 690>
LayerCount: 2
Fore
SplineSet
115 750 m 1
 635 750 l 1
 635 0 l 1
 575 0 l 1
 575 690 l 1
 175 690 l 5
 175 0 l 1
 115 0 l 1
 115 750 l 1
EndSplineSet
Validated: 1
EndChar

StartChar: uni0440
Encoding: 869 1088 869
Width: 770
VWidth: 1638
Flags: W
HStem: -230 21G<115 175> 230 60<175 575> 690 60<175 575>
VStem: 115 60<-230 230 290 690> 575 60<290 690>
LayerCount: 2
Fore
SplineSet
175 690 m 1
 175 290 l 1
 575 290 l 1
 575 690 l 1
 175 690 l 1
115 750 m 1
 635 750 l 1
 635 230 l 1
 175 230 l 1
 175 -230 l 25
 115 -230 l 1
 115 750 l 1
EndSplineSet
Validated: 1
EndChar

StartChar: uni0441
Encoding: 870 1089 870
Width: 770
VWidth: 1638
Flags: W
HStem: 0 60<175 635> 690 60<175 635>
VStem: 115 60<60 690>
LayerCount: 2
Fore
SplineSet
635 750 m 1
 635 690 l 1
 175 690 l 1
 175 60 l 1
 635 60 l 1
 635 0 l 5
 115 0 l 1
 115 750 l 1
 635 750 l 1
EndSplineSet
Validated: 1
EndChar

StartChar: uni0442
Encoding: 871 1090 871
Width: 770
VWidth: 1638
Flags: W
HStem: 0 21G<345 405> 690 60<115 345 405 635>
VStem: 345 60<0 690>
LayerCount: 2
Fore
SplineSet
635 750 m 1
 635 690 l 1
 405 690 l 5
 405 0 l 1
 345 0 l 1
 345 690 l 1
 115 690 l 1
 115 750 l 1
 635 750 l 1
EndSplineSet
Validated: 1
EndChar

StartChar: uni0443
Encoding: 872 1091 872
Width: 770
VWidth: 1638
Flags: W
HStem: -230 60<115 575> 230 60<175 575> 730 20G<115 175 575 635> 730 20G<115 175 575 635>
VStem: 115 60<290 750> 575 60<-170 230 290 750>
LayerCount: 2
Fore
SplineSet
635 750 m 1xec
 635 -230 l 1
 115 -230 l 5
 115 -170 l 1
 575 -170 l 1
 575 230 l 1
 115 230 l 1
 115 750 l 1
 175 750 l 1
 175 290 l 1
 575 290 l 1
 575 750 l 1
 635 750 l 1xec
EndSplineSet
Validated: 1
EndChar

StartChar: uni0444
Encoding: 873 1092 873
Width: 770
Flags: W
HStem: -230 21G<345 405> 230 60<175 345 405 575> 690 60<175 345 405 575> 1190 20G<345 405>
VStem: 115 60<290 690> 345 60<-230 230 290 690 750 1210> 575 60<290 690>
CounterMasks: 1 0e
LayerCount: 2
Fore
SplineSet
405 690 m 1
 405 290 l 1
 575 290 l 1
 575 690 l 1
 405 690 l 1
175 690 m 1
 175 290 l 1
 345 290 l 1
 345 690 l 1
 175 690 l 1
405 1210 m 1
 405 750 l 1
 635 750 l 1
 635 230 l 1
 405 230 l 1
 405 -230 l 1
 345 -230 l 1
 345 230 l 1
 115 230 l 1
 115 750 l 1
 345 750 l 1
 345 1210 l 1
 405 1210 l 1
EndSplineSet
Validated: 1
EndChar

StartChar: uni0445
Encoding: 874 1093 874
Width: 770
VWidth: 1638
Flags: W
HStem: 0 21G<115 175 575 635> 230 60<175 345 405 575> 460 60<175 345 405 575> 730 20G<115 175 575 635> 730 20G<115 175 575 635>
VStem: 115 60<0 230 520 750> 345 60<290 460> 575 60<0 230 520 750>
CounterMasks: 1 07
LayerCount: 2
Fore
SplineSet
635 750 m 1xf7
 635 460 l 1
 405 460 l 1
 405 290 l 1
 635 290 l 1
 635 0 l 1
 575 0 l 1
 575 230 l 1
 175 230 l 1
 175 0 l 25
 115 0 l 1
 115 290 l 1
 345 290 l 1
 345 460 l 5
 115 460 l 1
 115 750 l 1
 175 750 l 1
 175 520 l 1
 575 520 l 1
 575 750 l 1
 635 750 l 1xf7
EndSplineSet
Validated: 1
EndChar

StartChar: uni0446
Encoding: 875 1094 875
Width: 770
Flags: W
HStem: -230 21G<575 635> 0 60<175 575> 730 20G<115 175 575 635> 730 20G<115 175 575 635>
VStem: 115 60<60 750> 575 60<-230 0 60 750>
LayerCount: 2
Fore
SplineSet
635 750 m 1xec
 635 -230 l 1
 575 -230 l 5
 575 0 l 1
 115 0 l 1
 115 750 l 25
 175 750 l 1
 175 60 l 1
 575 60 l 1
 575 750 l 1
 635 750 l 1xec
EndSplineSet
Validated: 1
EndChar

StartChar: uni0447
Encoding: 876 1095 876
Width: 770
Flags: W
HStem: 0 21G<575 635> 460 60<175 575> 730 20G<115 175 575 635> 730 20G<115 175 575 635>
VStem: 115 60<520 750> 575 60<0 460 520 750>
LayerCount: 2
Fore
SplineSet
635 750 m 1xec
 635 0 l 5
 575 0 l 1
 575 460 l 1
 115 460 l 1
 115 750 l 1
 175 750 l 1
 175 520 l 1
 575 520 l 1
 575 750 l 1
 635 750 l 1xec
EndSplineSet
Validated: 1
EndChar

StartChar: uni0448
Encoding: 877 1096 877
Width: 770
Flags: W
HStem: 0 60<175 345 405 575> 730 20G<115 175 345 405 575 635> 730 20G<115 175 345 405 575 635>
VStem: 115 60<60 750> 345 60<60 750> 575 60<60 750>
CounterMasks: 1 1c
LayerCount: 2
Fore
SplineSet
635 750 m 5xdc
 635 0 l 1
 115 0 l 1
 115 750 l 29
 175 750 l 5
 175 60 l 1
 345 60 l 1
 345 750 l 5
 405 750 l 5
 405 60 l 1
 575 60 l 1
 575 750 l 5
 635 750 l 5xdc
EndSplineSet
Validated: 1
EndChar

StartChar: uni0449
Encoding: 878 1097 878
Width: 772
Flags: W
HStem: -230 21G<575 635> 0 60<175 345 405 575> 730 20G<115 175 345 405 575 635> 730 20G<115 175 345 405 575 635>
VStem: 115 60<60 750> 345 60<60 750> 575 60<-230 0 60 750>
CounterMasks: 1 0e
LayerCount: 2
Fore
SplineSet
635 750 m 5xee
 635 -230 l 1
 575 -230 l 1
 575 0 l 1
 115 0 l 1
 115 750 l 5
 175 750 l 5
 175 60 l 1
 345 60 l 1
 345 750 l 5
 405 750 l 5
 405 60 l 1
 575 60 l 1
 575 750 l 5
 635 750 l 5xee
EndSplineSet
Validated: 1
EndChar

StartChar: uni044A
Encoding: 879 1098 879
Width: 770
Flags: W
HStem: 0 60<405 575> 460 60<405 575> 690 60<115 345>
VStem: 345 60<60 460 520 690> 575 60<60 460>
LayerCount: 2
Fore
SplineSet
405 460 m 1
 405 60 l 1
 575 60 l 1
 575 460 l 1
 405 460 l 1
115 750 m 1
 405 750 l 1
 405 520 l 1
 635 520 l 1
 635 0 l 1
 345 0 l 1
 345 690 l 5
 115 690 l 1
 115 750 l 1
EndSplineSet
Validated: 1
EndChar

StartChar: uni044B
Encoding: 880 1099 880
Width: 770
Flags: W
HStem: 0 60<175 345> 460 60<175 345> 730 20G<115 175 575 635> 730 20G<115 175 575 635>
VStem: 115 60<60 460 520 750> 345 60<60 460> 575 60<0 750>
CounterMasks: 1 0e
LayerCount: 2
Fore
SplineSet
575 750 m 1xee
 635 750 l 1
 635 0 l 1
 575 0 l 1
 575 750 l 1xee
175 460 m 1
 175 60 l 1
 345 60 l 1
 345 460 l 1
 175 460 l 1
175 750 m 1
 175 520 l 1
 405 520 l 1
 405 0 l 1
 115 0 l 1
 115 750 l 25
 175 750 l 1
EndSplineSet
Validated: 1
EndChar

StartChar: uni044C
Encoding: 881 1100 881
Width: 770
Flags: W
HStem: 0 60<175 575> 460 60<175 575> 730 20G<115 175> 730 20G<115 175>
VStem: 115 60<60 460 520 750> 575 60<60 460>
LayerCount: 2
Fore
SplineSet
175 460 m 1xcc
 175 60 l 1
 575 60 l 1
 575 460 l 1
 175 460 l 1xcc
175 750 m 1xec
 175 520 l 5
 635 520 l 1
 635 0 l 1
 115 0 l 1
 115 750 l 25
 175 750 l 1xec
EndSplineSet
Validated: 1
EndChar

StartChar: uni044D
Encoding: 882 1101 882
Width: 770
Flags: W
HStem: 0 60<175 575> 460 60<345 575> 690 60<175 575>
VStem: 115 60<60 290 460 690> 575 60<60 460 520 690>
LayerCount: 2
Fore
SplineSet
635 750 m 1
 635 0 l 1
 115 0 l 1
 115 290 l 25
 175 290 l 1
 175 60 l 1
 575 60 l 1
 575 460 l 1
 345 460 l 1
 345 520 l 1
 575 520 l 1
 575 690 l 1
 175 690 l 1
 175 460 l 1
 115 460 l 1
 115 750 l 1
 635 750 l 1
EndSplineSet
Validated: 1
EndChar

StartChar: uni044E
Encoding: 883 1102 883
Width: 770
Flags: W
HStem: 0 60<405 575> 460 60<175 345> 690 60<405 575>
VStem: 115 60<0 460 520 750> 345 60<60 460 520 690> 575 60<60 690>
CounterMasks: 1 1c
LayerCount: 2
Fore
SplineSet
405 690 m 5
 405 60 l 1
 575 60 l 1
 575 690 l 1
 405 690 l 5
635 750 m 1
 635 0 l 1
 345 0 l 1
 345 460 l 1
 175 460 l 1
 175 0 l 1
 115 0 l 1
 115 750 l 1
 175 750 l 1
 175 520 l 1
 345 520 l 1
 346 750 l 1
 635 750 l 1
EndSplineSet
Validated: 1
EndChar

StartChar: uni044F
Encoding: 884 1103 884
Width: 767
Flags: W
HStem: 0 60<115 345> 460 60<175 345 405 575> 690 60<175 575>
VStem: 115 60<520 690> 345 60<60 460> 575 60<0 460 520 690>
CounterMasks: 1 1c
LayerCount: 2
Fore
SplineSet
175 690 m 1
 175 520 l 1
 575 520 l 1
 575 690 l 1
 175 690 l 1
635 750 m 1
 635 0 l 1
 575 0 l 1
 575 460 l 1
 405 460 l 1
 405 0 l 5
 115 0 l 1
 115 60 l 1
 345 60 l 1
 345 460 l 1
 115 460 l 1
 115 750 l 1
 635 750 l 1
EndSplineSet
Validated: 1
EndChar

StartChar: uni0451
Encoding: 886 1105 886
Width: 770
VWidth: 1638
Flags: W
HStem: 0 60<175 635> 230 60<175 575> 460 60<175 575>
VStem: 115 60<60 230 290 460 690 980> 575 60<290 460 690 980>
CounterMasks: 1 e0
LayerCount: 2
Fore
SplineSet
575 980 m 29
 635 980 l 25
 635 690 l 25
 575 690 l 25
 575 980 l 29
115 980 m 25
 175 980 l 25
 175 690 l 25
 115 690 l 25
 115 980 l 25
175 460 m 1
 175 290 l 1
 575 290 l 1
 575 460 l 1
 175 460 l 1
115 520 m 1
 635 520 l 1
 635 230 l 1
 175 230 l 1
 175 60 l 1
 635 60 l 1
 635 0 l 1
 115 0 l 1
 115 520 l 1
EndSplineSet
Validated: 1
EndChar

StartChar: uni3041
Encoding: 900 12353 900
Width: 1380
Flags: W
HStem: 0 60<175 345 405 575> 230 60<175 345 405 575 635 805> 460 60<115 345 405 575 635 865> 730 20G<345 405> 730 20G<345 405>
VStem: 115 60<60 230> 345 60<60 230 290 460 520 750> 575 60<60 230 290 460> 805 60<0 230>
LayerCount: 2
Fore
SplineSet
405 460 m 1xe780
 405 290 l 1
 575 290 l 1
 575 460 l 1
 405 460 l 1xe780
405 230 m 1
 405 60 l 1
 575 60 l 1
 575 230 l 1
 405 230 l 1
175 230 m 1
 175 60 l 1
 345 60 l 1
 345 230 l 1
 175 230 l 1
405 750 m 1xf780
 405 520 l 1
 865 520 l 1
 865 460 l 1
 635 460 l 1
 635 290 l 1
 865 290 l 1
 865 0 l 5
 805 0 l 1
 805 230 l 1
 635 230 l 1
 635 0 l 25
 115 0 l 25
 115 290 l 1
 345 290 l 1
 345 460 l 1
 115 460 l 1
 115 520 l 1
 345 520 l 1
 345 750 l 1
 405 750 l 1xf780
EndSplineSet
Validated: 1
EndChar

StartChar: uni3042
Encoding: 901 12354 901
Width: 1380
Flags: W
HStem: 0 60<175 575 635 1035> 460 60<175 575 635 1035 1095 1265> 730 20G<1035 1095> 730 20G<1035 1095> 920 60<115 575 635 1325> 1190 20G<575 635>
VStem: 115 60<60 460> 575 60<60 460 520 920 980 1210> 1035 60<60 460 520 750> 1265 60<0 460>
LayerCount: 2
Fore
SplineSet
635 460 m 29xcfc0
 635 60 l 25
 1035 60 l 25
 1035 460 l 25
 635 460 l 29xcfc0
175 460 m 25
 175 60 l 25
 575 60 l 25
 575 460 l 25
 175 460 l 25
635 1210 m 25
 635 980 l 25
 1325 980 l 25
 1325 920 l 25
 635 920 l 25
 635 520 l 25
 1035 520 l 25
 1035 750 l 25
 1095 750 l 25xefc0
 1095 520 l 25
 1325 520 l 25
 1325 0 l 25
 1265 0 l 25
 1265 460 l 25
 1095 460 l 25
 1095 0 l 25
 115 0 l 25
 115 520 l 25
 575 520 l 25
 575 920 l 25
 115 920 l 25
 115 980 l 25
 575 980 l 25
 575 1210 l 25
 635 1210 l 25
EndSplineSet
Validated: 1
EndChar

StartChar: uni3044
Encoding: 902 12356 902
Width: 1380
Flags: W
HStem: 0 60<175 405> 920 60<1035 1265> 1190 20G<115 175>
VStem: 115 60<60 1210> 1265 60<0 920>
LayerCount: 2
Fore
SplineSet
1035 980 m 29
 1325 980 l 25
 1325 0 l 25
 1265 0 l 25
 1265 920 l 25
 1035 920 l 25
 1035 980 l 29
175 1210 m 25
 175 60 l 25
 405 60 l 25
 405 0 l 25
 115 0 l 25
 115 1210 l 25
 175 1210 l 25
EndSplineSet
Validated: 1
EndChar

StartChar: uni304C
Encoding: 903 12364 903
Width: 1380
Flags: W
HStem: 0 60<575 805> 920 60<115 345 405 805> 1150 60<805 1035>
VStem: 345 60<0 920 980 1210> 805 60<60 920> 1035 60<460 1150> 1265 60<920 1210>
LayerCount: 2
Fore
SplineSet
405 1210 m 29
 405 980 l 25
 865 980 l 25
 865 0 l 25
 575 0 l 25
 575 60 l 25
 805 60 l 25
 805 920 l 25
 405 920 l 25
 405 0 l 25
 345 0 l 25
 345 920 l 25
 115 920 l 25
 115 980 l 25
 345 980 l 25
 345 1210 l 25
 405 1210 l 29
1325 1210 m 25
 1325 920 l 25
 1265 920 l 25
 1265 1210 l 25
 1325 1210 l 25
1095 1210 m 25
 1095 460 l 25
 1035 460 l 25
 1035 1150 l 25
 805 1150 l 25
 805 1210 l 25
 1095 1210 l 25
EndSplineSet
Validated: 1
EndChar

StartChar: uni3059
Encoding: 904 12377 904
Width: 1380
Flags: W
HStem: 0 21G<805 865> 230 60<635 805> 690 60<635 805> 920 60<115 805 865 1325> 1190 20G<805 865>
VStem: 575 60<290 690> 805 60<0 230 290 690 750 920 980 1210>
LayerCount: 2
Fore
SplineSet
635 690 m 29
 635 290 l 25
 805 290 l 25
 805 690 l 25
 635 690 l 29
865 1210 m 25
 865 980 l 25
 1325 980 l 25
 1325 920 l 25
 865 920 l 25
 865 0 l 25
 805 0 l 25
 805 230 l 25
 575 230 l 25
 575 750 l 25
 805 750 l 25
 805 920 l 25
 115 920 l 25
 115 980 l 25
 805 980 l 25
 805 1210 l 25
 865 1210 l 25
EndSplineSet
Validated: 1
EndChar

StartChar: uni3043
Encoding: 905 12355 905
Width: 1380
Flags: W
HStem: 0 60<405 635> 460 60<805 1035> 730 20G<345 405> 730 20G<345 405>
VStem: 345 60<60 750> 1035 60<0 460>
LayerCount: 2
Fore
SplineSet
805 520 m 29xcc
 1095 520 l 25
 1095 0 l 25
 1035 0 l 25
 1035 460 l 25
 805 460 l 25
 805 520 l 29xcc
345 750 m 25xec
 405 750 l 25
 405 60 l 1
 635 60 l 25
 635 0 l 25
 345 0 l 1
 345 750 l 25xec
EndSplineSet
Validated: 1
EndChar

StartChar: uni3045
Encoding: 906 12357 906
Width: 1380
Flags: W
HStem: 0 60<575 1035> 460 60<345 1035> 690 60<575 865>
VStem: 1035 60<60 460>
LayerCount: 2
Fore
SplineSet
345 520 m 29
 1095 520 l 25
 1095 0 l 25
 575 0 l 25
 575 60 l 25
 1035 60 l 25
 1035 460 l 25
 345 460 l 25
 345 520 l 29
575 750 m 25
 865 750 l 25
 865 690 l 25
 575 690 l 25
 575 750 l 25
EndSplineSet
Validated: 1
EndChar

StartChar: uni3047
Encoding: 907 12359 907
Width: 1380
Flags: W
HStem: 0 60<345 575 865 1095> 230 60<635 805 865 1035> 460 60<345 1035> 690 60<575 865>
VStem: 575 60<60 230> 805 60<60 230> 1035 60<290 460>
CounterMasks: 1 0e
LayerCount: 2
Fore
SplineSet
345 520 m 29
 1095 520 l 25
 1095 230 l 25
 865 230 l 25
 865 60 l 25
 1095 60 l 25
 1095 0 l 25
 805 0 l 25
 805 230 l 25
 635 230 l 25
 635 0 l 25
 345 0 l 25
 345 60 l 25
 575 60 l 25
 575 290 l 25
 1035 290 l 25
 1035 460 l 25
 345 460 l 25
 345 520 l 29
575 750 m 25
 865 750 l 25
 865 690 l 25
 575 690 l 25
 575 750 l 25
EndSplineSet
Validated: 1
EndChar

StartChar: uni3049
Encoding: 908 12361 908
Width: 1380
Flags: W
HStem: 0 60<405 575> 230 60<405 575 635 1035> 460 60<345 575 635 865> 730 20G<575 635 1035 1095> 730 20G<575 635 1035 1095>
VStem: 345 60<60 230> 575 60<60 230 290 460 520 750> 1035 60<0 230 460 750>
LayerCount: 2
Fore
SplineSet
1035 750 m 29xf7
 1095 750 l 25
 1095 460 l 25
 1035 460 l 25
 1035 750 l 29xf7
405 230 m 25
 405 60 l 25
 575 60 l 25
 575 230 l 25
 405 230 l 25
635 750 m 25
 635 520 l 25
 865 520 l 25
 865 460 l 25
 635 460 l 25
 635 290 l 25
 1095 290 l 25
 1095 0 l 25
 1035 0 l 25
 1035 230 l 25
 635 230 l 25
 635 0 l 25
 345 0 l 25
 345 290 l 25
 575 290 l 25
 575 460 l 25
 345 460 l 25
 345 520 l 25
 575 520 l 25
 575 750 l 25
 635 750 l 25
EndSplineSet
Validated: 1
EndChar

StartChar: uni3046
Encoding: 909 12358 909
Width: 1380
Flags: W
HStem: 0 60<805 1035> 690 60<345 1035> 1150 60<575 805>
VStem: 805 60<920 1150> 1035 60<60 690>
LayerCount: 2
Fore
SplineSet
345 750 m 29
 1095 750 l 25
 1095 0 l 25
 805 0 l 25
 805 60 l 25
 1035 60 l 25
 1035 690 l 25
 345 690 l 25
 345 750 l 29
575 1210 m 25
 865 1210 l 25
 865 920 l 25
 805 920 l 25
 805 1150 l 25
 575 1150 l 25
 575 1210 l 25
EndSplineSet
Validated: 1
EndChar

StartChar: uni3048
Encoding: 910 12360 910
Width: 1380
Flags: W
HStem: 0 60<115 345 865 1325> 230 60<405 575> 460 60<635 1265> 690 60<115 1265> 1150 60<345 1035>
VStem: 345 60<60 230> 575 60<290 460> 805 60<60 290> 1035 60<920 1150> 1265 60<520 690>
LayerCount: 2
Fore
SplineSet
805 290 m 29
 865 290 l 25
 865 60 l 25
 1325 60 l 25
 1325 0 l 25
 805 0 l 25
 805 290 l 29
115 750 m 25
 1325 750 l 25
 1325 460 l 25
 635 460 l 25
 635 230 l 25
 405 230 l 25
 405 0 l 25
 115 0 l 25
 115 60 l 25
 345 60 l 25
 345 290 l 25
 575 290 l 25
 575 520 l 25
 1265 520 l 25
 1265 690 l 25
 115 690 l 25
 115 750 l 25
345 1210 m 25
 1095 1210 l 25
 1095 920 l 25
 1035 920 l 25
 1035 1150 l 25
 345 1150 l 25
 345 1210 l 25
EndSplineSet
Validated: 1
EndChar

StartChar: uni304A
Encoding: 911 12362 911
Width: 1380
Flags: W
HStem: 0 60<175 575> 460 60<175 575 635 1035> 920 60<115 575 635 1095> 1150 60<1035 1265>
VStem: 115 60<60 460> 575 60<60 460 520 920 980 1210> 1035 60<0 460> 1265 60<690 1150>
LayerCount: 2
Fore
SplineSet
1035 1210 m 29
 1325 1210 l 25
 1325 690 l 25
 1265 690 l 25
 1265 1150 l 25
 1035 1150 l 25
 1035 1210 l 29
175 460 m 25
 175 60 l 25
 575 60 l 25
 575 460 l 25
 175 460 l 25
635 1210 m 25
 635 980 l 25
 1095 980 l 25
 1095 920 l 25
 635 920 l 25
 635 520 l 25
 1095 520 l 25
 1095 0 l 25
 1035 0 l 25
 1035 460 l 25
 635 460 l 25
 635 0 l 25
 115 0 l 25
 115 520 l 25
 575 520 l 25
 575 920 l 25
 115 920 l 25
 115 980 l 25
 575 980 l 25
 575 1210 l 25
 635 1210 l 25
EndSplineSet
Validated: 1
EndChar

StartChar: uni304B
Encoding: 912 12363 912
Width: 1380
Flags: W
HStem: 0 60<575 805> 920 60<115 345 405 805> 1150 60<1035 1265>
VStem: 345 60<0 920 980 1210> 805 60<60 920> 1265 60<460 1150>
CounterMasks: 1 1c
LayerCount: 2
Fore
SplineSet
405 1210 m 25
 405 980 l 25
 865 980 l 25
 865 0 l 25
 575 0 l 25
 575 60 l 25
 805 60 l 25
 805 920 l 25
 405 920 l 25
 405 0 l 25
 345 0 l 25
 345 920 l 25
 115 920 l 25
 115 980 l 25
 345 980 l 25
 345 1210 l 25
 405 1210 l 25
1325 1210 m 29
 1325 460 l 29
 1265 460 l 29
 1265 1150 l 29
 1035 1150 l 29
 1035 1210 l 29
 1325 1210 l 29
EndSplineSet
Validated: 1
EndChar

StartChar: uni304D
Encoding: 913 12365 913
Width: 1380
Flags: W
HStem: 0 60<405 865> 460 60<575 805> 690 60<115 805 865 1325> 920 60<115 805 865 1325> 1190 20G<805 865>
VStem: 345 60<60 520> 805 60<520 690 750 920 980 1210>
LayerCount: 2
Fore
SplineSet
405 520 m 29
 405 60 l 25
 865 60 l 25
 865 0 l 25
 345 0 l 25
 345 520 l 25
 405 520 l 29
865 1210 m 25
 865 980 l 25
 1325 980 l 25
 1325 920 l 25
 865 920 l 25
 865 750 l 25
 1325 750 l 25
 1325 690 l 25
 865 690 l 25
 865 460 l 25
 575 460 l 25
 575 520 l 25
 805 520 l 25
 805 690 l 25
 115 690 l 25
 115 750 l 25
 805 750 l 25
 805 920 l 25
 115 920 l 25
 115 980 l 25
 805 980 l 25
 805 1210 l 25
 865 1210 l 25
EndSplineSet
Validated: 1
EndChar

StartChar: uni304E
Encoding: 914 12366 914
Width: 1380
Flags: W
HStem: 0 60<405 865> 460 60<575 805> 690 60<115 805 865 1325> 920 60<115 805 865 1035> 1190 20G<805 865 1035 1095 1265 1325>
VStem: 345 60<60 520> 805 60<520 690 750 920 980 1210> 1035 60<980 1208> 1265 60<920 1210>
LayerCount: 2
Fore
SplineSet
1265 1210 m 25
 1325 1210 l 25
 1325 920 l 25
 1265 920 l 25
 1265 1210 l 25
405 520 m 25
 405 60 l 25
 865 60 l 25
 865 0 l 25
 345 0 l 25
 345 520 l 25
 405 520 l 25
865 1210 m 25
 865 980 l 1
 1035 980 l 5
 1035 1210 l 1
 1095 1208 l 1
 1095 920 l 1
 865 920 l 1
 865 750 l 25
 1325 750 l 25
 1325 690 l 25
 865 690 l 25
 865 460 l 25
 575 460 l 25
 575 520 l 25
 805 520 l 25
 805 690 l 25
 115 690 l 25
 115 750 l 25
 805 750 l 25
 805 920 l 25
 115 920 l 25
 115 980 l 25
 805 980 l 25
 805 1210 l 25
 865 1210 l 25
EndSplineSet
Validated: 1
EndChar

StartChar: uni304F
Encoding: 915 12367 915
Width: 1380
Flags: W
HStem: 0 60<865 1095> 230 60<635 805> 690 60<345 575> 920 60<635 805> 1150 60<865 1095>
VStem: 575 60<290 690 750 920> 805 60<60 230 980 1150>
LayerCount: 2
Fore
SplineSet
1095 1210 m 29
 1095 1150 l 25
 865 1150 l 25
 865 920 l 25
 635 920 l 25
 635 290 l 25
 865 290 l 25
 865 60 l 25
 1095 60 l 25
 1095 0 l 25
 805 0 l 25
 805 230 l 25
 575 230 l 25
 575 690 l 25
 345 690 l 25
 345 750 l 25
 575 750 l 25
 575 980 l 25
 805 980 l 25
 805 1210 l 25
 1095 1210 l 29
EndSplineSet
Validated: 1
EndChar

StartChar: uni3050
Encoding: 916 12368 916
Width: 1380
Flags: W
HStem: 0 60<865 1095> 230 60<635 805> 690 60<345 575> 920 60<635 805> 1150 60<865 1095>
VStem: 575 60<290 690 750 920> 805 60<60 230 980 1150> 1035 60<690 980> 1265 60<690 980>
LayerCount: 2
Fore
SplineSet
1265 980 m 29
 1325 980 l 25
 1325 690 l 25
 1265 690 l 25
 1265 980 l 29
1035 980 m 25
 1095 980 l 25
 1095 690 l 25
 1035 690 l 25
 1035 980 l 25
1095 1210 m 25
 1095 1150 l 25
 865 1150 l 25
 865 920 l 25
 635 920 l 25
 635 290 l 25
 865 290 l 25
 865 60 l 25
 1095 60 l 25
 1095 0 l 25
 805 0 l 25
 805 230 l 25
 575 230 l 25
 575 690 l 25
 345 690 l 25
 345 750 l 25
 575 750 l 25
 575 980 l 25
 805 980 l 25
 805 1210 l 25
 1095 1210 l 25
EndSplineSet
Validated: 1
EndChar

StartChar: uni3051
Encoding: 917 12369 917
Width: 1380
Flags: W
HStem: 0 60<575 805> 920 60<345 805 865 1325> 1190 20G<115 175 805 865>
VStem: 115 60<0 1210> 805 60<60 920 980 1210>
LayerCount: 2
Fore
SplineSet
345 980 m 29
 805 980 l 25
 805 1210 l 25
 865 1210 l 25
 865 980 l 25
 1325 980 l 25
 1325 920 l 25
 865 920 l 25
 865 0 l 25
 575 0 l 25
 575 60 l 25
 805 60 l 25
 805 920 l 25
 345 920 l 25
 345 980 l 29
175 1210 m 25
 175 0 l 25
 115 0 l 25
 115 1210 l 25
 175 1210 l 25
EndSplineSet
Validated: 1
EndChar

StartChar: uni3052
Encoding: 918 12370 918
Width: 1380
Flags: W
HStem: 0 60<575 805> 920 60<345 805 865 1035> 1190 20G<115 175 805 865 1035 1095 1265 1325>
VStem: 115 60<0 1210> 805 60<60 920 980 1210> 1035 60<980 1210> 1265 60<920 1210>
LayerCount: 2
Fore
SplineSet
1265 1210 m 29
 1325 1210 l 25
 1325 920 l 25
 1265 920 l 25
 1265 1210 l 29
345 980 m 25
 805 980 l 25
 805 1210 l 25
 865 1210 l 25
 865 980 l 1
 1035 980 l 1
 1035 1210 l 1
 1095 1210 l 1
 1095 920 l 1
 865 920 l 1
 865 0 l 25
 575 0 l 25
 575 60 l 25
 805 60 l 25
 805 920 l 25
 345 920 l 25
 345 980 l 25
175 1210 m 25
 175 0 l 25
 115 0 l 25
 115 1210 l 25
 175 1210 l 25
EndSplineSet
Validated: 1
EndChar

StartChar: uni3053
Encoding: 919 12371 919
Width: 1380
Flags: W
HStem: 0 60<175 1325> 1150 60<345 1035>
VStem: 115 60<60 520> 1035 60<920 1150>
LayerCount: 2
Fore
SplineSet
175 520 m 29
 175 60 l 25
 1325 60 l 25
 1325 0 l 25
 115 0 l 25
 115 520 l 25
 175 520 l 29
345 1210 m 25
 1095 1210 l 25
 1095 920 l 25
 1035 920 l 25
 1035 1150 l 25
 345 1150 l 25
 345 1210 l 25
EndSplineSet
Validated: 1
EndChar

StartChar: uni3054
Encoding: 920 12372 920
Width: 1380
Flags: W
HStem: 0 60<175 1325> 1150 60<345 1035>
VStem: 115 60<60 520> 1035 60<920 1150> 1265 60<920 1210>
LayerCount: 2
Fore
SplineSet
1325 1210 m 29
 1325 920 l 25
 1265 920 l 25
 1265 1210 l 25
 1325 1210 l 29
175 520 m 25
 175 60 l 25
 1325 60 l 25
 1325 0 l 25
 115 0 l 25
 115 520 l 25
 175 520 l 25
345 1210 m 25
 1095 1210 l 25
 1095 920 l 25
 1035 920 l 25
 1035 1150 l 25
 345 1150 l 25
 345 1210 l 25
EndSplineSet
Validated: 1
EndChar

StartChar: uni3055
Encoding: 921 12373 921
Width: 1380
Flags: W
HStem: 0 60<405 865> 460 60<575 805> 920 60<115 805 865 1325> 1190 20G<805 865>
VStem: 345 60<60 520> 805 60<520 920 980 1210>
LayerCount: 2
Fore
SplineSet
405 520 m 25
 405 60 l 25
 865 60 l 25
 865 0 l 25
 345 0 l 25
 345 520 l 25
 405 520 l 25
865 1210 m 25
 865 980 l 25
 1325 980 l 25
 1325 920 l 25
 865 920 l 21
 865 460 l 13
 575 460 l 25
 575 520 l 25
 805 520 l 17
 805 920 l 9
 115 920 l 25
 115 980 l 25
 805 980 l 25
 805 1210 l 25
 865 1210 l 25
EndSplineSet
Validated: 1
EndChar

StartChar: uni3056
Encoding: 922 12374 922
Width: 1380
Flags: W
HStem: 0 60<405 865> 460 60<575 805> 920 60<115 805 865 1035> 1190 20G<805 865 1035 1095 1265 1325>
VStem: 345 60<60 520> 805 60<520 920 980 1210> 1035 60<980 1208> 1265 60<920 1210>
LayerCount: 2
Fore
SplineSet
1265 1210 m 25
 1325 1210 l 25
 1325 920 l 25
 1265 920 l 25
 1265 1210 l 25
405 520 m 25
 405 60 l 25
 865 60 l 25
 865 0 l 25
 345 0 l 25
 345 520 l 25
 405 520 l 25
865 1210 m 25
 865 980 l 1
 1035 980 l 1
 1035 1210 l 1
 1095 1208 l 1
 1095 920 l 1
 865 920 l 5
 865 460 l 29
 575 460 l 25
 575 520 l 25
 805 520 l 17
 805 920 l 9
 115 920 l 25
 115 980 l 25
 805 980 l 25
 805 1210 l 25
 865 1210 l 25
EndSplineSet
Validated: 1
EndChar

StartChar: uni3057
Encoding: 923 12375 923
Width: 1380
Flags: W
HStem: 0 60<405 1035> 1190 20G<345 405>
VStem: 345 60<60 1210> 1035 60<60 520>
LayerCount: 2
Fore
SplineSet
405 1210 m 29
 405 60 l 25
 1035 60 l 25
 1035 520 l 25
 1095 520 l 25
 1095 0 l 25
 345 0 l 25
 345 1210 l 25
 405 1210 l 29
EndSplineSet
Validated: 1
EndChar

StartChar: uni3058
Encoding: 924 12376 924
Width: 1380
Flags: W
HStem: 0 60<405 1035> 1190 20G<345 405 1035 1095 1265 1325>
VStem: 345 60<60 1210> 1035 60<60 520 920 1210> 1265 60<920 1210>
LayerCount: 2
Fore
SplineSet
1265 1210 m 29
 1325 1210 l 25
 1325 920 l 25
 1265 920 l 25
 1265 1210 l 29
1035 1210 m 25
 1095 1210 l 25
 1095 920 l 25
 1035 920 l 25
 1035 1210 l 25
405 1210 m 25
 405 60 l 25
 1035 60 l 25
 1035 520 l 25
 1095 520 l 25
 1095 0 l 25
 345 0 l 25
 345 1210 l 25
 405 1210 l 25
EndSplineSet
Validated: 1
EndChar

StartChar: uni305A
Encoding: 925 12378 925
Width: 1380
Flags: W
HStem: 0 21G<805 865> 230 60<635 805> 690 60<635 805> 920 60<115 805 865 1035> 1190 20G<805 865 1035 1095 1265 1325>
VStem: 575 60<290 690> 805 60<0 230 290 690 750 920 980 1210> 1035 60<980 1210> 1265 60<920 1210>
LayerCount: 2
Fore
SplineSet
1265 1210 m 29
 1325 1210 l 25
 1325 920 l 25
 1265 920 l 25
 1265 1210 l 29
635 690 m 25
 635 290 l 25
 805 290 l 25
 805 690 l 25
 635 690 l 25
865 1210 m 25
 865 980 l 1
 1035 980 l 1
 1035 1210 l 1
 1095 1210 l 1
 1095 920 l 1
 865 920 l 1
 865 0 l 25
 805 0 l 25
 805 230 l 25
 575 230 l 25
 575 750 l 25
 805 750 l 25
 805 920 l 25
 115 920 l 25
 115 980 l 25
 805 980 l 25
 805 1210 l 25
 865 1210 l 25
EndSplineSet
Validated: 1
EndChar

StartChar: uni305B
Encoding: 926 12379 926
Width: 1380
Flags: W
HStem: 0 60<405 1325> 230 60<805 1035> 690 60<115 345 405 1035 1095 1325> 1190 20G<345 405 1035 1095>
VStem: 345 60<60 690 750 1210> 1035 60<290 690 750 1210>
LayerCount: 2
Fore
SplineSet
1095 1210 m 29
 1095 750 l 25
 1325 750 l 25
 1325 690 l 25
 1095 690 l 25
 1095 230 l 25
 805 230 l 25
 805 290 l 25
 1035 290 l 25
 1035 690 l 25
 405 690 l 25
 405 60 l 25
 1325 60 l 25
 1325 0 l 25
 345 0 l 25
 345 690 l 25
 115 690 l 25
 115 750 l 25
 345 750 l 25
 345 1210 l 25
 405 1210 l 25
 405 750 l 25
 1035 750 l 25
 1035 1210 l 25
 1095 1210 l 29
EndSplineSet
Validated: 1
EndChar

StartChar: uni305C
Encoding: 927 12380 927
Width: 1380
Flags: W
HStem: 0 60<405 1325> 230 60<805 1035> 690 60<115 345 405 1035 1095 1325> 1190 20G<345 405 1035 1095 1265 1325>
VStem: 345 60<60 690 750 1210> 1035 60<290 690 750 1210> 1265 60<920 1210>
LayerCount: 2
Fore
SplineSet
1265 1210 m 29
 1325 1210 l 25
 1325 920 l 25
 1265 920 l 25
 1265 1210 l 29
1095 1210 m 25
 1095 750 l 25
 1325 750 l 25
 1325 690 l 25
 1095 690 l 25
 1095 230 l 25
 805 230 l 25
 805 290 l 25
 1035 290 l 25
 1035 690 l 25
 405 690 l 25
 405 60 l 25
 1325 60 l 25
 1325 0 l 25
 345 0 l 25
 345 690 l 25
 115 690 l 25
 115 750 l 25
 345 750 l 25
 345 1210 l 25
 405 1210 l 25
 405 750 l 25
 1035 750 l 25
 1035 1210 l 25
 1095 1210 l 25
EndSplineSet
Validated: 1
EndChar

StartChar: uni305D
Encoding: 928 12381 928
Width: 1380
Flags: W
HStem: 0 60<635 1095> 460 60<635 805> 690 60<115 345 405 805 865 1325> 920 60<405 805> 1150 60<115 805 865 1095>
VStem: 345 60<750 920> 575 60<60 460> 805 60<520 690 980 1150>
CounterMasks: 1 07
LayerCount: 2
Fore
SplineSet
115 1210 m 29
 1095 1210 l 25
 1095 1150 l 25
 865 1150 l 25
 865 920 l 25
 405 920 l 25
 405 750 l 25
 1325 750 l 25
 1325 690 l 25
 865 690 l 25
 865 460 l 25
 635 460 l 25
 635 60 l 25
 1095 60 l 25
 1095 0 l 25
 575 0 l 25
 575 520 l 25
 805 520 l 25
 805 690 l 25
 115 690 l 25
 115 750 l 25
 345 750 l 25
 345 980 l 25
 805 980 l 25
 805 1150 l 25
 115 1150 l 25
 115 1210 l 29
EndSplineSet
Validated: 1
EndChar

StartChar: uni305E
Encoding: 929 12382 929
Width: 1380
Flags: W
HStem: 0 60<635 1095> 460 60<635 805> 690 60<115 345 405 805 865 1325> 920 60<405 805> 1150 60<115 805 865 1035>
VStem: 345 60<750 920> 575 60<60 460> 805 60<520 690 980 1150> 1035 60<920 1150> 1265 60<920 1210>
LayerCount: 2
Fore
SplineSet
1325 1210 m 25
 1325 920 l 25
 1265 920 l 25
 1265 1210 l 25
 1325 1210 l 25
115 1210 m 25
 1095 1210 l 1
 1095 920 l 1
 1035 920 l 1
 1035 1150 l 5
 865 1150 l 1
 865 920 l 25
 405 920 l 25
 405 750 l 25
 1325 750 l 25
 1325 690 l 25
 865 690 l 25
 865 460 l 25
 635 460 l 25
 635 60 l 25
 1095 60 l 25
 1095 0 l 25
 575 0 l 25
 575 520 l 25
 805 520 l 25
 805 690 l 25
 115 690 l 25
 115 750 l 25
 345 750 l 25
 345 980 l 25
 805 980 l 25
 805 1150 l 25
 115 1150 l 25
 115 1210 l 25
EndSplineSet
Validated: 1
EndChar

StartChar: uni305F
Encoding: 930 12383 930
Width: 1380
Flags: W
HStem: 0 60<635 1325> 690 60<575 1325> 920 60<115 345 405 865> 1190 20G<345 405>
VStem: 345 60<0 920 980 1210> 575 60<60 290>
LayerCount: 2
Fore
SplineSet
575 290 m 29
 635 290 l 25
 635 60 l 25
 1325 60 l 25
 1325 0 l 25
 575 0 l 25
 575 290 l 29
575 750 m 25
 1325 750 l 25
 1325 690 l 25
 575 690 l 25
 575 750 l 25
405 1210 m 25
 405 980 l 25
 865 980 l 25
 865 920 l 25
 405 920 l 25
 405 0 l 25
 345 0 l 25
 345 920 l 25
 115 920 l 25
 115 980 l 25
 345 980 l 25
 345 1210 l 25
 405 1210 l 25
EndSplineSet
Validated: 1
EndChar

StartChar: uni3060
Encoding: 931 12384 931
Width: 1380
Flags: W
HStem: 0 60<635 1325> 690 60<575 1325> 920 60<115 345 405 865> 1190 20G<345 405 1035 1095 1265 1325>
VStem: 345 60<0 920 980 1210> 575 60<60 290> 1035 60<920 1210> 1265 60<920 1210>
LayerCount: 2
Fore
SplineSet
1265 1210 m 29
 1325 1210 l 25
 1325 920 l 25
 1265 920 l 25
 1265 1210 l 29
1035 1210 m 25
 1095 1210 l 25
 1095 920 l 25
 1035 920 l 25
 1035 1210 l 25
575 290 m 25
 635 290 l 25
 635 60 l 25
 1325 60 l 25
 1325 0 l 25
 575 0 l 25
 575 290 l 25
575 750 m 25
 1325 750 l 25
 1325 690 l 25
 575 690 l 25
 575 750 l 25
405 1210 m 25
 405 980 l 25
 865 980 l 25
 865 920 l 25
 405 920 l 25
 405 0 l 25
 345 0 l 25
 345 920 l 25
 115 920 l 25
 115 980 l 25
 345 980 l 25
 345 1210 l 25
 405 1210 l 25
EndSplineSet
Validated: 1
EndChar

StartChar: uni3061
Encoding: 932 12385 932
Width: 1380
Flags: W
HStem: 0 60<345 1035> 460 60<635 1035> 920 60<115 575 635 1325> 1190 20G<575 635>
VStem: 575 60<520 920 980 1210> 1035 60<60 460>
LayerCount: 2
Fore
SplineSet
635 1210 m 29
 635 980 l 25
 1325 980 l 25
 1325 920 l 25
 635 920 l 25
 635 520 l 25
 1095 520 l 25
 1095 0 l 25
 345 0 l 25
 345 60 l 25
 1035 60 l 25
 1035 460 l 25
 575 460 l 25
 575 920 l 25
 115 920 l 25
 115 980 l 25
 575 980 l 25
 575 1210 l 25
 635 1210 l 29
EndSplineSet
Validated: 1
EndChar

StartChar: uni3062
Encoding: 933 12386 933
Width: 1380
Flags: W
HStem: 0 60<345 1035> 460 60<635 1035> 920 60<115 575 635 1035> 1190 20G<575 635 1035 1095 1265 1325>
VStem: 575 60<520 920 980 1210> 1035 60<60 460 980 1210> 1265 60<920 1210>
LayerCount: 2
Fore
SplineSet
1265 1210 m 29
 1325 1210 l 25
 1325 920 l 25
 1265 920 l 25
 1265 1210 l 29
635 1210 m 25
 635 980 l 1
 1035 980 l 1
 1035 1210 l 1
 1095 1210 l 1
 1095 920 l 1
 635 920 l 1
 635 520 l 25
 1095 520 l 25
 1095 0 l 25
 345 0 l 25
 345 60 l 25
 1035 60 l 25
 1035 460 l 25
 575 460 l 25
 575 920 l 25
 115 920 l 25
 115 980 l 25
 575 980 l 25
 575 1210 l 25
 635 1210 l 25
EndSplineSet
Validated: 1
EndChar

StartChar: uni3063
Encoding: 934 12387 934
Width: 1380
Flags: W
HStem: 0 60<575 805> 460 60<345 805>
VStem: 805 60<60 460>
LayerCount: 2
Fore
SplineSet
345 520 m 29
 865 520 l 25
 865 0 l 25
 575 0 l 25
 575 60 l 25
 805 60 l 25
 805 460 l 25
 345 460 l 25
 345 520 l 29
EndSplineSet
Validated: 1
EndChar

StartChar: uni3064
Encoding: 935 12388 935
Width: 1380
Flags: W
HStem: 230 60<805 1265> 920 60<115 1265>
VStem: 1265 60<290 920>
LayerCount: 2
Fore
SplineSet
115 980 m 29
 1325 980 l 25
 1325 230 l 25
 805 230 l 25
 805 290 l 25
 1265 290 l 25
 1265 920 l 25
 115 920 l 25
 115 980 l 29
EndSplineSet
Validated: 1
EndChar

StartChar: uni3065
Encoding: 936 12389 936
Width: 1380
Flags: W
HStem: 230 60<805 1265> 920 60<115 1035 1095 1265> 1190 20G<1035 1095 1265 1325>
VStem: 1035 60<980 1210> 1265 60<290 920 980 1210>
LayerCount: 2
Fore
SplineSet
115 980 m 1
 1035 980 l 1
 1035 1210 l 1
 1095 1210 l 1
 1095 980 l 5
 1265 980 l 1
 1265 1210 l 1
 1325 1210 l 1
 1325 230 l 1
 805 230 l 25
 805 290 l 25
 1265 290 l 25
 1265 920 l 25
 115 920 l 25
 115 980 l 1
EndSplineSet
Validated: 1
EndChar

StartChar: uni3066
Encoding: 937 12390 937
Width: 1380
Flags: W
HStem: 0 60<635 1095> 230 60<405 575> 690 60<405 575> 920 60<635 805> 1150 60<115 805 865 1325>
VStem: 345 60<290 690> 575 60<60 230 750 920> 805 60<980 1150>
CounterMasks: 1 07
LayerCount: 2
Fore
SplineSet
115 1210 m 25
 1325 1210 l 1
 1325 1148 l 25
 865 1150 l 1
 865 920 l 25
 635 920 l 25
 635 690 l 25
 405 690 l 25
 405 290 l 25
 635 290 l 25
 635 60 l 25
 1095 60 l 25
 1095 0 l 25
 575 0 l 25
 575 230 l 25
 345 230 l 25
 345 750 l 25
 575 750 l 25
 575 980 l 25
 805 980 l 25
 805 1150 l 25
 115 1150 l 25
 115 1210 l 25
EndSplineSet
Validated: 1
EndChar

StartChar: uni3067
Encoding: 938 12391 938
Width: 1380
Flags: W
HStem: 0 60<635 1095> 230 60<405 575> 690 60<405 575> 920 60<635 805> 1150 60<115 805 865 1325>
VStem: 345 60<290 690> 575 60<60 230 750 920> 805 60<980 1150> 1035 60<690 980> 1265 60<690 980>
LayerCount: 2
Fore
SplineSet
1265 980 m 1
 1325 980 l 25
 1325 690 l 1
 1265 690 l 25
 1265 980 l 1
1035 980 m 25
 1095 980 l 25
 1095 690 l 25
 1035 690 l 25
 1035 980 l 25
115 1210 m 25
 1325 1210 l 1
 1325 1148 l 25
 865 1150 l 1
 865 920 l 25
 635 920 l 25
 635 690 l 25
 405 690 l 25
 405 290 l 25
 635 290 l 25
 635 60 l 25
 1095 60 l 25
 1095 0 l 25
 575 0 l 25
 575 230 l 25
 345 230 l 25
 345 750 l 25
 575 750 l 25
 575 980 l 25
 805 980 l 25
 805 1150 l 25
 115 1150 l 25
 115 1210 l 25
EndSplineSet
Validated: 1
EndChar

StartChar: uni3068
Encoding: 939 12392 939
Width: 1380
Flags: W
HStem: 0 60<175 1325> 690 60<175 345 405 1095> 1190 20G<345 405>
VStem: 115 60<60 690> 345 60<750 1210>
LayerCount: 2
Fore
SplineSet
405 1210 m 29
 405 750 l 25
 1095 750 l 25
 1095 690 l 25
 175 690 l 25
 175 60 l 25
 1325 60 l 25
 1325 0 l 25
 115 0 l 25
 115 750 l 25
 345 750 l 25
 345 1210 l 25
 405 1210 l 29
EndSplineSet
Validated: 1
EndChar

StartChar: uni3069
Encoding: 940 12393 940
Width: 1380
Flags: W
HStem: 0 60<175 1325> 690 60<175 345 405 1095> 1190 20G<345 405 1035 1095 1265 1325>
VStem: 115 60<60 690> 345 60<750 1210> 1035 60<920 1210> 1265 60<920 1210>
LayerCount: 2
Fore
SplineSet
1265 1210 m 29
 1325 1210 l 25
 1325 920 l 25
 1265 920 l 25
 1265 1210 l 29
1035 1210 m 25
 1095 1210 l 25
 1095 920 l 25
 1035 920 l 25
 1035 1210 l 25
405 1210 m 25
 405 750 l 25
 1095 750 l 25
 1095 690 l 25
 175 690 l 25
 175 60 l 25
 1325 60 l 25
 1325 0 l 25
 115 0 l 25
 115 750 l 25
 345 750 l 25
 345 1210 l 25
 405 1210 l 25
EndSplineSet
Validated: 1
EndChar

StartChar: uni306A
Encoding: 941 12394 941
Width: 1380
Flags: W
HStem: 0 60<405 805> 230 60<405 805 865 1095> 730 20G<805 865> 730 20G<805 865> 920 60<115 345 405 865 1035 1265> 1190 20G<345 405>
VStem: 345 60<60 230 460 920 980 1210> 805 60<60 230 290 750> 1265 60<460 920>
CounterMasks: 1 0380
LayerCount: 2
Fore
SplineSet
405 230 m 29xcf80
 405 60 l 25
 805 60 l 25
 805 230 l 25
 405 230 l 29xcf80
865 750 m 25xef80
 865 290 l 1
 1095 290 l 25
 1095 230 l 25
 865 230 l 25
 865 0 l 25
 345 0 l 25
 345 290 l 25
 805 290 l 25
 805 750 l 1
 865 750 l 25xef80
1035 980 m 25
 1325 980 l 25
 1325 460 l 25
 1265 460 l 25
 1265 920 l 25
 1035 920 l 25
 1035 980 l 25
405 1210 m 25
 405 980 l 25
 865 980 l 25
 865 920 l 25
 405 920 l 25
 405 460 l 25
 345 460 l 25
 345 920 l 25
 115 920 l 25
 115 980 l 25
 345 980 l 25
 345 1210 l 25
 405 1210 l 25
EndSplineSet
Validated: 1
EndChar

StartChar: uni306B
Encoding: 942 12395 942
Width: 1380
Flags: HW
HStem: 0 60<175 405> 920 60<575 1265> 1190 20G<115 175>
VStem: 115 60<60 1210> 1265 60<690 920>
LayerCount: 2
Fore
SplineSet
575 290 m 25
 635 290 l 25
 635 60 l 25
 1325 60 l 1
 1325 0 l 1
 575 0 l 25
 575 290 l 25
575 980 m 25
 1325 980 l 1
 1325 690 l 25
 1265 690 l 25
 1265 920 l 1
 575 920 l 25
 575 980 l 25
175 1210 m 1
 175 60 l 1
 405 60 l 1
 405 0 l 1
 115 0 l 1
 115 1210 l 25
 175 1210 l 1
EndSplineSet
Validated: 1
EndChar

StartChar: uni306C
Encoding: 943 12396 943
Width: 1380
Flags: W
HStem: 0 60<175 345 405 575 865 1035> 230 60<865 1035 1095 1325> 690 60<175 345 405 575 635 1035> 1190 20G<345 405>
VStem: 115 60<60 690> 345 60<60 690 750 1210> 575 60<60 690 750 980> 805 60<60 230> 1035 60<60 230 290 690>
LayerCount: 2
Fore
SplineSet
865 230 m 29
 865 60 l 25
 1035 60 l 25
 1035 230 l 25
 865 230 l 29
405 690 m 25
 405 60 l 25
 575 60 l 25
 575 690 l 25
 405 690 l 25
175 690 m 25
 175 60 l 25
 345 60 l 25
 345 690 l 25
 175 690 l 25
405 1210 m 25
 405 750 l 25
 575 750 l 25
 575 980 l 25
 635 980 l 25
 635 750 l 25
 1095 750 l 25
 1095 290 l 25
 1325 290 l 25
 1325 230 l 25
 1095 230 l 25
 1095 0 l 25
 805 0 l 25
 805 290 l 25
 1035 290 l 25
 1035 690 l 25
 635 690 l 25
 635 0 l 25
 115 0 l 25
 115 750 l 25
 345 750 l 25
 345 1210 l 25
 405 1210 l 25
EndSplineSet
Validated: 1
EndChar

StartChar: uni306D
Encoding: 944 12397 944
Width: 1380
Flags: W
HStem: 0 60<865 1035> 230 60<115 345 865 1035 1095 1325> 690 60<405 1035> 920 60<115 345> 1190 20G<345 405>
VStem: 345 60<0 230 290 690 750 920 980 1210> 805 60<60 230> 1035 60<60 230 290 690>
LayerCount: 2
Fore
SplineSet
865 230 m 29
 865 60 l 25
 1035 60 l 25
 1035 230 l 25
 865 230 l 29
405 1210 m 25
 405 750 l 25
 1095 750 l 25
 1095 290 l 25
 1325 290 l 25
 1325 230 l 25
 1095 230 l 25
 1095 0 l 25
 805 0 l 25
 805 290 l 25
 1035 290 l 25
 1035 690 l 25
 405 690 l 25
 405 0 l 25
 345 0 l 25
 345 230 l 25
 115 230 l 25
 115 290 l 25
 345 290 l 25
 345 920 l 25
 115 920 l 25
 115 980 l 25
 345 980 l 25
 345 1210 l 25
 405 1210 l 25
EndSplineSet
Validated: 1
EndChar

StartChar: uni306E
Encoding: 945 12398 945
Width: 1380
Flags: W
HStem: 0 60<175 575 805 1265> 1150 60<175 575 635 1265>
VStem: 115 60<60 1150> 575 60<60 1150> 1265 60<60 1150>
LayerCount: 2
Fore
SplineSet
175 1150 m 29
 175 60 l 25
 575 60 l 25
 575 1150 l 25
 175 1150 l 29
1325 1210 m 25
 1325 0 l 25
 805 0 l 25
 805 60 l 25
 1265 60 l 25
 1265 1150 l 25
 635 1150 l 25
 635 0 l 25
 115 0 l 25
 115 1210 l 25
 1325 1210 l 25
EndSplineSet
Validated: 1
EndChar

StartChar: uni306F
Encoding: 946 12399 946
Width: 1380
Flags: W
HStem: 0 60<405 805> 460 60<405 805 865 1265> 920 60<345 805 865 1325> 1190 20G<115 175 805 865>
VStem: 115 60<0 1210> 345 60<60 460> 805 60<60 460 520 920 980 1210> 1265 60<0 460>
LayerCount: 2
Fore
SplineSet
405 460 m 29
 405 60 l 25
 805 60 l 25
 805 460 l 25
 405 460 l 29
865 1210 m 25
 865 980 l 25
 1325 980 l 25
 1325 920 l 25
 865 920 l 25
 865 520 l 25
 1325 520 l 25
 1325 0 l 25
 1265 0 l 25
 1265 460 l 25
 865 460 l 25
 865 0 l 25
 345 0 l 25
 345 520 l 25
 805 520 l 25
 805 920 l 25
 345 920 l 25
 345 980 l 25
 805 980 l 25
 805 1210 l 25
 865 1210 l 25
175 1210 m 25
 175 0 l 25
 115 0 l 25
 115 1210 l 25
 175 1210 l 25
EndSplineSet
Validated: 1
EndChar

StartChar: uni3070
Encoding: 947 12400 947
Width: 1380
Flags: W
HStem: 0 60<405 805> 460 60<405 805 865 1265> 920 60<345 805 865 1035> 1190 20G<115 175 805 865 1035 1095 1265 1325>
VStem: 115 60<0 1210> 345 60<60 460> 805 60<60 460 520 920 980 1210> 1035 60<980 1210> 1265 60<0 460 920 1210>
LayerCount: 2
Fore
SplineSet
1265 1210 m 29
 1325 1210 l 25
 1325 920 l 25
 1265 920 l 25
 1265 1210 l 29
405 460 m 25
 405 60 l 25
 805 60 l 25
 805 460 l 25
 405 460 l 25
865 1210 m 25
 865 980 l 17
 1035 980 l 1
 1035 1210 l 1
 1095 1210 l 1
 1095 920 l 1
 865 920 l 1
 865 520 l 25
 1325 520 l 25
 1325 0 l 25
 1265 0 l 25
 1265 460 l 25
 865 460 l 25
 865 0 l 25
 345 0 l 25
 345 520 l 25
 805 520 l 25
 805 920 l 25
 345 920 l 25
 345 980 l 25
 805 980 l 25
 805 1210 l 25
 865 1210 l 25
175 1210 m 25
 175 0 l 25
 115 0 l 25
 115 1210 l 25
 175 1210 l 25
EndSplineSet
Validated: 1
EndChar

StartChar: uni3071
Encoding: 948 12401 948
Width: 1380
Flags: W
HStem: 0 60<405 805> 460 60<405 805 865 1265> 920 60<345 805 865 1035 1095 1265> 1150 60<1095 1265>
VStem: 115 60<0 1210> 345 60<60 460> 805 60<60 460 520 920 980 1210> 1035 60<980 1150> 1265 60<0 460 980 1150>
LayerCount: 2
Fore
SplineSet
1095 1150 m 29
 1095 980 l 25
 1265 980 l 25
 1265 1150 l 25
 1095 1150 l 29
405 460 m 25
 405 60 l 25
 805 60 l 25
 805 460 l 25
 405 460 l 25
865 1210 m 25
 865 980 l 1
 1035 980 l 1
 1035 1210 l 1
 1325 1210 l 1
 1325 920 l 1
 865 920 l 25
 865 520 l 25
 1325 520 l 25
 1325 0 l 25
 1265 0 l 25
 1265 460 l 25
 865 460 l 25
 865 0 l 25
 345 0 l 25
 345 520 l 25
 805 520 l 25
 805 920 l 25
 345 920 l 25
 345 980 l 25
 805 980 l 25
 805 1210 l 25
 865 1210 l 25
175 1210 m 25
 175 0 l 25
 115 0 l 25
 115 1210 l 25
 175 1210 l 25
EndSplineSet
Validated: 1
EndChar

StartChar: uni3072
Encoding: 949 12402 949
Width: 1380
Flags: W
HStem: 0 60<635 1035> 920 60<1095 1325> 1150 60<115 575>
VStem: 575 60<60 1150> 1035 60<60 920>
LayerCount: 2
Fore
SplineSet
115 1210 m 25
 635 1210 l 25
 635 60 l 25
 1035 60 l 1
 1035 980 l 29
 1325 980 l 29
 1325 920 l 29
 1095 920 l 29
 1095 0 l 1
 575 0 l 25
 575 1150 l 25
 115 1150 l 25
 115 1210 l 25
EndSplineSet
Validated: 1
EndChar

StartChar: uni3073
Encoding: 950 12403 950
Width: 1380
Flags: W
HStem: 0 60<635 1035> 690 60<1095 1325> 1150 60<115 575>
VStem: 575 60<60 1150> 1035 60<60 690 920 1210> 1265 60<920 1210>
LayerCount: 2
Fore
SplineSet
1265 1210 m 29
 1325 1210 l 25
 1325 920 l 25
 1265 920 l 25
 1265 1210 l 29
1095 1210 m 25
 1095 920 l 25
 1035 920 l 25
 1035 1210 l 25
 1095 1210 l 25
115 1210 m 25
 635 1210 l 25
 635 60 l 25
 1035 60 l 25
 1035 750 l 25
 1325 750 l 25
 1325 690 l 25
 1095 690 l 25
 1095 0 l 25
 575 0 l 25
 575 1150 l 25
 115 1150 l 25
 115 1210 l 25
EndSplineSet
Validated: 1
EndChar

StartChar: uni3074
Encoding: 951 12404 951
Width: 1380
Flags: W
HStem: 0 60<635 1035> 690 60<1095 1325> 920 60<1095 1265> 1150 60<115 575 1095 1265>
VStem: 575 60<60 1150> 1035 60<60 690 980 1150> 1265 60<980 1150>
LayerCount: 2
Fore
SplineSet
1095 1150 m 29
 1095 980 l 25
 1265 980 l 25
 1265 1150 l 25
 1095 1150 l 29
1035 1210 m 25
 1325 1210 l 25
 1325 920 l 25
 1035 920 l 25
 1035 1210 l 25
115 1210 m 25
 635 1210 l 25
 635 60 l 25
 1035 60 l 25
 1035 750 l 25
 1325 750 l 25
 1325 690 l 25
 1095 690 l 25
 1095 0 l 25
 575 0 l 25
 575 1150 l 25
 115 1150 l 25
 115 1210 l 25
EndSplineSet
Validated: 1
EndChar

StartChar: uni3075
Encoding: 952 12405 952
Width: 1380
Flags: W
HStem: 0 60<345 805> 460 60<1035 1265> 690 60<575 805> 1150 60<345 805>
VStem: 115 60<0 520> 805 60<60 690 920 1150> 1265 60<0 460>
LayerCount: 2
Fore
SplineSet
1035 520 m 29
 1325 520 l 25
 1325 0 l 25
 1265 0 l 25
 1265 460 l 25
 1035 460 l 25
 1035 520 l 29
115 520 m 25
 175 520 l 25
 175 0 l 25
 115 0 l 25
 115 520 l 25
575 750 m 25
 865 750 l 25
 865 0 l 25
 345 0 l 25
 345 60 l 25
 805 60 l 25
 805 690 l 25
 575 690 l 25
 575 750 l 25
345 1210 m 25
 865 1210 l 25
 865 920 l 25
 805 920 l 25
 805 1150 l 25
 345 1150 l 25
 345 1210 l 25
EndSplineSet
Validated: 1
EndChar

StartChar: uni3076
Encoding: 953 12406 953
Width: 1380
Flags: W
HStem: 0 60<345 805> 460 60<1035 1265> 690 60<575 805> 920 290<805 865 1035 1095 1265 1325> 1150 60<345 805>
VStem: 115 60<0 520> 805 60<60 690 920 1150> 1035 60<920 1210> 1265 60<0 460 920 1210>
LayerCount: 2
Fore
SplineSet
1265 1210 m 29xf780
 1325 1210 l 25
 1325 920 l 25
 1265 920 l 25
 1265 1210 l 29xf780
1095 1210 m 25
 1095 920 l 25
 1035 920 l 25
 1035 1210 l 25
 1095 1210 l 25
1035 520 m 25
 1325 520 l 25
 1325 0 l 25
 1265 0 l 25
 1265 460 l 25
 1035 460 l 25
 1035 520 l 25
115 520 m 25
 175 520 l 25
 175 0 l 25
 115 0 l 25
 115 520 l 25
575 750 m 25
 865 750 l 25
 865 0 l 25
 345 0 l 25
 345 60 l 25
 805 60 l 25
 805 690 l 25
 575 690 l 25
 575 750 l 25
345 1210 m 25xef80
 865 1210 l 25
 865 920 l 25
 805 920 l 25xf780
 805 1150 l 25
 345 1150 l 25
 345 1210 l 25xef80
EndSplineSet
Validated: 1
EndChar

StartChar: uni3077
Encoding: 954 12407 954
Width: 1380
Flags: W
HStem: 0 60<345 805> 460 60<1035 1265> 690 60<575 805> 920 60<1095 1265> 1150 60<345 805 1095 1265>
VStem: 115 60<0 520> 805 60<60 690 920 1150> 1035 60<980 1150> 1265 60<0 460 980 1150>
LayerCount: 2
Fore
SplineSet
1095 1150 m 29
 1095 980 l 25
 1265 980 l 25
 1265 1150 l 25
 1095 1150 l 29
1035 1210 m 25
 1325 1210 l 25
 1325 920 l 25
 1035 920 l 25
 1035 1210 l 25
1035 520 m 25
 1325 520 l 25
 1325 0 l 25
 1265 0 l 25
 1265 460 l 25
 1035 460 l 25
 1035 520 l 25
115 520 m 25
 175 520 l 25
 175 0 l 25
 115 0 l 25
 115 520 l 25
575 750 m 25
 865 750 l 25
 865 0 l 25
 345 0 l 25
 345 60 l 25
 805 60 l 25
 805 690 l 25
 575 690 l 25
 575 750 l 25
345 1210 m 25
 865 1210 l 25
 865 920 l 25
 805 920 l 25
 805 1150 l 25
 345 1150 l 25
 345 1210 l 25
EndSplineSet
Validated: 1
EndChar

StartChar: uni3078
Encoding: 955 12408 955
Width: 1380
Flags: W
HStem: 230 60<865 1325> 460 60<635 805> 690 60<175 575>
VStem: 115 60<230 690> 575 60<520 690> 805 60<290 460>
CounterMasks: 1 e0
LayerCount: 2
Fore
SplineSet
115 230 m 29
 115 750 l 25
 635 750 l 25
 635 520 l 25
 865 520 l 25
 865 290 l 25
 1325 290 l 25
 1325 230 l 25
 805 230 l 25
 805 460 l 25
 575 460 l 25
 575 690 l 25
 175 690 l 25
 175 230 l 25
 115 230 l 29
EndSplineSet
Validated: 1
EndChar

StartChar: uni3079
Encoding: 956 12409 956
Width: 1380
Flags: W
HStem: 230 60<865 1325> 460 60<635 805> 690 60<175 575>
VStem: 115 60<230 690> 575 60<520 690> 805 60<290 460> 1035 60<690 980> 1265 60<690 980>
CounterMasks: 1 e0
LayerCount: 2
Fore
SplineSet
1265 980 m 29
 1325 980 l 25
 1325 690 l 25
 1265 690 l 25
 1265 980 l 29
1035 980 m 25
 1095 980 l 25
 1095 690 l 25
 1035 690 l 25
 1035 980 l 25
115 230 m 25
 115 750 l 25
 635 750 l 25
 635 520 l 25
 865 520 l 25
 865 290 l 25
 1325 290 l 25
 1325 230 l 25
 805 230 l 25
 805 460 l 25
 575 460 l 25
 575 690 l 25
 175 690 l 25
 175 230 l 25
 115 230 l 25
EndSplineSet
Validated: 1
EndChar

StartChar: uni307A
Encoding: 957 12410 957
Width: 1380
Flags: W
HStem: 230 60<865 1325> 460 60<635 805> 690 60<175 575 1095 1265> 920 60<1095 1265>
VStem: 115 60<230 690> 575 60<520 690> 805 60<290 460> 1035 60<750 920> 1265 60<750 920>
LayerCount: 2
Fore
SplineSet
1095 920 m 29
 1095 750 l 25
 1265 750 l 25
 1265 920 l 25
 1095 920 l 29
1035 980 m 25
 1325 980 l 25
 1325 690 l 25
 1035 690 l 25
 1035 980 l 25
115 230 m 25
 115 750 l 25
 635 750 l 25
 635 520 l 25
 865 520 l 25
 865 290 l 25
 1325 290 l 25
 1325 230 l 25
 805 230 l 25
 805 460 l 25
 575 460 l 25
 575 690 l 25
 175 690 l 25
 175 230 l 25
 115 230 l 25
EndSplineSet
Validated: 1
EndChar

StartChar: uni307B
Encoding: 958 12411 958
Width: 1380
Flags: W
HStem: 0 60<405 805> 460 60<405 805 865 1265> 920 60<345 805 865 1325> 1150 60<345 805 865 1325>
VStem: 115 60<0 1210> 345 60<60 460> 805 60<60 460 520 920 980 1150> 1265 60<0 460>
LayerCount: 2
Fore
SplineSet
405 460 m 25
 405 60 l 25
 805 60 l 25
 805 460 l 25
 405 460 l 25
1325 1210 m 1
 1325 1150 l 1
 865 1150 l 5
 865 980 l 1
 1325 980 l 25
 1325 920 l 25
 865 920 l 25
 865 520 l 25
 1325 520 l 25
 1325 0 l 25
 1265 0 l 25
 1265 460 l 25
 865 460 l 25
 865 0 l 25
 345 0 l 25
 345 520 l 25
 805 520 l 25
 805 920 l 25
 345 920 l 25
 345 980 l 25
 805 980 l 1
 805 1150 l 1
 345 1150 l 1
 327 1210 l 1
 1325 1210 l 1
175 1210 m 25
 175 0 l 25
 115 0 l 25
 115 1210 l 25
 175 1210 l 25
EndSplineSet
Validated: 1
EndChar

StartChar: uni307C
Encoding: 959 12412 959
Width: 1380
Flags: W
HStem: 0 60<405 805> 460 60<405 805 865 1265> 920 60<345 805 865 1035> 1150 60<345 805>
VStem: 115 60<0 1210> 345 60<60 460> 805 60<60 460 520 920 980 1150> 1035 60<980 1210> 1265 60<0 460 920 1210>
LayerCount: 2
Fore
SplineSet
1265 1210 m 25
 1325 1210 l 25
 1325 920 l 25
 1265 920 l 25
 1265 1210 l 25
405 460 m 25
 405 60 l 25
 805 60 l 25
 805 460 l 25
 405 460 l 25
865 1210 m 1
 865 980 l 17
 1035 980 l 1
 1035 1210 l 1
 1095 1210 l 1
 1095 920 l 1
 865 920 l 1
 865 520 l 25
 1325 520 l 25
 1325 0 l 25
 1265 0 l 25
 1265 460 l 25
 865 460 l 25
 865 0 l 25
 345 0 l 25
 345 520 l 25
 805 520 l 25
 805 920 l 25
 345 920 l 25
 345 980 l 25
 805 980 l 1
 805 1150 l 5
 345 1150 l 1
 345 1210 l 1
 865 1210 l 1
175 1210 m 25
 175 0 l 25
 115 0 l 25
 115 1210 l 25
 175 1210 l 25
EndSplineSet
Validated: 1
EndChar

StartChar: uni307D
Encoding: 960 12413 960
Width: 1380
Flags: W
HStem: 0 60<405 805> 460 60<405 805 865 1265> 920 60<345 805 865 1035 1095 1265> 1150 60<345 805 1095 1265>
VStem: 115 60<0 1210> 345 60<60 460> 805 60<60 460 520 920 980 1150> 1035 60<980 1150> 1265 60<0 460 980 1150>
LayerCount: 2
Fore
SplineSet
1095 1150 m 25
 1095 980 l 25
 1265 980 l 25
 1265 1150 l 25
 1095 1150 l 25
405 460 m 25
 405 60 l 25
 805 60 l 25
 805 460 l 25
 405 460 l 25
865 1210 m 1
 865 980 l 1
 1035 980 l 1
 1035 1210 l 1
 1325 1210 l 1
 1325 920 l 1
 865 920 l 25
 865 520 l 25
 1325 520 l 25
 1325 0 l 25
 1265 0 l 25
 1265 460 l 25
 865 460 l 25
 865 0 l 25
 345 0 l 25
 345 520 l 25
 805 520 l 25
 805 920 l 25
 345 920 l 25
 345 980 l 25
 805 980 l 1
 805 1150 l 1
 345 1150 l 5
 345 1210 l 5
 865 1210 l 1
175 1210 m 25
 175 0 l 25
 115 0 l 25
 115 1210 l 25
 175 1210 l 25
EndSplineSet
Validated: 1
EndChar

StartChar: uni307E
Encoding: 961 12414 961
Width: 1380
Flags: W
HStem: 0 60<175 805> 460 60<175 805 865 1265> 690 60<115 805 865 1325> 920 60<115 805 865 1325> 1190 20G<805 865>
VStem: 115 60<60 460> 805 60<60 460 520 690 750 920 980 1210> 1265 60<0 460>
LayerCount: 2
Fore
SplineSet
175 460 m 25
 175 60 l 25
 805 60 l 25
 805 460 l 25
 175 460 l 25
865 1210 m 25
 865 980 l 25
 1325 980 l 25
 1325 920 l 25
 865 920 l 25
 865 750 l 25
 1325 750 l 25
 1325 690 l 25
 865 690 l 25
 865 520 l 25
 1325 520 l 1
 1325 0 l 29
 1265 0 l 29
 1265 460 l 1
 865 460 l 25
 865 0 l 25
 115 0 l 25
 115 520 l 25
 805 520 l 25
 805 690 l 25
 115 690 l 25
 115 750 l 25
 805 750 l 25
 805 920 l 25
 115 920 l 25
 115 980 l 25
 805 980 l 25
 805 1210 l 25
 865 1210 l 25
EndSplineSet
Validated: 1
EndChar

StartChar: uni307F
Encoding: 962 12415 962
Width: 1380
Flags: W
HStem: 0 60<175 575> 460 60<175 575 635 1035 1095 1325> 1150 60<115 575>
VStem: 115 60<60 460> 575 60<60 460 520 1150> 1035 60<0 460 520 980>
CounterMasks: 1 1c
LayerCount: 2
Fore
SplineSet
175 460 m 29
 175 60 l 25
 575 60 l 25
 575 460 l 25
 175 460 l 29
115 1210 m 25
 635 1210 l 25
 635 520 l 25
 1035 520 l 25
 1035 980 l 25
 1095 980 l 25
 1095 520 l 25
 1325 520 l 25
 1325 460 l 25
 1095 460 l 25
 1095 0 l 25
 1035 0 l 25
 1035 460 l 25
 635 460 l 25
 635 0 l 25
 115 0 l 25
 115 520 l 25
 575 520 l 25
 575 1150 l 25
 115 1150 l 25
 115 1210 l 25
EndSplineSet
Validated: 1
EndChar

StartChar: uni3080
Encoding: 963 12416 963
Width: 1380
Flags: W
HStem: 0 60<405 1035> 230 60<175 345> 690 60<175 345> 920 60<115 345 405 865 1035 1265> 1190 20G<345 405>
VStem: 115 60<290 690> 345 60<60 230 290 690 750 920 980 1210> 1035 60<60 520> 1265 60<460 920>
LayerCount: 2
Fore
SplineSet
1035 980 m 29
 1325 980 l 25
 1325 460 l 25
 1265 460 l 25
 1265 920 l 25
 1035 920 l 25
 1035 980 l 29
175 690 m 25
 175 290 l 25
 345 290 l 25
 345 690 l 25
 175 690 l 25
115 980 m 25
 345 980 l 25
 345 1210 l 25
 405 1210 l 25
 405 980 l 25
 865 980 l 25
 865 920 l 25
 405 920 l 25
 405 60 l 25
 1035 60 l 25
 1035 520 l 25
 1095 520 l 25
 1095 0 l 25
 345 0 l 25
 345 230 l 25
 115 230 l 25
 115 750 l 25
 345 750 l 25
 345 920 l 25
 115 920 l 25
 115 980 l 25
EndSplineSet
Validated: 1
EndChar

StartChar: uni3081
Encoding: 964 12417 964
Width: 1380
Flags: W
HStem: 0 60<175 345 405 805 1035 1265> 690 60<175 345 405 805 865 1265> 1190 20G<345 405>
VStem: 115 60<60 690> 345 60<60 690 750 1210> 805 60<60 690 750 980> 1265 60<60 690>
LayerCount: 2
Fore
SplineSet
405 690 m 1
 405 60 l 1
 805 60 l 25
 805 690 l 25
 405 690 l 1
175 690 m 25
 175 60 l 25
 345 60 l 25
 345 690 l 25
 175 690 l 25
405 1210 m 25
 405 750 l 1
 805 750 l 25
 805 980 l 25
 865 980 l 25
 865 750 l 25
 1325 750 l 1
 1325 0 l 1
 1035 0 l 1
 1035 60 l 1
 1265 60 l 5
 1265 690 l 1
 865 690 l 25
 865 0 l 25
 115 0 l 1
 115 750 l 25
 345 750 l 25
 345 1210 l 25
 405 1210 l 25
EndSplineSet
Validated: 1
EndChar

StartChar: uni3082
Encoding: 965 12418 965
Width: 1380
Flags: W
HStem: 0 60<635 1035> 460 60<345 575 635 1095> 920 60<345 575 635 1095> 1190 20G<575 635>
VStem: 575 60<60 460 520 920 980 1210> 1035 60<60 290>
LayerCount: 2
Fore
SplineSet
635 1210 m 25
 635 980 l 25
 1095 980 l 25
 1095 920 l 25
 635 920 l 1
 635 520 l 29
 1095 520 l 29
 1095 460 l 29
 635 460 l 29
 635 60 l 1
 1035 60 l 25
 1035 290 l 25
 1095 290 l 25
 1095 0 l 25
 575 0 l 1
 575 460 l 29
 345 460 l 29
 345 520 l 29
 575 520 l 29
 575 920 l 1
 345 920 l 25
 345 980 l 25
 575 980 l 25
 575 1210 l 25
 635 1210 l 25
EndSplineSet
Validated: 1
EndChar

StartChar: uni3083
Encoding: 966 12419 966
Width: 1380
Flags: W
HStem: 0 21G<575 635> 460 60<345 575 635 805 865 1035> 730 20G<575 635 805 865> 730 20G<575 635 805 865>
VStem: 575 60<0 460 520 750> 805 60<520 750> 1035 60<230 460>
CounterMasks: 1 0e
LayerCount: 2
Fore
SplineSet
345 520 m 29xee
 575 520 l 25
 575 750 l 25
 635 750 l 25
 635 520 l 25
 805 520 l 25
 805 750 l 25
 865 750 l 25
 865 520 l 25
 1095 520 l 25
 1095 230 l 25
 1035 230 l 25
 1035 460 l 25
 635 460 l 25
 635 0 l 25
 575 0 l 25
 575 460 l 25
 345 460 l 25
 345 520 l 29xee
EndSplineSet
Validated: 1
EndChar

StartChar: uni3084
Encoding: 967 12420 967
Width: 1380
Flags: W
HStem: 0 21G<575 635> 460 60<1035 1265> 920 60<115 575 635 1035 1095 1265> 1190 20G<575 635 1035 1095>
VStem: 575 60<0 920 980 1210> 1035 60<980 1210> 1265 60<520 920>
LayerCount: 2
Fore
SplineSet
115 980 m 29
 575 980 l 25
 575 1210 l 25
 635 1210 l 25
 635 980 l 25
 1035 980 l 25
 1035 1210 l 25
 1095 1210 l 25
 1095 980 l 25
 1325 980 l 25
 1325 460 l 25
 1035 460 l 25
 1035 520 l 25
 1265 520 l 25
 1265 920 l 25
 635 920 l 25
 635 0 l 25
 575 0 l 25
 575 920 l 25
 115 920 l 25
 115 980 l 29
EndSplineSet
Validated: 1
EndChar

StartChar: uni3085
Encoding: 968 12421 968
Width: 1380
Flags: W
HStem: 0 21G<805 865> 230 60<575 805 865 1035> 460 60<405 805 865 1035> 730 20G<345 405 805 865> 730 20G<345 405 805 865>
VStem: 345 60<230 460 520 750> 805 60<0 230 290 460 520 750> 1035 60<290 460>
LayerCount: 2
Fore
SplineSet
865 460 m 29xe7
 865 290 l 25
 1035 290 l 25
 1035 460 l 25
 865 460 l 29xe7
345 750 m 25xf7
 405 750 l 25
 405 520 l 25
 805 520 l 25
 805 750 l 25
 865 750 l 25
 865 520 l 25
 1095 520 l 25
 1095 230 l 25
 865 230 l 25
 865 0 l 25
 805 0 l 25
 805 230 l 25
 575 230 l 25
 575 290 l 25
 805 290 l 25
 805 460 l 25
 405 460 l 25
 405 230 l 25
 345 230 l 25
 345 750 l 25xf7
EndSplineSet
Validated: 1
EndChar

StartChar: uni3086
Encoding: 969 12422 969
Width: 1380
Flags: W
HStem: 0 21G<805 865> 230 60<575 805 865 1265> 920 60<175 805 865 1265> 1190 20G<115 175 805 865>
VStem: 115 60<230 920 980 1210> 805 60<0 230 290 920 980 1210> 1265 60<290 920>
LayerCount: 2
Fore
SplineSet
865 920 m 29
 865 290 l 25
 1265 290 l 25
 1265 920 l 25
 865 920 l 29
115 1210 m 25
 175 1210 l 25
 175 980 l 25
 805 980 l 25
 805 1210 l 25
 865 1210 l 25
 865 980 l 25
 1325 980 l 25
 1325 230 l 25
 865 230 l 25
 865 0 l 25
 805 0 l 25
 805 230 l 25
 575 230 l 25
 575 290 l 25
 805 290 l 25
 805 920 l 25
 175 920 l 25
 175 230 l 25
 115 230 l 25
 115 1210 l 25
EndSplineSet
Validated: 1
EndChar

StartChar: uni3087
Encoding: 970 12423 970
Width: 1380
Flags: W
HStem: 0 60<405 805> 230 60<405 805 865 1095> 460 60<865 1095> 730 20G<805 865> 730 20G<805 865>
VStem: 345 60<60 230> 805 60<60 230 290 460 520 750>
LayerCount: 2
Fore
SplineSet
405 230 m 29xe6
 405 60 l 25
 805 60 l 25
 805 230 l 25
 405 230 l 29xe6
865 750 m 25xf6
 865 520 l 25
 1095 520 l 25
 1095 460 l 25
 865 460 l 25
 865 290 l 25
 1095 290 l 25
 1095 230 l 25
 865 230 l 25
 865 0 l 25
 345 0 l 25
 345 290 l 25
 805 290 l 25
 805 750 l 25
 865 750 l 25xf6
EndSplineSet
Validated: 1
EndChar

StartChar: uni3088
Encoding: 971 12424 971
Width: 1380
Flags: W
HStem: 0 60<175 805> 460 60<175 805 865 1325> 920 60<865 1325> 1190 20G<805 865>
VStem: 115 60<60 460> 805 60<60 460 520 920 980 1210>
LayerCount: 2
Fore
SplineSet
175 460 m 29
 175 60 l 25
 805 60 l 25
 805 460 l 25
 175 460 l 29
865 1210 m 25
 865 980 l 25
 1325 980 l 25
 1325 920 l 25
 865 920 l 25
 865 520 l 25
 1325 520 l 25
 1325 460 l 25
 865 460 l 25
 865 0 l 25
 115 0 l 25
 115 520 l 25
 805 520 l 25
 805 1210 l 25
 865 1210 l 25
EndSplineSet
Validated: 1
EndChar

StartChar: uni3089
Encoding: 972 12425 972
Width: 1380
Flags: W
HStem: 0 60<345 1035> 460 60<405 1035> 1150 60<575 1035>
VStem: 345 60<520 980> 1035 60<60 460 920 1150>
LayerCount: 2
Fore
SplineSet
405 980 m 29
 405 520 l 25
 1095 520 l 25
 1095 0 l 25
 345 0 l 25
 345 60 l 25
 1035 60 l 25
 1035 460 l 25
 345 460 l 25
 345 980 l 25
 405 980 l 29
1095 1210 m 25
 1095 920 l 25
 1035 920 l 25
 1035 1150 l 25
 575 1150 l 25
 575 1210 l 25
 1095 1210 l 25
EndSplineSet
Validated: 1
EndChar

StartChar: uni308A
Encoding: 973 12426 973
Width: 1380
Flags: W
HStem: 0 60<575 1035> 460 60<405 635> 1190 20G<345 405 1035 1095>
VStem: 345 60<520 1210> 1035 60<60 1210>
LayerCount: 2
Fore
SplineSet
1095 1210 m 29
 1095 0 l 25
 575 0 l 25
 575 60 l 25
 1035 60 l 25
 1035 1210 l 25
 1095 1210 l 29
405 1210 m 25
 405 520 l 25
 635 520 l 25
 635 460 l 25
 345 460 l 25
 345 1210 l 25
 405 1210 l 25
EndSplineSet
Validated: 1
EndChar

StartChar: uni308B
Encoding: 974 12427 974
Width: 1380
Flags: W
HStem: 0 60<635 1265> 460 60<115 345 635 1265> 690 60<405 1265> 920 60<405 805> 1150 60<115 805 865 1095>
VStem: 345 60<520 690 750 920> 575 60<60 460> 805 60<980 1150> 1265 60<60 460 520 690>
LayerCount: 2
Fore
SplineSet
635 460 m 29
 635 60 l 25
 1265 60 l 25
 1265 460 l 25
 635 460 l 29
115 1210 m 25
 1095 1210 l 25
 1095 1150 l 25
 865 1150 l 25
 865 920 l 25
 405 920 l 25
 405 750 l 25
 1325 750 l 25
 1325 0 l 25
 575 0 l 1
 575 520 l 25
 1265 520 l 25
 1265 690 l 1
 405 690 l 25
 405 460 l 25
 115 460 l 25
 115 520 l 25
 345 520 l 25
 345 980 l 25
 805 980 l 25
 805 1150 l 25
 115 1150 l 25
 115 1210 l 25
EndSplineSet
Validated: 1
EndChar

StartChar: uni308C
Encoding: 975 12428 975
Width: 1380
Flags: W
HStem: 0 60<1095 1325> 230 60<115 345> 690 60<405 1035> 920 60<115 345> 1190 20G<345 405>
VStem: 345 60<0 230 290 690 750 920 980 1210> 1035 60<60 690>
LayerCount: 2
Fore
SplineSet
405 1210 m 25
 405 750 l 25
 1095 750 l 1
 1095 60 l 29
 1325 60 l 29
 1325 0 l 5
 1035 0 l 29
 1035 690 l 1
 405 690 l 25
 405 0 l 25
 345 0 l 25
 345 230 l 25
 115 230 l 25
 115 290 l 25
 345 290 l 25
 345 920 l 25
 115 920 l 25
 115 980 l 25
 345 980 l 25
 345 1210 l 25
 405 1210 l 25
EndSplineSet
Validated: 1
EndChar

StartChar: uni308D
Encoding: 976 12429 976
Width: 1380
Flags: W
HStem: 0 60<575 1265> 460 60<115 345> 690 60<405 1265> 920 60<405 805> 1150 60<115 805 865 1095>
VStem: 345 60<520 690 750 920> 805 60<980 1150> 1265 60<60 690>
CounterMasks: 1 07
LayerCount: 2
Fore
SplineSet
115 1210 m 29
 1095 1210 l 25
 1095 1150 l 25
 865 1150 l 25
 865 920 l 25
 405 920 l 25
 405 750 l 25
 1325 750 l 25
 1325 0 l 25
 575 0 l 25
 575 60 l 25
 1265 60 l 25
 1265 690 l 25
 405 690 l 25
 405 460 l 25
 115 460 l 25
 115 520 l 25
 345 520 l 25
 345 980 l 25
 805 980 l 25
 805 1150 l 25
 115 1150 l 25
 115 1210 l 29
EndSplineSet
Validated: 1
EndChar

StartChar: uni308E
Encoding: 977 12430 977
Width: 1380
Flags: W
HStem: 0 60<805 1035> 230 60<345 575> 460 60<345 575 635 1035> 730 20G<575 635> 730 20G<575 635>
VStem: 575 60<0 230 290 460 520 750> 1035 60<60 460>
LayerCount: 2
Fore
SplineSet
635 750 m 29xf6
 635 520 l 25
 1095 520 l 25
 1095 0 l 25
 805 0 l 25
 805 60 l 25
 1035 60 l 25
 1035 460 l 25
 635 460 l 25
 635 0 l 25
 575 0 l 25
 575 230 l 25
 345 230 l 25
 345 290 l 25
 575 290 l 25
 575 460 l 25
 345 460 l 25
 345 520 l 25
 575 520 l 25
 575 750 l 25
 635 750 l 29xf6
EndSplineSet
Validated: 1
EndChar

StartChar: uni308F
Encoding: 978 12431 978
Width: 1380
Flags: W
HStem: 0 60<1035 1265> 230 60<115 345> 690 60<405 1265> 920 60<115 345> 1190 20G<345 405>
VStem: 345 60<0 230 290 690 750 920 980 1210> 1265 60<60 690>
LayerCount: 2
Fore
SplineSet
405 1210 m 25
 405 750 l 1
 1325 750 l 1
 1325 0 l 5
 1035 0 l 1
 1035 60 l 1
 1265 60 l 1
 1265 690 l 1
 405 690 l 1
 405 0 l 25
 345 0 l 25
 345 230 l 25
 115 230 l 25
 115 290 l 25
 345 290 l 25
 345 920 l 25
 115 920 l 25
 115 980 l 25
 345 980 l 25
 345 1210 l 25
 405 1210 l 25
EndSplineSet
Validated: 1
EndChar

StartChar: uni3090
Encoding: 979 12432 979
Width: 1380
Flags: W
HStem: 0 60<175 575 865 1265> 460 60<865 1265> 690 60<175 575 635 1265> 1150 60<115 575>
VStem: 115 60<60 690> 575 60<60 690 750 1150> 805 60<60 460> 1265 60<60 460 520 690>
LayerCount: 2
Fore
SplineSet
865 460 m 29
 865 60 l 25
 1265 60 l 25
 1265 460 l 25
 865 460 l 29
175 690 m 25
 175 60 l 25
 575 60 l 25
 575 690 l 25
 175 690 l 25
115 1210 m 25
 635 1210 l 25
 635 750 l 25
 1325 750 l 25
 1325 0 l 25
 805 0 l 25
 805 520 l 25
 1265 520 l 25
 1265 690 l 25
 635 690 l 25
 635 0 l 25
 115 0 l 25
 115 750 l 25
 575 750 l 25
 575 1150 l 25
 115 1150 l 25
 115 1210 l 25
EndSplineSet
Validated: 1
EndChar

StartChar: uni3091
Encoding: 980 12433 980
Width: 1380
Flags: W
HStem: 0 290<115 175 805 865 1265 1325> 230 60<175 345 405 805 865 1265> 460 60<175 345 405 575 635 1035> 690 60<175 575> 920 60<575 805 865 1035> 1150 60<345 805 865 1095>
VStem: 115 60<0 230 520 690> 345 60<290 460> 575 60<520 690> 805 60<0 230 980 1150> 1035 60<520 920> 1265 60<0 230>
LayerCount: 2
Fore
SplineSet
175 690 m 25x3ff0
 175 520 l 25
 575 520 l 25
 575 690 l 25
 175 690 l 25x3ff0
345 1210 m 25
 1095 1210 l 25
 1095 1150 l 25
 865 1150 l 25
 865 980 l 25
 1095 980 l 25
 1095 460 l 25
 405 460 l 25
 405 290 l 25x7ff0
 1325 290 l 25
 1325 0 l 25
 1265 0 l 25xbff0
 1265 230 l 1
 865 230 l 29x7ff0
 865 0 l 29
 805 0 l 29xbff0
 805 230 l 29
 175 230 l 1x7ff0
 175 0 l 25
 115 0 l 25
 115 290 l 25xbff0
 345 290 l 25x7ff0
 345 460 l 25
 115 460 l 25
 115 750 l 25
 635 750 l 25
 635 520 l 25
 1035 520 l 25
 1035 920 l 25
 575 920 l 25
 575 980 l 25
 805 980 l 25
 805 1150 l 25
 345 1150 l 25
 345 1210 l 25
EndSplineSet
Validated: 1
EndChar

StartChar: uni3092
Encoding: 981 12434 981
Width: 1380
Flags: W
HStem: 0 60<405 1325> 460 60<405 805 865 1325> 690 60<405 805> 920 60<115 345 405 1095> 1190 20G<345 405>
VStem: 345 60<60 460 750 920 980 1210> 805 60<230 460 520 690>
LayerCount: 2
Fore
SplineSet
405 1210 m 29
 405 980 l 25
 1095 980 l 25
 1095 920 l 25
 405 920 l 25
 405 750 l 25
 865 750 l 25
 865 520 l 25
 1325 520 l 25
 1325 460 l 25
 865 460 l 25
 865 230 l 25
 805 230 l 25
 805 460 l 25
 405 460 l 25
 405 60 l 25
 1325 60 l 25
 1325 0 l 25
 345 0 l 25
 345 520 l 25
 805 520 l 25
 805 690 l 25
 345 690 l 25
 345 920 l 25
 115 920 l 25
 115 980 l 25
 345 980 l 25
 345 1210 l 25
 405 1210 l 29
EndSplineSet
Validated: 1
EndChar

StartChar: uni3093
Encoding: 982 12435 982
Width: 1380
Flags: W
HStem: 0 60<635 1265> 460 60<175 575> 1190 20G<115 175>
VStem: 115 60<0 460 520 1210> 575 60<60 460> 1265 60<60 520>
LayerCount: 2
Fore
SplineSet
175 1210 m 29
 175 520 l 25
 635 520 l 25
 635 60 l 25
 1265 60 l 25
 1265 520 l 25
 1325 520 l 25
 1325 0 l 25
 575 0 l 25
 575 460 l 25
 175 460 l 25
 175 0 l 25
 115 0 l 25
 115 1210 l 25
 175 1210 l 29
EndSplineSet
Validated: 1
EndChar

StartChar: uni3094
Encoding: 983 12436 983
Width: 1380
Flags: W
HStem: 0 60<805 1035> 690 60<345 1035> 920 290<805 865 1035 1095 1265 1325> 1150 60<575 805>
VStem: 805 60<920 1150> 1035 60<60 690 920 1210> 1265 60<920 1210>
CounterMasks: 1 0e
LayerCount: 2
Fore
SplineSet
1265 1210 m 29xee
 1325 1210 l 25
 1325 920 l 25
 1265 920 l 25
 1265 1210 l 29xee
1035 1210 m 25
 1095 1210 l 25
 1095 920 l 25
 1035 920 l 25
 1035 1210 l 25
345 750 m 25
 1095 750 l 25
 1095 0 l 25
 805 0 l 25
 805 60 l 25
 1035 60 l 25
 1035 690 l 25
 345 690 l 25
 345 750 l 25
575 1210 m 25xde
 865 1210 l 25
 865 920 l 25
 805 920 l 25xee
 805 1150 l 25
 575 1150 l 25
 575 1210 l 25xde
EndSplineSet
Validated: 1
EndChar

StartChar: uni3095
Encoding: 984 12437 984
Width: 1380
Flags: W
HStem: 0 21G<575 635 805 865> 460 60<345 575 635 805> 730 20G<575 635 1035 1095> 730 20G<575 635 1035 1095>
VStem: 575 60<0 460 520 750> 805 60<0 460> 1035 60<230 750>
CounterMasks: 1 0e
LayerCount: 2
Fore
SplineSet
1035 750 m 29xee
 1095 750 l 25
 1095 230 l 25
 1035 230 l 25
 1035 750 l 29xee
635 750 m 25
 635 520 l 25
 865 520 l 25
 865 0 l 25
 805 0 l 25
 805 460 l 25
 635 460 l 25
 635 0 l 25
 575 0 l 25
 575 460 l 25
 345 460 l 25
 345 520 l 25
 575 520 l 25
 575 750 l 25
 635 750 l 25
EndSplineSet
Validated: 1
EndChar

StartChar: uni3096
Encoding: 985 12438 985
Width: 1380
Flags: W
HStem: 0 21G<345 405 805 865> 460 60<575 805 865 1095> 730 20G<345 405 805 865> 730 20G<345 405 805 865>
VStem: 345 60<0 750> 805 60<0 460 520 750>
LayerCount: 2
Fore
SplineSet
575 520 m 29xec
 805 520 l 25
 805 750 l 25
 865 750 l 25
 865 520 l 25
 1095 520 l 25
 1095 460 l 25
 865 460 l 25
 865 0 l 25
 805 0 l 25
 805 460 l 25
 575 460 l 25
 575 520 l 29xec
345 750 m 25
 405 750 l 25
 405 0 l 25
 345 0 l 25
 345 750 l 25
EndSplineSet
Validated: 1
EndChar

StartChar: uni30A4
Encoding: 988 12452 988
Width: 1380
Flags: W
HStem: 0 21G<805 865> 460 60<115 805 865 1035> 690 60<1095 1265> 1190 20G<1265 1325>
VStem: 805 60<0 460> 1035 60<520 690> 1265 60<750 1210>
CounterMasks: 1 0e
LayerCount: 2
Fore
SplineSet
1265 1210 m 29
 1325 1210 l 25
 1325 690 l 25
 1095 690 l 25
 1095 460 l 25
 865 460 l 25
 865 0 l 25
 805 0 l 25
 805 460 l 25
 115 460 l 25
 115 520 l 25
 1035 520 l 25
 1035 750 l 25
 1265 750 l 25
 1265 1210 l 29
EndSplineSet
Validated: 1
EndChar

StartChar: uni30A6
Encoding: 990 12454 990
Width: 1380
Flags: W
HStem: 0 60<575 1035> 230 60<1095 1265> 920 60<175 805 865 1265> 1190 20G<805 865>
VStem: 115 60<690 920> 805 60<980 1210> 1035 60<60 230> 1265 60<290 920>
LayerCount: 2
Fore
SplineSet
175 920 m 29
 175 690 l 25
 115 690 l 25
 115 980 l 25
 805 980 l 25
 805 1210 l 25
 865 1210 l 25
 865 980 l 25
 1325 980 l 25
 1325 230 l 25
 1095 230 l 25
 1095 0 l 25
 575 0 l 25
 575 60 l 25
 1035 60 l 25
 1035 290 l 25
 1265 290 l 25
 1265 920 l 25
 175 920 l 29
EndSplineSet
Validated: 1
EndChar

StartChar: uni30AD
Encoding: 997 12461 997
Width: 1380
Flags: W
HStem: 0 21G<805 865> 460 60<345 805 865 1325> 920 60<115 805 865 1095> 1190 20G<805 865>
VStem: 805 60<0 460 520 920 980 1210>
LayerCount: 2
Fore
SplineSet
115 980 m 29
 805 980 l 25
 805 1210 l 25
 865 1210 l 25
 865 980 l 25
 1095 980 l 25
 1095 920 l 25
 865 920 l 25
 865 520 l 25
 1325 520 l 25
 1325 460 l 25
 865 460 l 25
 865 0 l 25
 805 0 l 25
 805 460 l 25
 345 460 l 25
 345 520 l 25
 805 520 l 25
 805 920 l 25
 115 920 l 25
 115 980 l 29
EndSplineSet
Validated: 1
EndChar

StartChar: uni30B3
Encoding: 1003 12467 1003
Width: 1380
Flags: W
HStem: 0 60<115 1035> 1150 60<115 1035>
VStem: 1035 60<60 1150>
LayerCount: 2
Fore
SplineSet
115 1210 m 29
 1095 1210 l 25
 1095 0 l 25
 115 0 l 25
 115 60 l 25
 1035 60 l 25
 1035 1150 l 25
 115 1150 l 25
 115 1210 l 29
EndSplineSet
Validated: 1
EndChar

StartChar: uni30B4
Encoding: 1004 12468 1004
Width: 1380
Flags: W
HStem: 0 60<115 1035> 1150 60<115 1035>
VStem: 1035 60<60 1150> 1265 60<920 1210>
LayerCount: 2
Fore
SplineSet
1325 1210 m 29
 1325 920 l 25
 1265 920 l 25
 1265 1210 l 25
 1325 1210 l 29
115 1210 m 25
 1095 1210 l 25
 1095 0 l 25
 115 0 l 25
 115 60 l 25
 1035 60 l 25
 1035 1150 l 25
 115 1150 l 25
 115 1210 l 25
EndSplineSet
Validated: 1
EndChar

StartChar: uni30B7
Encoding: 1007 12471 1007
Width: 1380
Flags: W
HStem: 0 60<115 1035> 230 60<1095 1265> 690 60<115 865> 1150 60<115 865>
VStem: 1035 60<60 230> 1265 60<290 980>
LayerCount: 2
Fore
SplineSet
1265 980 m 25
 1325 980 l 25
 1325 230 l 25
 1095 230 l 25
 1095 0 l 25
 115 0 l 25
 115 60 l 25
 1035 60 l 25
 1035 290 l 25
 1265 290 l 25
 1265 980 l 25
115 750 m 29
 865 750 l 29
 865 690 l 29
 115 690 l 29
 115 750 l 29
115 1210 m 25
 865 1210 l 25
 865 1150 l 25
 115 1150 l 25
 115 1210 l 25
EndSplineSet
Validated: 1
EndChar

StartChar: uni30B9
Encoding: 1009 12473 1009
Width: 1380
Flags: W
HStem: 0 60<115 345 1095 1325> 230 60<405 575> 460 60<805 1035> 690 60<635 1035> 920 60<1095 1265> 1150 60<115 1265>
VStem: 345 60<60 230> 575 60<290 690> 1035 60<60 460 750 920> 1265 60<980 1150>
LayerCount: 2
Fore
SplineSet
805 520 m 1
 1095 520 l 1
 1095 60 l 25
 1325 60 l 25
 1325 0 l 25
 1035 0 l 1
 1035 460 l 5
 805 460 l 1
 805 520 l 1
115 1210 m 25
 1325 1210 l 25
 1325 920 l 25
 1095 920 l 25
 1095 690 l 25
 635 690 l 25
 635 230 l 25
 405 230 l 25
 405 0 l 25
 115 0 l 25
 115 60 l 25
 345 60 l 25
 345 290 l 25
 575 290 l 25
 575 750 l 25
 1035 750 l 25
 1035 980 l 25
 1265 980 l 25
 1265 1150 l 25
 115 1150 l 25
 115 1210 l 25
EndSplineSet
Validated: 1
EndChar

StartChar: uni30BF
Encoding: 1015 12479 1015
Width: 1380
Flags: W
HStem: 0 60<345 805> 230 60<865 1035> 460 60<575 865 1095 1265> 690 60<115 345> 920 60<405 1265> 1190 20G<345 405>
VStem: 345 60<750 920 980 1210> 805 60<60 230> 1035 60<290 460> 1265 60<520 920>
LayerCount: 2
Fore
SplineSet
575 520 m 25
 865 520 l 1
 865 460 l 1
 575 460 l 25
 575 520 l 25
345 1210 m 1
 405 1210 l 25
 405 980 l 25
 1325 980 l 1
 1325 460 l 25
 1095 460 l 25
 1095 230 l 25
 865 230 l 25
 865 0 l 25
 345 0 l 25
 345 60 l 25
 805 60 l 25
 805 290 l 25
 1035 290 l 25
 1035 520 l 25
 1265 520 l 25
 1265 920 l 1
 405 920 l 25
 405 690 l 1
 115 690 l 1
 115 750 l 5
 345 750 l 1
 345 1210 l 1
EndSplineSet
Validated: 1
EndChar

StartChar: uni30D2
Encoding: 1034 12498 1034
Width: 1380
Flags: W
HStem: 0 60<175 1325> 690 60<175 1095> 1190 20G<115 175>
VStem: 115 60<60 690 750 1210>
LayerCount: 2
Fore
SplineSet
115 1210 m 29
 175 1210 l 25
 175 750 l 25
 1095 750 l 25
 1095 690 l 25
 175 690 l 25
 175 60 l 25
 1325 60 l 25
 1325 0 l 25
 115 0 l 25
 115 1210 l 29
EndSplineSet
Validated: 1
EndChar

StartChar: uni30D3
Encoding: 1035 12499 1035
Width: 1380
Flags: W
HStem: 0 60<175 1325> 690 60<175 1095> 1190 20G<115 175 1035 1095 1265 1325>
VStem: 115 60<60 690 750 1210> 1035 60<920 1210> 1265 60<920 1210>
LayerCount: 2
Fore
SplineSet
1325 1210 m 29
 1325 920 l 25
 1265 920 l 25
 1265 1210 l 25
 1325 1210 l 29
1095 1210 m 25
 1095 920 l 25
 1035 920 l 25
 1035 1210 l 25
 1095 1210 l 25
115 1210 m 25
 175 1210 l 25
 175 750 l 25
 1095 750 l 25
 1095 690 l 25
 175 690 l 25
 175 60 l 25
 1325 60 l 25
 1325 0 l 25
 115 0 l 25
 115 1210 l 25
EndSplineSet
Validated: 1
EndChar

StartChar: uni30D4
Encoding: 1036 12500 1036
Width: 1380
Flags: W
HStem: 0 60<175 1325> 690 60<175 1095> 920 60<1095 1265> 1150 60<1095 1265>
VStem: 115 60<60 690 750 1210> 1035 60<980 1150> 1265 60<980 1150>
LayerCount: 2
Fore
SplineSet
1095 1150 m 29
 1095 980 l 25
 1265 980 l 25
 1265 1150 l 25
 1095 1150 l 29
1325 1210 m 25
 1325 920 l 25
 1035 920 l 25
 1035 1210 l 25
 1325 1210 l 25
115 1210 m 25
 175 1210 l 25
 175 750 l 25
 1095 750 l 25
 1095 690 l 25
 175 690 l 25
 175 60 l 25
 1325 60 l 25
 1325 0 l 25
 115 0 l 25
 115 1210 l 25
EndSplineSet
Validated: 1
EndChar

StartChar: uni30D8
Encoding: 1040 12504 1040
Width: 1380
Flags: W
HStem: 230 60<865 1325> 460 60<635 805> 690 60<175 575>
VStem: 115 60<230 690> 575 60<520 690> 805 60<290 460>
CounterMasks: 1 e0
LayerCount: 2
Fore
SplineSet
115 230 m 29
 115 750 l 25
 635 750 l 25
 635 520 l 25
 865 520 l 25
 865 290 l 25
 1325 290 l 25
 1325 230 l 25
 805 230 l 25
 805 460 l 25
 575 460 l 25
 575 690 l 25
 175 690 l 25
 175 230 l 25
 115 230 l 29
EndSplineSet
Validated: 1
EndChar

StartChar: uni30D9
Encoding: 1041 12505 1041
Width: 1380
Flags: W
HStem: 230 60<865 1325> 460 60<635 805> 690 60<175 575>
VStem: 115 60<230 690> 575 60<520 690> 805 60<290 460> 1035 60<690 980> 1265 60<690 980>
CounterMasks: 1 e0
LayerCount: 2
Fore
SplineSet
1265 980 m 29
 1325 980 l 25
 1325 690 l 25
 1265 690 l 25
 1265 980 l 29
1035 980 m 25
 1095 980 l 25
 1095 690 l 25
 1035 690 l 25
 1035 980 l 25
115 230 m 25
 115 750 l 25
 635 750 l 25
 635 520 l 25
 865 520 l 25
 865 290 l 25
 1325 290 l 25
 1325 230 l 25
 805 230 l 25
 805 460 l 25
 575 460 l 25
 575 690 l 25
 175 690 l 25
 175 230 l 25
 115 230 l 25
EndSplineSet
Validated: 1
EndChar

StartChar: uni30DA
Encoding: 1042 12506 1042
Width: 1380
Flags: W
HStem: 230 60<865 1325> 460 60<635 805> 690 60<175 575 1095 1265> 920 60<1095 1265>
VStem: 115 60<230 690> 575 60<520 690> 805 60<290 460> 1035 60<750 920> 1265 60<750 920>
LayerCount: 2
Fore
SplineSet
1095 920 m 29
 1095 750 l 25
 1265 750 l 25
 1265 920 l 25
 1095 920 l 29
1035 980 m 25
 1325 980 l 25
 1325 690 l 25
 1035 690 l 25
 1035 980 l 25
115 230 m 25
 115 750 l 25
 635 750 l 25
 635 520 l 25
 865 520 l 25
 865 290 l 25
 1325 290 l 25
 1325 230 l 25
 805 230 l 25
 805 460 l 25
 575 460 l 25
 575 690 l 25
 175 690 l 25
 175 230 l 25
 115 230 l 25
EndSplineSet
Validated: 1
EndChar

StartChar: uni30DC
Encoding: 1044 12508 1044
Width: 1380
Flags: W
HStem: 0 21G<575 635> 730 20G<115 175 1035 1095> 730 20G<115 175 1035 1095> 920 60<115 575 635 1035> 1190 20G<575 635 1035 1095 1265 1325>
VStem: 115 60<230 750> 575 60<0 920 980 1210> 1035 60<230 750 980 1210> 1265 60<920 1210>
LayerCount: 2
Fore
SplineSet
1265 1210 m 29x9f80
 1325 1210 l 25
 1325 920 l 25
 1265 920 l 25
 1265 1210 l 29x9f80
1035 750 m 25xdf80
 1095 750 l 25
 1095 230 l 25
 1035 230 l 25
 1035 750 l 25xdf80
115 750 m 25
 175 750 l 25
 175 230 l 25
 115 230 l 25
 115 750 l 25
115 980 m 25
 575 980 l 25
 575 1210 l 25
 635 1210 l 25
 635 980 l 25
 1035 980 l 25
 1035 1210 l 25
 1095 1210 l 25
 1095 920 l 25
 635 920 l 25
 635 0 l 25
 575 0 l 25
 575 920 l 25
 115 920 l 25
 115 980 l 25
EndSplineSet
Validated: 1
EndChar

StartChar: uni30E5
Encoding: 1053 12517 1053
Width: 1380
Flags: W
HStem: 0 60<345 575 635 865> 460 60<345 575>
VStem: 575 60<60 460>
LayerCount: 2
Fore
SplineSet
345 520 m 29
 635 520 l 29
 635 60 l 29
 865 60 l 29
 865 0 l 29
 345 0 l 29
 345 60 l 29
 575 60 l 29
 575 460 l 29
 345 460 l 29
 345 520 l 29
EndSplineSet
Validated: 1
EndChar

StartChar: uni30EB
Encoding: 1059 12523 1059
Width: 1380
Flags: W
HStem: 0 60<115 345 865 1035> 230 60<1095 1265> 1190 20G<345 405 805 865>
VStem: 345 60<60 1210> 805 60<60 1210> 1035 60<60 230> 1265 60<290 520>
LayerCount: 2
Fore
SplineSet
805 1210 m 29
 865 1210 l 25
 865 60 l 25
 1035 60 l 25
 1035 290 l 25
 1265 290 l 25
 1265 520 l 25
 1325 520 l 25
 1325 230 l 25
 1095 230 l 25
 1095 0 l 25
 805 0 l 25
 805 1210 l 29
345 1210 m 25
 405 1210 l 25
 405 0 l 25
 115 0 l 25
 115 60 l 25
 345 60 l 25
 345 1210 l 25
EndSplineSet
Validated: 1
EndChar

StartChar: uni30F3
Encoding: 1067 12531 1067
Width: 1380
Flags: W
HStem: 0 60<115 805> 230 60<865 1035> 460 60<1095 1265> 920 60<115 865> 1190 20G<1265 1325>
VStem: 805 60<60 230> 1035 60<290 460> 1265 60<520 1210>
CounterMasks: 1 07
LayerCount: 2
Fore
SplineSet
115 980 m 1
 865 980 l 29
 865 920 l 29
 115 920 l 1
 115 980 l 1
1325 1210 m 25
 1325 460 l 25
 1095 460 l 25
 1095 230 l 25
 865 230 l 25
 865 0 l 25
 115 0 l 25
 115 60 l 25
 805 60 l 25
 805 290 l 25
 1035 290 l 25
 1035 520 l 25
 1265 520 l 25
 1265 1210 l 25
 1325 1210 l 25
EndSplineSet
Validated: 1
EndChar

StartChar: uni30FC
Encoding: 1078 12540 1078
Width: 1380
Flags: W
HStem: 690 60<115 1325>
LayerCount: 2
Fore
SplineSet
115 750 m 29
 1325 750 l 25
 1325 690 l 25
 115 690 l 25
 115 750 l 29
EndSplineSet
Validated: 1
EndChar

StartChar: uni3002
Encoding: 1087 12290 1087
Width: 1380
Flags: HW
HStem: 0 60<175 345> 230 60<175 345>
VStem: 115 60<60 230> 345 60<60 230>
LayerCount: 2
Fore
SplineSet
175 230 m 29
 175 60 l 25
 345 60 l 25
 345 230 l 25
 175 230 l 29
115 290 m 25
 405 290 l 25
 405 0 l 25
 115 0 l 25
 115 290 l 25
EndSplineSet
Validated: 1
EndChar

StartChar: uni3001
Encoding: 1088 12289 1088
Width: 1380
Flags: HW
HStem: 0 60<405 635> 230 60<115 345>
VStem: 345 60<60 230>
LayerCount: 2
Fore
SplineSet
115 290 m 25
 405 290 l 1
 405 60 l 1
 635 60 l 1
 635 0 l 5
 345 0 l 1
 345 230 l 25
 115 230 l 25
 115 290 l 25
EndSplineSet
Validated: 1
EndChar

StartChar: uni3004
Encoding: 1089 12292 1089
Width: 2048
HStem: 0 60<175 575 805 1265> 230 60<405 575> 460 60<405 805> 690 60<865 1035> 1150 60<175 865 1095 1265>
VStem: 115 60<60 1150> 345 60<290 460> 575 60<60 230> 805 60<520 690 750 980> 1035 60<750 1150> 1265 60<60 1150>
LayerCount: 2
Fore
SplineSet
865 1210 m 29
 865 1150 l 29
 175 1150 l 1
 175 60 l 25
 575 60 l 25
 575 230 l 25
 345 230 l 25
 345 520 l 25
 805 520 l 25
 805 980 l 25
 865 980 l 25
 865 750 l 25
 1035 750 l 25
 1035 1210 l 25
 1325 1210 l 25
 1325 0 l 25
 805 0 l 25
 805 60 l 25
 1265 60 l 25
 1265 1150 l 25
 1095 1150 l 25
 1095 690 l 25
 865 690 l 25
 865 460 l 25
 405 460 l 25
 405 290 l 25
 635 290 l 25
 635 0 l 25
 115 0 l 25
 115 1210 l 1
 865 1210 l 29
EndSplineSet
Validated: 1
EndChar

StartChar: uni4E16
Encoding: 1090 19990 1090
Width: 1380
Flags: W
HStem: 0 60<405 1325> 460 60<695 1035> 920 60<115 345 405 635 695 1035 1095 1325> 1190 20G<345 405 635 695 1035 1095>
VStem: 345 60<60 920 980 1210> 635 60<520 920 980 1210> 1035 60<520 920 980 1210>
LayerCount: 2
Fore
SplineSet
695 920 m 29
 695 520 l 29
 1035 520 l 1
 1035 920 l 1
 695 920 l 29
1095 1210 m 25
 1095 980 l 25
 1325 980 l 25
 1325 920 l 25
 1095 920 l 25
 1095 460 l 1
 635 460 l 29
 635 920 l 29
 405 920 l 1
 405 60 l 25
 1325 60 l 25
 1325 0 l 25
 345 0 l 25
 345 920 l 25
 115 920 l 25
 115 980 l 25
 345 980 l 25
 345 1210 l 25
 405 1210 l 25
 405 980 l 1
 635 980 l 29
 635 1210 l 29
 695 1210 l 29
 695 980 l 29
 1035 980 l 1
 1035 1210 l 25
 1095 1210 l 25
EndSplineSet
Validated: 1
EndChar

StartChar: uni5E83
Encoding: 1091 24195 1091
Width: 1380
Flags: W
HStem: 0 60<405 1035> 460 60<405 575> 730 20G<575 635> 730 20G<575 635> 920 60<175 805 865 1325> 1190 20G<805 865>
VStem: 115 60<0 920> 345 60<60 460> 575 60<520 750> 805 60<980 1210> 1035 60<60 520>
LayerCount: 2
Fore
SplineSet
635 750 m 1xefe0
 635 460 l 1
 405 460 l 1
 405 60 l 1
 1035 60 l 1
 1035 520 l 25
 1095 520 l 25
 1095 0 l 25
 345 0 l 1
 345 520 l 1
 575 520 l 1
 575 750 l 1
 635 750 l 1xefe0
865 1210 m 25
 865 980 l 25
 1325 980 l 25
 1325 920 l 25
 175 920 l 1
 175 0 l 29
 115 0 l 29
 115 980 l 1
 805 980 l 25
 805 1210 l 25
 865 1210 l 25
EndSplineSet
Validated: 1
EndChar

StartChar: uni754C
Encoding: 1092 30028 1092
Width: 1380
Flags: W
HStem: 0 60<345 575> 460 60<115 345 1095 1325> 690 60<175 345 405 575 635 1035 1095 1265> 920 60<175 575 635 1265> 1150 60<175 575 635 1265>
VStem: 115 60<750 920 980 1150> 345 60<520 690> 575 60<60 520 750 920 980 1150> 805 60<0 520> 1035 60<520 690> 1265 60<750 920 980 1150>
LayerCount: 2
Fore
SplineSet
635 1150 m 29
 635 980 l 25
 1265 980 l 25
 1265 1150 l 25
 635 1150 l 29
175 920 m 25
 175 750 l 25
 575 750 l 25
 575 920 l 25
 175 920 l 25
635 920 m 25
 635 750 l 25
 1265 750 l 25
 1265 920 l 25
 635 920 l 25
175 1150 m 25
 175 980 l 25
 575 980 l 25
 575 1150 l 25
 175 1150 l 25
805 520 m 25
 865 520 l 25
 865 0 l 25
 805 0 l 25
 805 520 l 25
575 520 m 25
 635 520 l 25
 635 0 l 25
 345 0 l 25
 345 60 l 25
 575 60 l 25
 575 520 l 25
1325 1210 m 25
 1325 690 l 25
 1095 690 l 25
 1095 520 l 25
 1325 520 l 25
 1325 460 l 25
 1035 460 l 25
 1035 690 l 25
 405 690 l 25
 405 460 l 25
 115 460 l 25
 115 520 l 25
 345 520 l 25
 345 690 l 25
 115 690 l 25
 115 1210 l 25
 1325 1210 l 25
EndSplineSet
Validated: 1
EndChar

StartChar: uni9152
Encoding: 1093 37202 1093
Width: 1380
Flags: W
HStem: 0 60<115 345 635 1265> 230 60<635 1265> 460 60<1095 1265> 730 20G<345 405> 730 20G<345 405> 920 60<115 405 635 805 865 1035 1095 1265> 1150 60<115 405 575 805 865 1035 1095 1325>
VStem: 115 290<0 60 920 980 1150 1210> 345 60<60 750> 575 60<60 230 290 920> 805 60<460 920 980 1150> 1035 60<520 920 980 1150> 1265 60<60 230 290 460 520 920>
LayerCount: 2
Fore
SplineSet
1095 920 m 29xe678
 1095 520 l 25
 1265 520 l 25
 1265 920 l 25
 1095 920 l 29xe678
635 920 m 25
 635 290 l 25
 1265 290 l 25
 1265 460 l 25
 1035 460 l 25
 1035 920 l 25
 865 920 l 25
 865 460 l 25
 805 460 l 25
 805 920 l 25
 635 920 l 25
635 230 m 25
 635 60 l 25
 1265 60 l 25
 1265 230 l 25
 635 230 l 25
865 1150 m 25
 865 980 l 25
 1035 980 l 25
 1035 1150 l 25
 865 1150 l 25
575 1210 m 25
 1325 1210 l 25
 1325 1150 l 25
 1095 1150 l 25
 1095 980 l 25
 1325 980 l 25
 1325 0 l 25
 575 0 l 25
 575 980 l 25
 805 980 l 25
 805 1150 l 25
 575 1150 l 25
 575 1210 l 25
345 750 m 25xf6f8
 405 750 l 25xf6f8
 405 0 l 25
 115 0 l 25
 115 60 l 25xf778
 345 60 l 25
 345 750 l 25xf6f8
115 980 m 25xe778
 405 980 l 25
 405 920 l 25
 115 920 l 25
 115 980 l 25xe778
115 1210 m 25
 405 1210 l 25
 405 1150 l 25
 115 1150 l 25
 115 1210 l 25
EndSplineSet
Validated: 1
EndChar

StartChar: uni6D0B
Encoding: 1094 27915 1094
Width: 1380
Flags: W
HStem: 0 60<115 345> 460 60<575 1035 1095 1325> 690 60<575 1035 1095 1325> 920 60<115 405 575 805 865 1035 1095 1325> 1150 60<115 405>
VStem: 115 290<0 60 920 980 1150 1210> 345 60<60 750> 805 60<980 1210> 1035 60<0 460 520 690 750 920 980 1210>
LayerCount: 2
Fore
SplineSet
1095 1210 m 29xf980
 1095 980 l 25
 1325 980 l 25
 1325 920 l 25
 1095 920 l 25
 1095 750 l 25
 1325 750 l 25
 1325 690 l 25
 1095 690 l 25
 1095 520 l 25
 1325 520 l 25
 1325 460 l 25
 1095 460 l 25
 1095 0 l 25
 1035 0 l 25
 1035 460 l 25
 575 460 l 25
 575 520 l 25
 1035 520 l 25
 1035 690 l 25
 575 690 l 25
 575 750 l 25
 1035 750 l 25
 1035 920 l 25
 575 920 l 25
 575 980 l 25
 805 980 l 25
 805 1210 l 25
 865 1210 l 25
 865 980 l 25
 1035 980 l 25
 1035 1210 l 25
 1095 1210 l 29xf980
405 750 m 25xfb80
 405 0 l 25
 115 0 l 25
 115 60 l 25xfd80
 345 60 l 25
 345 750 l 25
 405 750 l 25xfb80
115 980 m 25
 405 980 l 25
 405 920 l 25
 115 920 l 25
 115 980 l 25
115 1210 m 25
 405 1210 l 25
 405 1150 l 25
 115 1150 l 25
 115 1210 l 25
EndSplineSet
Validated: 1
EndChar

StartChar: uni8AB0
Encoding: 1095 35504 1095
Width: 1380
Flags: W
HStem: 0 60<175 575 865 1035 1095 1325> 230 60<175 575> 460 60<115 635 865 1035 1095 1325> 690 60<115 635 865 1035 1095 1325> 920 60<115 345 405 635 865 1035 1095 1325> 1190 20G<345 405 805 865 1035 1095>
VStem: 115 60<60 230> 345 60<980 1210> 575 60<60 230> 805 60<60 460 520 690 750 920 980 1210> 1035 60<60 460 520 690 750 920 980 1210>
LayerCount: 2
Fore
SplineSet
865 460 m 29
 865 60 l 25
 1035 60 l 25
 1035 460 l 25
 865 460 l 29
865 690 m 25
 865 520 l 25
 1035 520 l 25
 1035 690 l 25
 865 690 l 25
865 920 m 25
 865 750 l 25
 1035 750 l 25
 1035 920 l 25
 865 920 l 25
865 1210 m 25
 865 980 l 25
 1035 980 l 25
 1035 1210 l 25
 1095 1210 l 25
 1095 980 l 25
 1325 980 l 25
 1325 920 l 25
 1095 920 l 25
 1095 750 l 25
 1325 750 l 25
 1325 690 l 25
 1095 690 l 25
 1095 520 l 25
 1325 520 l 25
 1325 460 l 25
 1095 460 l 25
 1095 60 l 25
 1325 60 l 25
 1325 0 l 25
 805 0 l 25
 805 1210 l 25
 865 1210 l 25
175 230 m 25
 175 60 l 25
 575 60 l 25
 575 230 l 25
 175 230 l 25
115 290 m 25
 635 290 l 25
 635 0 l 25
 115 0 l 25
 115 290 l 25
115 520 m 25
 635 520 l 25
 635 460 l 25
 115 460 l 25
 115 520 l 25
115 750 m 25
 635 750 l 25
 635 690 l 25
 115 690 l 25
 115 750 l 25
345 1210 m 25
 405 1210 l 25
 405 980 l 25
 635 980 l 25
 635 920 l 25
 115 920 l 25
 115 980 l 25
 345 980 l 25
 345 1210 l 25
EndSplineSet
Validated: 1
EndChar

StartChar: uniFF71
Encoding: 1096 65393 1096
Width: 690
Flags: W
HStem: 0 60<115 345> 1150 60<115 575>
VStem: 345 60<60 980> 575 60<690 1150>
LayerCount: 2
Fore
SplineSet
345 980 m 29
 405 980 l 25
 405 0 l 25
 115 0 l 25
 115 60 l 25
 345 60 l 25
 345 980 l 29
115 1210 m 25
 635 1210 l 25
 635 690 l 25
 575 690 l 25
 575 1150 l 25
 115 1150 l 25
 115 1210 l 25
EndSplineSet
Validated: 1
EndChar

StartChar: uniFF72
Encoding: 1097 65394 1097
Width: 690
Flags: W
HStem: 0 21G<345 405> 690 60<115 345 405 575> 1190 20G<575 635>
VStem: 345 60<0 690> 575 60<750 1210>
LayerCount: 2
Fore
SplineSet
575 1210 m 29
 635 1210 l 25
 635 690 l 25
 405 690 l 25
 405 0 l 25
 345 0 l 25
 345 690 l 25
 115 690 l 25
 115 750 l 25
 575 750 l 25
 575 1210 l 29
EndSplineSet
Validated: 1
EndChar

StartChar: uniFF73
Encoding: 1098 65395 1098
Width: 690
Flags: W
HStem: 0 60<345 575> 920 60<175 345 405 575> 1190 20G<345 405>
VStem: 115 60<690 920> 345 60<980 1210> 575 60<60 920>
CounterMasks: 1 1c
LayerCount: 2
Fore
SplineSet
345 1210 m 29
 405 1210 l 25
 405 980 l 25
 635 980 l 25
 635 0 l 25
 345 0 l 25
 345 60 l 25
 575 60 l 25
 575 920 l 25
 175 920 l 25
 175 690 l 25
 115 690 l 25
 115 980 l 25
 345 980 l 25
 345 1210 l 29
EndSplineSet
Validated: 1
EndChar

StartChar: uniFF74
Encoding: 1099 65396 1099
Width: 690
Flags: W
HStem: 0 60<115 345 405 635> 1150 60<115 345 405 635>
VStem: 345 60<60 1150>
LayerCount: 2
Fore
SplineSet
115 1210 m 29
 635 1210 l 25
 635 1150 l 25
 405 1150 l 25
 405 60 l 25
 635 60 l 25
 635 0 l 25
 115 0 l 25
 115 60 l 25
 345 60 l 25
 345 1150 l 25
 115 1150 l 25
 115 1210 l 29
EndSplineSet
Validated: 1
EndChar

StartChar: uniFF66
Encoding: 1100 65382 1100
Width: 690
Flags: W
HStem: 0 60<115 345> 230 60<405 575> 690 60<115 575> 1150 60<115 575>
VStem: 345 60<60 230> 575 60<290 690 750 1150>
LayerCount: 2
Fore
SplineSet
115 1210 m 25
 635 1210 l 1
 635 230 l 1
 405 230 l 1
 405 0 l 1
 115 0 l 1
 115 60 l 1
 345 60 l 5
 345 290 l 1
 575 290 l 1
 575 690 l 1
 115 690 l 25
 115 750 l 25
 575 750 l 25
 575 1150 l 25
 115 1150 l 25
 115 1210 l 25
EndSplineSet
Validated: 1
EndChar

StartChar: uniFF67
Encoding: 1101 65383 1101
Width: 690
Flags: W
HStem: 0 21G<345 405> 690 60<115 575>
VStem: 345 60<0 520> 575 60<460 690>
LayerCount: 2
Fore
SplineSet
345 520 m 29
 405 520 l 25
 405 0 l 25
 345 0 l 25
 345 520 l 29
115 690 m 25
 115 750 l 25
 635 750 l 25
 635 460 l 25
 575 460 l 25
 575 690 l 25
 115 690 l 25
EndSplineSet
Validated: 1
EndChar

StartChar: uniFF68
Encoding: 1102 65384 1102
Width: 690
Flags: W
HStem: 0 21G<345 405> 460 60<115 345 405 575> 730 20G<575 635> 730 20G<575 635>
VStem: 345 60<0 460> 575 60<520 750>
LayerCount: 2
Fore
SplineSet
575 750 m 29xec
 635 750 l 25
 635 460 l 25
 405 460 l 25
 405 0 l 25
 345 0 l 25
 345 460 l 25
 115 460 l 25
 115 520 l 25
 575 520 l 25
 575 750 l 29xec
EndSplineSet
Validated: 1
EndChar

StartChar: uniFF69
Encoding: 1103 65385 1103
Width: 690
Flags: W
HStem: 0 60<345 575> 460 60<175 345 405 575> 730 20G<345 405> 730 20G<345 405>
VStem: 115 60<230 460> 345 60<520 750> 575 60<60 460>
CounterMasks: 1 0e
LayerCount: 2
Fore
SplineSet
345 750 m 29xee
 405 750 l 25
 405 520 l 25
 635 520 l 25
 635 0 l 25
 345 0 l 25
 345 60 l 25
 575 60 l 25
 575 460 l 25
 175 460 l 25
 175 230 l 25
 115 230 l 25
 115 520 l 25
 345 520 l 25
 345 750 l 29xee
EndSplineSet
Validated: 1
EndChar

StartChar: uniFF6A
Encoding: 1104 65386 1104
Width: 690
Flags: W
HStem: 0 60<115 345 405 635> 690 60<115 345 405 635>
VStem: 345 60<60 690>
LayerCount: 2
Fore
SplineSet
115 750 m 29
 635 750 l 25
 635 690 l 25
 405 690 l 25
 405 60 l 25
 635 60 l 25
 635 0 l 25
 115 0 l 25
 115 60 l 25
 345 60 l 25
 345 690 l 25
 115 690 l 25
 115 750 l 29
EndSplineSet
Validated: 1
EndChar

StartChar: uniFF6B
Encoding: 1105 65387 1105
Width: 690
Flags: W
HStem: 0 21G<115 175 345 405> 460 60<115 345 405 635> 730 20G<345 405> 730 20G<345 405>
VStem: 115 60<0 290> 345 60<0 460 520 750>
LayerCount: 2
Fore
SplineSet
115 290 m 29xcc
 175 290 l 25
 175 0 l 25
 115 0 l 25
 115 290 l 29xcc
115 520 m 25
 345 520 l 25
 345 750 l 25
 405 750 l 25xec
 405 520 l 25
 635 520 l 25
 635 460 l 25
 405 460 l 25
 405 0 l 25
 345 0 l 25
 345 460 l 25
 115 460 l 25
 115 520 l 25
EndSplineSet
Validated: 1
EndChar

StartChar: uniFF6C
Encoding: 1106 65388 1106
Width: 690
Flags: W
HStem: 0 21G<345 405> 460 60<115 345 405 575> 730 20G<345 405> 730 20G<345 405>
VStem: 345 60<0 460 520 750> 575 60<230 460>
LayerCount: 2
Fore
SplineSet
115 520 m 29xec
 345 520 l 25
 345 750 l 25
 405 750 l 25
 405 520 l 25
 635 520 l 25
 635 230 l 25
 575 230 l 25
 575 460 l 25
 405 460 l 25
 405 0 l 25
 345 0 l 25
 345 460 l 25
 115 460 l 25
 115 520 l 29xec
EndSplineSet
Validated: 1
EndChar

StartChar: uniFF6D
Encoding: 1107 65389 1107
Width: 690
Flags: W
HStem: 0 60<115 345 405 635> 690 60<115 345>
VStem: 345 60<60 690>
LayerCount: 2
Fore
SplineSet
115 690 m 29
 115 750 l 25
 405 750 l 25
 405 60 l 25
 635 60 l 25
 635 0 l 25
 115 0 l 25
 115 60 l 25
 345 60 l 25
 345 690 l 25
 115 690 l 29
EndSplineSet
Validated: 1
EndChar

StartChar: uniFF6E
Encoding: 1108 65390 1108
Width: 690
Flags: W
HStem: 0 60<115 575> 460 60<115 575> 690 60<115 575>
VStem: 575 60<60 460 520 690>
LayerCount: 2
Fore
SplineSet
115 750 m 29
 635 750 l 25
 635 0 l 25
 115 0 l 25
 115 60 l 25
 575 60 l 25
 575 460 l 25
 115 460 l 25
 115 520 l 25
 575 520 l 25
 575 690 l 25
 115 690 l 25
 115 750 l 29
EndSplineSet
Validated: 1
EndChar

StartChar: uniFF6F
Encoding: 1109 65391 1109
Width: 690
Flags: W
HStem: 0 60<115 575> 730 20G<115 175 345 405 575 635> 730 20G<115 175 345 405 575 635>
VStem: 115 60<460 750> 345 60<460 750> 575 60<60 750>
CounterMasks: 1 1c
LayerCount: 2
Fore
SplineSet
345 750 m 5xdc
 405 750 l 5
 405 460 l 5
 345 460 l 5
 345 750 l 5xdc
115 750 m 5
 175 750 l 5
 175 460 l 5
 115 460 l 5
 115 750 l 5
635 750 m 29
 635 0 l 1
 115 0 l 25
 115 60 l 25
 575 60 l 1
 575 750 l 29
 635 750 l 29
EndSplineSet
Validated: 1
EndChar

StartChar: uniFF70
Encoding: 1110 65392 1110
Width: 690
Flags: W
HStem: 690 60<115 635>
VStem: 115 520<690 750>
LayerCount: 2
Fore
SplineSet
115 750 m 29
 635 750 l 25
 635 690 l 25
 115 690 l 25
 115 750 l 29
EndSplineSet
Validated: 1
EndChar

StartChar: uniFF75
Encoding: 1111 65397 1111
Width: 690
Flags: W
HStem: 0 21G<115 175 345 405> 460 60<175 345> 920 60<115 345 405 635> 1190 20G<345 405>
VStem: 115 60<0 460> 345 60<0 460 520 920 980 1210>
LayerCount: 2
Fore
SplineSet
115 920 m 25
 115 980 l 25
 345 980 l 25
 345 1210 l 25
 405 1210 l 25
 405 980 l 25
 635 980 l 25
 635 920 l 25
 405 920 l 25
 405 0 l 25
 345 0 l 1
 345 460 l 5
 175 460 l 1
 175 0 l 1
 115 0 l 1
 115 520 l 1
 345 520 l 1
 345 920 l 1
 115 920 l 25
EndSplineSet
Validated: 1
EndChar

StartChar: uniFF76
Encoding: 1112 65398 1112
Width: 690
Flags: W
HStem: 0 21G<345 405 575 635> 920 60<115 345 405 575> 1190 20G<345 405>
VStem: 345 60<0 920 980 1210> 575 60<0 920>
LayerCount: 2
Fore
SplineSet
115 980 m 29
 345 980 l 29
 345 1210 l 25
 405 1210 l 25
 405 980 l 29
 635 980 l 29
 635 0 l 25
 575 0 l 25
 575 920 l 29
 405 920 l 29
 405 0 l 25
 345 0 l 25
 345 920 l 29
 115 920 l 29
 115 980 l 29
EndSplineSet
Validated: 1
EndChar

StartChar: uniFF77
Encoding: 1113 65399 1113
Width: 690
Flags: W
HStem: 0 21G<345 405> 460 60<115 345 405 635> 920 60<115 345 405 635> 1190 20G<345 405>
VStem: 345 60<0 460 520 920 980 1210>
LayerCount: 2
Fore
SplineSet
405 1210 m 25
 405 980 l 25
 635 980 l 25
 635 920 l 25
 405 920 l 1
 405 520 l 29
 635 520 l 29
 635 460 l 29
 405 460 l 29
 405 0 l 1
 345 0 l 25
 345 460 l 25
 115 460 l 25
 115 520 l 25
 345 520 l 25
 345 920 l 25
 115 920 l 25
 115 980 l 25
 345 980 l 25
 345 1210 l 25
 405 1210 l 25
EndSplineSet
Validated: 1
EndChar

StartChar: uniFF78
Encoding: 1114 65400 1114
Width: 690
Flags: W
HStem: 0 60<345 575> 920 60<175 575> 1190 20G<115 175>
VStem: 115 60<690 920 980 1210> 575 60<60 920>
LayerCount: 2
Fore
SplineSet
175 920 m 29
 175 690 l 25
 115 690 l 25
 115 1210 l 25
 175 1210 l 25
 175 980 l 25
 635 980 l 25
 635 0 l 25
 345 0 l 25
 345 60 l 25
 575 60 l 25
 575 920 l 25
 175 920 l 29
EndSplineSet
Validated: 1
EndChar

StartChar: uniFF79
Encoding: 1115 65401 1115
Width: 690
Flags: W
HStem: 0 60<115 345> 920 60<175 345 405 635> 1190 20G<115 175>
VStem: 115 60<690 920 980 1210> 345 60<60 920>
LayerCount: 2
Fore
SplineSet
175 920 m 1
 175 690 l 25
 115 690 l 25
 115 1210 l 25
 175 1210 l 25
 175 980 l 25
 635 980 l 1
 635 920 l 1
 405 920 l 5
 405 0 l 1
 115 0 l 25
 115 60 l 25
 345 60 l 25
 345 920 l 25
 175 920 l 1
EndSplineSet
Validated: 1
EndChar

StartChar: uniFF7A
Encoding: 1116 65402 1116
Width: 690
Flags: W
HStem: 0 60<115 575> 1150 60<115 575>
VStem: 575 60<60 1150>
LayerCount: 2
Fore
SplineSet
115 1210 m 29
 635 1210 l 25
 635 0 l 25
 115 0 l 25
 115 60 l 25
 575 60 l 25
 575 1150 l 25
 115 1150 l 25
 115 1210 l 29
EndSplineSet
Validated: 1
EndChar

StartChar: uniFF7B
Encoding: 1117 65403 1117
Width: 690
Flags: W
HStem: 0 60<345 575> 920 60<115 345 405 575> 1190 20G<345 405 575 635>
VStem: 345 60<690 920 980 1210> 575 60<60 920 980 1210>
LayerCount: 2
Fore
SplineSet
115 980 m 29
 345 980 l 25
 345 1210 l 25
 405 1210 l 25
 405 980 l 25
 575 980 l 25
 575 1210 l 25
 635 1210 l 25
 635 0 l 25
 345 0 l 25
 345 60 l 25
 575 60 l 25
 575 920 l 25
 405 920 l 25
 405 690 l 25
 345 690 l 25
 345 920 l 25
 115 920 l 25
 115 980 l 29
EndSplineSet
Validated: 1
EndChar

StartChar: uniFF7C
Encoding: 1118 65404 1118
Width: 690
Flags: W
HStem: 0 60<115 575> 690 60<115 405> 1150 60<115 405>
VStem: 575 60<60 1210>
LayerCount: 2
Fore
SplineSet
115 750 m 29
 405 750 l 25
 405 690 l 25
 115 690 l 25
 115 750 l 29
115 1210 m 25
 405 1210 l 25
 405 1150 l 25
 115 1150 l 25
 115 1210 l 25
635 1210 m 25
 635 0 l 25
 115 0 l 25
 115 60 l 25
 575 60 l 25
 575 1210 l 25
 635 1210 l 25
EndSplineSet
Validated: 1
EndChar

StartChar: uniFF7D
Encoding: 1119 65405 1119
Width: 690
Flags: W
HStem: 0 21G<115 175 575 635> 460 60<175 575> 1150 60<115 575>
VStem: 115 60<0 460> 575 60<0 290 520 1150>
LayerCount: 2
Fore
SplineSet
575 290 m 29
 635 290 l 25
 635 0 l 25
 575 0 l 25
 575 290 l 29
115 1210 m 25
 635 1210 l 25
 635 460 l 25
 175 460 l 25
 175 0 l 25
 115 0 l 25
 115 520 l 25
 575 520 l 25
 575 1150 l 25
 115 1150 l 25
 115 1210 l 25
EndSplineSet
Validated: 1
EndChar

StartChar: uniFF7E
Encoding: 1120 65406 1120
Width: 690
Flags: W
HStem: 0 60<405 635> 920 60<115 345 405 575> 1190 20G<345 405>
VStem: 345 60<60 920 980 1210> 575 60<690 920>
LayerCount: 2
Fore
SplineSet
115 980 m 29
 345 980 l 25
 345 1210 l 25
 405 1210 l 25
 405 980 l 25
 635 980 l 25
 635 690 l 25
 575 690 l 25
 575 920 l 25
 405 920 l 25
 405 60 l 25
 635 60 l 25
 635 0 l 25
 345 0 l 25
 345 920 l 25
 115 920 l 25
 115 980 l 29
EndSplineSet
Validated: 1
EndChar

StartChar: uniFF7F
Encoding: 1121 65407 1121
Width: 690
Flags: W
HStem: 0 60<115 575> 690 60<175 405> 1190 20G<115 175 575 635>
VStem: 115 60<750 1210> 575 60<60 1210>
LayerCount: 2
Fore
SplineSet
115 1210 m 1
 175 1210 l 1
 175 750 l 5
 405 750 l 5
 405 690 l 5
 115 690 l 29
 115 1210 l 1
635 1210 m 25
 635 0 l 25
 115 0 l 25
 115 60 l 25
 575 60 l 25
 575 1210 l 25
 635 1210 l 25
EndSplineSet
Validated: 1
EndChar

StartChar: uniFF80
Encoding: 1122 65408 1122
Width: 690
Flags: W
HStem: 0 60<345 575> 460 60<345 575> 920 60<175 575> 1190 20G<115 175>
VStem: 115 60<690 920 980 1210> 575 60<60 460 520 920>
LayerCount: 2
Fore
SplineSet
175 920 m 25
 175 690 l 25
 115 690 l 25
 115 1210 l 25
 175 1210 l 25
 175 980 l 25
 635 980 l 25
 635 0 l 25
 345 0 l 25
 345 60 l 25
 575 60 l 1
 575 460 l 1
 345 460 l 1
 345 520 l 1
 575 520 l 5
 575 920 l 1
 175 920 l 25
EndSplineSet
Validated: 1
EndChar

StartChar: uniFF81
Encoding: 1123 65409 1123
Width: 690
Flags: W
HStem: 0 60<115 345> 690 60<115 345 405 635> 920 60<115 345 405 575> 1190 20G<575 635>
VStem: 345 60<60 690 750 920> 575 60<980 1210>
LayerCount: 2
Fore
SplineSet
575 1210 m 29
 635 1210 l 25
 635 920 l 25
 405 920 l 25
 405 750 l 25
 635 750 l 25
 635 690 l 25
 405 690 l 25
 405 0 l 25
 115 0 l 25
 115 60 l 25
 345 60 l 25
 345 690 l 25
 115 690 l 25
 115 750 l 25
 345 750 l 25
 345 920 l 25
 115 920 l 25
 115 980 l 25
 575 980 l 25
 575 1210 l 29
EndSplineSet
Validated: 1
EndChar

StartChar: uniFF82
Encoding: 1124 65410 1124
Width: 690
Flags: W
HStem: 0 60<115 575> 1190 20G<115 175 345 405 575 635>
VStem: 115 60<690 1210> 345 60<690 1210> 575 60<60 1210>
CounterMasks: 1 38
LayerCount: 2
Fore
SplineSet
345 1210 m 5
 405 1210 l 5
 405 690 l 5
 345 690 l 5
 345 1210 l 5
115 1210 m 5
 175 1210 l 5
 175 690 l 5
 115 690 l 5
 115 1210 l 5
635 1210 m 25
 635 0 l 25
 115 0 l 25
 115 60 l 25
 575 60 l 25
 575 1210 l 25
 635 1210 l 25
EndSplineSet
Validated: 1
EndChar

StartChar: uniFF83
Encoding: 1125 65411 1125
Width: 690
Flags: W
HStem: 0 60<115 345> 690 60<115 345 405 635> 1150 60<115 635>
VStem: 345 60<60 690>
LayerCount: 2
Fore
SplineSet
115 750 m 29
 635 750 l 29
 635 690 l 29
 405 690 l 29
 405 0 l 1
 115 0 l 25
 115 60 l 25
 345 60 l 1
 345 690 l 29
 115 690 l 29
 115 750 l 29
115 1210 m 25
 635 1210 l 25
 635 1150 l 25
 115 1150 l 25
 115 1210 l 25
EndSplineSet
Validated: 1
EndChar

StartChar: uniFF84
Encoding: 1126 65412 1126
Width: 690
Flags: W
HStem: 0 21G<115 175> 690 60<175 635> 1190 20G<115 175>
VStem: 115 60<0 690 750 1210>
LayerCount: 2
Fore
SplineSet
175 1210 m 29
 175 750 l 25
 635 750 l 25
 635 690 l 25
 175 690 l 25
 175 0 l 25
 115 0 l 25
 115 1210 l 25
 175 1210 l 29
EndSplineSet
Validated: 1
EndChar

StartChar: uniFF85
Encoding: 1127 65413 1127
Width: 690
Flags: W
HStem: 0 60<115 345> 920 60<115 345 405 635> 1190 20G<345 405>
VStem: 345 60<60 920 980 1210>
LayerCount: 2
Fore
SplineSet
345 980 m 29
 345 1210 l 25
 405 1210 l 25
 405 980 l 25
 635 980 l 25
 635 920 l 25
 405 920 l 25
 405 0 l 25
 115 0 l 25
 115 60 l 25
 345 60 l 25
 345 920 l 25
 115 920 l 25
 115 980 l 25
 345 980 l 29
EndSplineSet
Validated: 1
EndChar

StartChar: uniFF86
Encoding: 1128 65414 1128
Width: 690
Flags: W
HStem: 230 60<115 635> 920 60<115 635>
VStem: 115 520<230 290 920 980>
LayerCount: 2
Fore
SplineSet
115 290 m 29
 635 290 l 25
 635 230 l 25
 115 230 l 25
 115 290 l 29
115 980 m 25
 635 980 l 25
 635 920 l 25
 115 920 l 25
 115 980 l 25
EndSplineSet
Validated: 1
EndChar

StartChar: uniFF88
Encoding: 1130 65416 1130
Width: 690
Flags: W
HStem: 0 21G<345 405> 230 60<405 635> 460 60<175 345 405 575> 920 60<115 345 405 575> 1190 20G<345 405>
VStem: 115 60<230 460> 345 60<0 230 290 460 980 1210> 575 60<520 920>
CounterMasks: 1 07
LayerCount: 2
Fore
SplineSet
345 980 m 29
 345 1210 l 25
 405 1210 l 25
 405 980 l 25
 635 980 l 25
 635 460 l 25
 405 460 l 25
 405 290 l 25
 635 290 l 25
 635 230 l 25
 405 230 l 25
 405 0 l 25
 345 0 l 25
 345 460 l 25
 175 460 l 25
 175 230 l 25
 115 230 l 25
 115 520 l 25
 575 520 l 25
 575 920 l 25
 115 920 l 25
 115 980 l 25
 345 980 l 29
EndSplineSet
Validated: 1
EndChar

StartChar: uniFF89
Encoding: 1131 65417 1131
Width: 690
Flags: W
HStem: 0 60<115 345> 230 60<405 575> 1190 20G<575 635>
VStem: 345 60<60 230> 575 60<290 1210>
LayerCount: 2
Fore
SplineSet
575 1210 m 29
 635 1210 l 25
 635 230 l 25
 405 230 l 25
 405 0 l 25
 115 0 l 25
 115 60 l 25
 345 60 l 25
 345 290 l 25
 575 290 l 25
 575 1210 l 29
EndSplineSet
Validated: 1
EndChar

StartChar: uniFF8A
Encoding: 1132 65418 1132
Width: 690
Flags: W
HStem: 0 21G<115 175 575 635> 1150 60<345 575>
VStem: 115 60<0 980> 575 60<0 1150>
LayerCount: 2
Fore
SplineSet
345 1210 m 29
 635 1210 l 25
 635 0 l 25
 575 0 l 25
 575 1150 l 25
 345 1150 l 25
 345 1210 l 29
115 980 m 25
 175 980 l 25
 175 0 l 25
 115 0 l 25
 115 980 l 25
EndSplineSet
Validated: 1
EndChar

StartChar: uniFF8B
Encoding: 1133 65419 1133
Width: 690
Flags: W
HStem: 0 60<175 635> 690 60<175 635> 1190 20G<115 175>
VStem: 115 60<60 690 750 1210>
LayerCount: 2
Fore
SplineSet
115 1210 m 29
 175 1210 l 25
 175 750 l 25
 635 750 l 25
 635 690 l 25
 175 690 l 25
 175 60 l 25
 635 60 l 25
 635 0 l 25
 115 0 l 25
 115 1210 l 29
EndSplineSet
Validated: 1
EndChar

StartChar: uniFF8C
Encoding: 1134 65420 1134
Width: 690
Flags: W
HStem: 0 60<115 345> 230 60<405 575> 1150 60<115 575>
VStem: 345 60<60 230> 575 60<290 1150>
LayerCount: 2
Fore
SplineSet
115 1210 m 29
 635 1210 l 25
 635 230 l 25
 405 230 l 25
 405 0 l 25
 115 0 l 25
 115 60 l 25
 345 60 l 25
 345 290 l 25
 575 290 l 25
 575 1150 l 25
 115 1150 l 25
 115 1210 l 29
EndSplineSet
Validated: 1
EndChar

StartChar: uniFF8D
Encoding: 1135 65421 1135
Width: 690
Flags: W
HStem: 690 60<405 575> 920 60<175 345>
VStem: 115 60<460 920> 345 60<750 920> 575 60<230 690>
CounterMasks: 1 38
LayerCount: 2
Fore
SplineSet
175 460 m 29
 115 460 l 25
 115 980 l 25
 405 980 l 25
 405 750 l 25
 635 750 l 25
 635 230 l 25
 575 230 l 25
 575 690 l 25
 345 690 l 25
 345 920 l 25
 175 920 l 25
 175 460 l 29
EndSplineSet
Validated: 1
EndChar

StartChar: uniFF8E
Encoding: 1136 65422 1136
Width: 690
Flags: W
HStem: 0 21G<345 405> 730 20G<115 175 575 635> 730 20G<115 175 575 635> 920 60<115 345 405 635> 1190 20G<345 405>
VStem: 115 60<230 750> 345 60<0 920 980 1210> 575 60<230 750>
CounterMasks: 1 07
LayerCount: 2
Fore
SplineSet
575 750 m 29xdf
 635 750 l 25
 635 230 l 25
 575 230 l 25
 575 750 l 29xdf
115 750 m 25
 175 750 l 25
 175 230 l 25
 115 230 l 25
 115 750 l 25
345 980 m 25
 345 1210 l 25
 405 1210 l 25
 405 980 l 25
 635 980 l 25
 635 920 l 25
 405 920 l 25
 405 0 l 25
 345 0 l 25
 345 920 l 25
 115 920 l 25
 115 980 l 25
 345 980 l 25
EndSplineSet
Validated: 1
EndChar

StartChar: uniFF90
Encoding: 1138 65424 1138
Width: 690
Flags: W
HStem: 0 60<115 635> 690 60<115 635> 1150 60<115 635>
VStem: 115 520<0 60 690 750 1150 1210>
LayerCount: 2
Fore
SplineSet
115 60 m 29
 635 60 l 25
 635 0 l 25
 115 0 l 25
 115 60 l 29
115 750 m 25
 635 750 l 25
 635 690 l 25
 115 690 l 25
 115 750 l 25
115 1210 m 25
 635 1210 l 25
 635 1150 l 25
 115 1150 l 25
 115 1210 l 25
EndSplineSet
Validated: 1
EndChar

StartChar: uniFF91
Encoding: 1139 65425 1139
Width: 690
Flags: W
HStem: 0 60<175 575> 690 60<175 345>
VStem: 115 60<60 690> 345 60<750 1208> 575 60<60 520>
CounterMasks: 1 38
LayerCount: 2
Fore
SplineSet
345 1208 m 1
 405 1208 l 1
 405 750 l 1
 405 690 l 1
 175 690 l 1
 175 60 l 1
 575 60 l 25
 575 520 l 25
 635 520 l 25
 635 0 l 25
 115 0 l 1
 115 690 l 1
 115 750 l 1
 345 750 l 1
 345 1208 l 1
EndSplineSet
Validated: 1
EndChar

StartChar: uniFF93
Encoding: 1141 65427 1141
Width: 690
Flags: W
HStem: 0 60<405 635> 690 60<115 345 405 635> 1150 60<115 345 405 635>
VStem: 345 60<60 690 750 1150>
LayerCount: 2
Fore
SplineSet
115 1210 m 29
 635 1210 l 25
 635 1150 l 25
 405 1150 l 25
 405 750 l 25
 635 750 l 25
 635 690 l 25
 405 690 l 25
 405 60 l 25
 635 60 l 25
 635 0 l 25
 345 0 l 25
 345 690 l 25
 115 690 l 25
 115 750 l 25
 345 750 l 25
 345 1150 l 25
 115 1150 l 25
 115 1210 l 29
EndSplineSet
Validated: 1
EndChar

StartChar: uniFF96
Encoding: 1144 65430 1144
Width: 690
Flags: W
HStem: 0 60<115 575> 690 60<115 575> 1150 60<115 575>
VStem: 575 60<60 690 750 1150>
LayerCount: 2
Fore
SplineSet
115 1210 m 25
 635 1210 l 25
 635 0 l 1
 115 0 l 29
 115 60 l 29
 575 60 l 1
 575 690 l 25
 115 690 l 25
 115 750 l 25
 575 750 l 25
 575 1150 l 25
 115 1150 l 25
 115 1210 l 25
EndSplineSet
Validated: 1
EndChar

StartChar: uniFF9E
Encoding: 1152 65438 1152
Width: 690
Flags: W
HStem: 920 290<115 175 345 405>
VStem: 115 60<920 1210> 345 60<920 1210>
LayerCount: 2
Fore
SplineSet
345 1210 m 29
 405 1210 l 25
 405 920 l 25
 345 920 l 25
 345 1210 l 29
115 1210 m 25
 175 1210 l 25
 175 920 l 25
 115 920 l 25
 115 1210 l 25
EndSplineSet
Validated: 1
EndChar

StartChar: uniFF9F
Encoding: 1153 65439 1153
Width: 690
Flags: W
HStem: 920 60<175 345> 1150 60<175 345>
VStem: 115 60<980 1150> 345 60<980 1150>
LayerCount: 2
Fore
SplineSet
175 1150 m 29
 175 980 l 25
 345 980 l 25
 345 1150 l 25
 175 1150 l 29
115 1210 m 25
 405 1210 l 25
 405 920 l 25
 115 920 l 25
 115 1210 l 25
EndSplineSet
Validated: 1
EndChar

StartChar: uni60AA
Encoding: 1154 24746 1154
Width: 1380
Flags: W
HStem: 0 60<405 1095> 230 60<575 865 1035 1265> 460 60<115 345 405 805 865 1325> 690 60<175 345 405 805 865 1265> 920 60<175 345 405 805 865 1265> 1150 60<115 345 405 805 865 1325>
VStem: 115 60<0 290 750 920> 345 60<60 290 520 690 750 920 980 1150> 805 60<520 690 750 920 980 1150> 1265 60<0 230 750 920>
LayerCount: 2
Fore
SplineSet
405 920 m 29
 405 750 l 25
 805 750 l 25
 805 920 l 25
 405 920 l 29
865 920 m 25
 865 750 l 25
 1265 750 l 25
 1265 920 l 25
 865 920 l 25
175 920 m 25
 175 750 l 25
 345 750 l 25
 345 920 l 25
 175 920 l 25
405 690 m 25
 405 520 l 25
 805 520 l 25
 805 690 l 25
 405 690 l 25
405 1150 m 25
 405 980 l 25
 805 980 l 25
 805 1150 l 25
 405 1150 l 25
1035 290 m 25
 1325 290 l 25
 1325 0 l 25
 1265 0 l 25
 1265 230 l 25
 1035 230 l 25
 1035 290 l 25
575 290 m 25
 865 290 l 25
 865 230 l 25
 575 230 l 25
 575 290 l 25
345 290 m 25
 405 290 l 25
 405 60 l 25
 1095 60 l 25
 1095 0 l 25
 345 0 l 25
 345 290 l 25
115 290 m 25
 175 290 l 25
 175 0 l 25
 115 0 l 25
 115 290 l 25
115 1210 m 25
 1325 1210 l 25
 1325 1150 l 25
 865 1150 l 25
 865 980 l 25
 1325 980 l 25
 1325 690 l 25
 865 690 l 25
 865 520 l 25
 1325 520 l 25
 1325 460 l 25
 115 460 l 25
 115 520 l 25
 345 520 l 25
 345 690 l 25
 115 690 l 25
 115 980 l 25
 345 980 l 25
 345 1150 l 25
 115 1150 l 25
 115 1210 l 25
EndSplineSet
Validated: 1
EndChar

StartChar: uni5727
Encoding: 1155 22311 1155
Width: 1380
Flags: W
HStem: 0 60<345 805 865 1325> 460 60<345 805 865 1325> 1150 60<175 1325>
VStem: 115 60<0 1150> 805 60<60 460 520 980>
LayerCount: 2
Fore
SplineSet
865 980 m 29
 865 520 l 25
 1325 520 l 25
 1325 460 l 25
 865 460 l 25
 865 60 l 25
 1325 60 l 25
 1325 0 l 25
 345 0 l 25
 345 60 l 25
 805 60 l 25
 805 460 l 25
 345 460 l 25
 345 520 l 25
 805 520 l 25
 805 980 l 25
 865 980 l 29
115 1210 m 25
 1325 1210 l 25
 1325 1150 l 25
 175 1150 l 25
 175 0 l 25
 115 0 l 25
 115 1210 l 25
EndSplineSet
Validated: 1
EndChar

StartChar: uni5B89
Encoding: 1156 23433 1156
Width: 1380
Flags: W
HStem: 0 21G<1035 1095> 230 60<405 1035 1095 1325> 460 60<115 345 405 1035 1095 1325> 730 20G<345 405 1035 1095> 730 20G<345 405 1035 1095> 920 60<175 575 635 1265> 1190 20G<575 635>
VStem: 115 60<690 920> 345 60<290 460 520 750> 575 60<980 1210> 1035 60<0 230 290 460 520 750> 1265 60<690 920>
LayerCount: 2
Fore
SplineSet
405 460 m 29xe7f0
 405 290 l 25
 1035 290 l 25
 1035 460 l 25
 405 460 l 29xe7f0
345 520 m 25
 345 750 l 25
 405 750 l 25
 405 520 l 25
 1035 520 l 25
 1035 750 l 25
 1095 750 l 25xf7f0
 1095 520 l 25
 1325 520 l 25
 1325 460 l 25
 1095 460 l 25
 1095 290 l 25
 1325 290 l 25
 1325 230 l 25
 1095 230 l 25
 1095 0 l 25
 1035 0 l 25
 1035 230 l 25
 345 230 l 25
 345 460 l 25
 115 460 l 25
 115 520 l 25
 345 520 l 25
635 1210 m 25
 635 980 l 25
 1325 980 l 25
 1325 690 l 25
 1265 690 l 25
 1265 920 l 25
 175 920 l 25
 175 690 l 25
 115 690 l 25
 115 980 l 25
 575 980 l 25
 575 1210 l 25
 635 1210 l 25
EndSplineSet
Validated: 1
EndChar

StartChar: uni7DAD
Encoding: 1157 32173 1157
Width: 1380
Flags: W
HStem: 0 60<865 1035 1095 1325> 460 60<175 345 405 575 865 1035 1095 1325> 690 60<175 345 865 1035 1095 1325> 920 60<175 345 865 1035 1095 1325> 1190 20G<115 175 345 405 805 865 1035 1095>
VStem: 115 60<0 290 520 690 980 1210> 345 60<0 460 750 920 980 1210> 575 60<0 290 520 750> 805 60<60 460 520 690 750 920 980 1210> 1035 60<60 460 520 690 750 920 980 1210>
LayerCount: 2
Fore
SplineSet
865 460 m 29
 865 60 l 25
 1035 60 l 25
 1035 460 l 25
 865 460 l 29
865 690 m 25
 865 520 l 25
 1035 520 l 25
 1035 690 l 25
 865 690 l 25
865 920 m 25
 865 750 l 25
 1035 750 l 25
 1035 920 l 25
 865 920 l 25
805 1210 m 25
 865 1210 l 25
 865 980 l 25
 1035 980 l 25
 1035 1210 l 25
 1095 1210 l 25
 1095 980 l 25
 1325 980 l 25
 1325 920 l 25
 1095 920 l 25
 1095 750 l 25
 1325 750 l 25
 1325 690 l 25
 1095 690 l 25
 1095 520 l 25
 1325 520 l 25
 1325 460 l 25
 1095 460 l 25
 1095 60 l 25
 1325 60 l 25
 1325 0 l 25
 805 0 l 25
 805 1210 l 25
575 290 m 25
 635 290 l 25
 635 0 l 25
 575 0 l 25
 575 290 l 25
115 290 m 25
 175 290 l 25
 175 0 l 25
 115 0 l 25
 115 290 l 25
115 1210 m 25
 175 1210 l 25
 175 980 l 25
 345 980 l 25
 345 1210 l 25
 405 1210 l 25
 405 690 l 25
 175 690 l 25
 175 520 l 25
 575 520 l 25
 575 750 l 25
 635 750 l 25
 635 460 l 25
 405 460 l 25
 405 0 l 25
 345 0 l 25
 345 460 l 25
 115 460 l 25
 115 750 l 25
 345 750 l 25
 345 920 l 25
 115 920 l 25
 115 1210 l 25
EndSplineSet
Validated: 1
EndChar

StartChar: uni533B
Encoding: 1158 21307 1158
Width: 1380
Flags: W
HStem: 0 60<175 1325> 230 60<345 805 1095 1325> 690 60<345 575 635 805 865 1095> 920 60<635 805 865 1095> 1150 60<175 575 635 1325>
VStem: 115 60<60 1150> 575 60<750 920 980 1150> 805 60<290 690 750 920> 1035 60<290 520>
LayerCount: 2
Fore
SplineSet
1035 520 m 29
 1095 520 l 25
 1095 290 l 25
 1325 290 l 25
 1325 230 l 25
 1035 230 l 25
 1035 520 l 29
635 920 m 25
 635 750 l 25
 805 750 l 25
 805 920 l 25
 635 920 l 25
115 1210 m 25
 1325 1210 l 25
 1325 1150 l 25
 635 1150 l 25
 635 980 l 25
 1095 980 l 25
 1095 920 l 25
 865 920 l 25
 865 750 l 25
 1095 750 l 25
 1095 690 l 25
 865 690 l 25
 865 230 l 25
 345 230 l 25
 345 290 l 25
 805 290 l 25
 805 690 l 25
 345 690 l 25
 345 750 l 25
 575 750 l 25
 575 1150 l 25
 175 1150 l 25
 175 60 l 25
 1325 60 l 25
 1325 0 l 25
 115 0 l 25
 115 1210 l 25
EndSplineSet
Validated: 1
EndChar

StartChar: uni4E95
Encoding: 1159 20117 1159
Width: 1380
Flags: W
HStem: 0 60<345 575> 460 60<115 575 635 1035 1095 1325> 920 60<115 575 635 1035 1095 1325> 1190 20G<575 635 1035 1095>
VStem: 575 60<60 460 520 920 980 1210> 1035 60<0 460 520 920 980 1210>
LayerCount: 2
Fore
SplineSet
635 920 m 29
 635 520 l 25
 1035 520 l 25
 1035 920 l 25
 635 920 l 29
1095 1210 m 25
 1095 980 l 25
 1325 980 l 25
 1325 920 l 25
 1095 920 l 25
 1095 520 l 25
 1325 520 l 25
 1325 460 l 25
 1095 460 l 25
 1095 0 l 25
 1035 0 l 25
 1035 460 l 25
 635 460 l 25
 635 0 l 25
 345 0 l 25
 345 60 l 25
 575 60 l 25
 575 460 l 25
 115 460 l 25
 115 520 l 25
 575 520 l 25
 575 920 l 25
 115 920 l 25
 115 980 l 25
 575 980 l 25
 575 1210 l 25
 635 1210 l 25
 635 980 l 25
 1035 980 l 25
 1035 1210 l 25
 1095 1210 l 25
EndSplineSet
Validated: 1
EndChar

StartChar: uni4E00
Encoding: 1160 19968 1160
Width: 1380
Flags: W
HStem: 460 60<115 1325>
LayerCount: 2
Fore
SplineSet
115 520 m 29
 1325 520 l 25
 1325 460 l 25
 115 460 l 25
 115 520 l 29
EndSplineSet
Validated: 1
EndChar

StartChar: uni5370
Encoding: 1161 21360 1161
Width: 1380
Flags: W
HStem: 0 21G<805 865> 230 60<175 635 1035 1265> 690 60<175 635> 920 60<865 1265> 1150 60<175 635>
VStem: 115 60<290 690 750 1150> 805 60<0 920> 1265 60<290 920>
LayerCount: 2
Fore
SplineSet
805 980 m 29
 1325 980 l 25
 1325 230 l 25
 1035 230 l 25
 1035 290 l 25
 1265 290 l 25
 1265 920 l 25
 865 920 l 25
 865 0 l 25
 805 0 l 25
 805 980 l 29
115 1210 m 25
 635 1210 l 25
 635 1150 l 25
 175 1150 l 25
 175 750 l 25
 635 750 l 25
 635 690 l 25
 175 690 l 25
 175 290 l 25
 635 290 l 25
 635 230 l 25
 115 230 l 25
 115 1210 l 25
EndSplineSet
Validated: 1
EndChar

StartChar: uni56E0
Encoding: 1162 22240 1162
Width: 1380
Flags: W
HStem: 0 60<175 1265> 230 60<345 575 865 1095> 690 60<345 575 635 1095> 1150 60<175 1265>
VStem: 115 60<60 1150> 575 60<290 690 750 980> 805 60<290 520> 1265 60<60 1150>
LayerCount: 2
Fore
SplineSet
805 520 m 29
 865 520 l 25
 865 290 l 25
 1095 290 l 25
 1095 230 l 25
 805 230 l 25
 805 520 l 29
635 980 m 25
 635 750 l 25
 1095 750 l 25
 1095 690 l 25
 635 690 l 25
 635 230 l 25
 345 230 l 25
 345 290 l 25
 575 290 l 25
 575 690 l 25
 345 690 l 25
 345 750 l 25
 575 750 l 25
 575 980 l 25
 635 980 l 25
175 1150 m 25
 175 60 l 25
 1265 60 l 25
 1265 1150 l 25
 175 1150 l 25
115 1210 m 25
 1325 1210 l 25
 1325 0 l 25
 115 0 l 25
 115 1210 l 25
EndSplineSet
Validated: 1
EndChar

StartChar: uni5F15
Encoding: 1163 24341 1163
Width: 1380
Flags: W
HStem: 0 60<575 805> 690 60<405 805> 920 60<405 805> 1150 60<115 805>
VStem: 345 60<750 920> 805 60<60 690 980 1150> 1265 60<0 1210>
CounterMasks: 1 0e
LayerCount: 2
Fore
SplineSet
1265 1210 m 29
 1325 1210 l 25
 1325 0 l 25
 1265 0 l 25
 1265 1210 l 29
115 1210 m 25
 865 1210 l 25
 865 920 l 25
 405 920 l 25
 405 750 l 25
 865 750 l 25
 865 0 l 25
 575 0 l 25
 575 60 l 25
 805 60 l 25
 805 690 l 25
 345 690 l 25
 345 980 l 25
 805 980 l 25
 805 1150 l 25
 115 1150 l 25
 115 1210 l 25
EndSplineSet
Validated: 1
EndChar

StartChar: uni9662
Encoding: 1164 38498 1164
Width: 1380
Flags: HW
HStem: 0 60<575 805 1095 1265> 230 60<175 345> 460 60<575 805 865 1035 1095 1325> 690 60<175 345 805 1095> 920 60<175 345 635 1035 1095 1265> 1150 60<175 345>
VStem: 115 60<0 230 290 690 750 920 980 1150> 345 60<290 690 980 1150> 575 60<690 920> 805 60<60 460> 1035 60<60 460 980 1210> 1265 60<60 290 690 920>
LayerCount: 2
Fore
SplineSet
575 520 m 25
 1325 520 l 25
 1325 460 l 25
 1095 460 l 25
 1095 60 l 25
 1265 60 l 25
 1265 290 l 25
 1325 290 l 25
 1325 0 l 25
 1035 0 l 25
 1035 460 l 25
 865 460 l 25
 865 0 l 1
 575 0 l 1
 575 60 l 1
 805 60 l 1
 805 460 l 1
 575 460 l 25
 575 520 l 25
805 750 m 25
 1095 750 l 25
 1095 690 l 25
 805 690 l 25
 805 750 l 25
1035 980 m 25
 1035 1210 l 25
 1095 1210 l 25
 1095 980 l 25
 1325 980 l 25
 1325 690 l 25
 1265 690 l 25
 1265 920 l 25
 635 920 l 25
 635 690 l 25
 575 690 l 25
 575 980 l 25
 1035 980 l 25
175 690 m 29
 175 290 l 29
 345 290 l 29
 345 690 l 29
 175 690 l 29
175 1150 m 5
 175 980 l 5
 345 980 l 5
 345 1150 l 5
 175 1150 l 5
115 1210 m 29
 405 1210 l 5
 405 920 l 29
 175 920 l 29
 175 750 l 5
 405 750 l 29
 405 230 l 29
 175 230 l 29
 175 0 l 29
 115 0 l 29
 115 1210 l 29
EndSplineSet
EndChar

StartChar: uni5B87
Encoding: 1165 23431 1165
Width: 1380
Flags: W
HStem: 0 60<575 805> 460 60<115 805 865 1325> 690 60<345 805 865 1095> 920 60<175 805 865 1265> 1190 20G<805 865>
VStem: 115 60<690 920> 805 60<60 460 520 690 980 1210> 1265 60<690 920>
LayerCount: 2
Fore
SplineSet
345 750 m 29
 1095 750 l 25
 1095 690 l 25
 865 690 l 25
 865 520 l 25
 1325 520 l 25
 1325 460 l 25
 865 460 l 25
 865 0 l 25
 575 0 l 25
 575 60 l 25
 805 60 l 25
 805 460 l 25
 115 460 l 25
 115 520 l 25
 805 520 l 25
 805 690 l 25
 345 690 l 25
 345 750 l 29
805 1210 m 25
 865 1210 l 25
 865 980 l 25
 1325 980 l 25
 1325 690 l 25
 1265 690 l 25
 1265 920 l 25
 175 920 l 25
 175 690 l 25
 115 690 l 25
 115 980 l 25
 805 980 l 25
 805 1210 l 25
EndSplineSet
Validated: 1
EndChar

StartChar: uni7FBD
Encoding: 1166 32701 1166
Width: 1380
Flags: W
HStem: 0 21G<575 635 1265 1325> 230 60<115 345 805 1035> 730 20G<345 405 1035 1095> 730 20G<345 405 1035 1095> 920 60<115 405 805 1095> 1150 60<115 575 805 1265>
VStem: 345 60<290 750> 575 60<0 1150> 1035 60<290 750> 1265 60<0 1150>
LayerCount: 2
Fore
SplineSet
1035 750 m 29xefc0
 1095 750 l 29
 1095 230 l 29
 805 230 l 29
 805 290 l 29
 1035 290 l 29
 1035 750 l 29xefc0
805 980 m 29
 1095 980 l 29
 1095 920 l 29
 805 920 l 29
 805 980 l 29
805 1210 m 29
 1325 1210 l 29
 1325 0 l 29
 1265 0 l 29
 1265 1150 l 29
 805 1150 l 29
 805 1210 l 29
345 750 m 25
 405 750 l 25
 405 230 l 25
 115 230 l 25
 115 290 l 25
 345 290 l 25
 345 750 l 25
115 980 m 25
 405 980 l 25
 405 920 l 25
 115 920 l 25
 115 980 l 25
115 1210 m 25
 635 1210 l 25
 635 0 l 25
 575 0 l 25
 575 1150 l 25
 115 1150 l 25
 115 1210 l 25
EndSplineSet
Validated: 1
EndChar

StartChar: uni96E8
Encoding: 1167 38632 1167
Width: 1380
Flags: W
HStem: 0 60<1035 1265> 730 20G<345 405 805 865> 730 20G<345 405 805 865> 920 60<175 575 635 1265> 1150 60<345 575 635 1095>
VStem: 115 60<0 920> 345 60<0 290 460 750> 575 60<0 920 980 1150> 805 60<0 290 460 750> 1265 60<60 920>
LayerCount: 2
Fore
SplineSet
805 750 m 25xdfc0
 865 750 l 25
 865 460 l 25
 805 460 l 25
 805 750 l 25xdfc0
345 750 m 25
 405 750 l 25
 405 460 l 25
 345 460 l 25
 345 750 l 25
345 290 m 25
 405 290 l 25
 405 -0 l 25
 345 -0 l 25
 345 290 l 25
805 290 m 5
 865 290 l 1
 865 0 l 1
 805 0 l 1
 805 290 l 5
345 1210 m 25
 1095 1210 l 25
 1095 1150 l 25
 635 1150 l 25
 635 980 l 25
 1325 980 l 25
 1325 0 l 25
 1035 0 l 25
 1035 60 l 25
 1265 60 l 25
 1265 920 l 25
 635 920 l 25
 635 0 l 25
 575 0 l 25
 575 920 l 25
 175 920 l 25
 175 0 l 25
 115 0 l 25
 115 980 l 25
 575 980 l 25
 575 1150 l 25
 345 1150 l 25
 345 1210 l 25
EndSplineSet
Validated: 1
EndChar

StartChar: uni55B6
Encoding: 1168 21942 1168
Width: 1380
Flags: W
HStem: 0 60<405 1035> 230 60<405 575 635 1035> 460 60<405 575 635 1035> 690 60<405 1035> 920 290<345 405 575 635 1035 1095> 920 60<175 345 405 575 635 1035 1095 1265>
VStem: 115 60<690 920> 345 60<60 230 520 690 980 1210> 575 60<290 460 980 1210> 1035 60<60 230 520 690 980 1210> 1265 60<690 920>
LayerCount: 2
Fore
SplineSet
405 230 m 29xf3e0
 405 60 l 25
 1035 60 l 25
 1035 230 l 25
 405 230 l 29xf3e0
405 690 m 25
 405 520 l 25
 1035 520 l 25
 1035 690 l 25
 405 690 l 25
345 750 m 25
 1095 750 l 25
 1095 460 l 25
 635 460 l 25
 635 290 l 25
 1095 290 l 25
 1095 0 l 25
 345 0 l 25
 345 290 l 25
 575 290 l 25
 575 460 l 25
 345 460 l 25
 345 750 l 25
345 1210 m 25xfbe0
 405 1210 l 25xfbe0
 405 980 l 25
 575 980 l 25xf7e0
 575 1210 l 25
 635 1210 l 25xfbe0
 635 980 l 25
 1035 980 l 25xf7e0
 1035 1210 l 25
 1095 1210 l 25xfbe0
 1095 980 l 25
 1325 980 l 25
 1325 690 l 25
 1265 690 l 25
 1265 920 l 25
 175 920 l 25
 175 690 l 25
 115 690 l 25
 115 980 l 25
 345 980 l 25xf7e0
 345 1210 l 25xfbe0
EndSplineSet
Validated: 1
EndChar

StartChar: uni6620
Encoding: 1169 26144 1169
Width: 1380
Flags: W
HStem: 0 60<575 805 1095 1325> 230 60<175 345> 460 60<405 575 635 805 865 1035 1095 1325> 690 60<175 345> 920 60<175 345 635 805 865 1035> 1190 20G<805 865>
VStem: 115 60<290 690 750 920> 345 60<290 460 520 690 750 920> 575 60<520 920> 805 60<60 460 520 920 980 1210> 1035 60<60 290 520 920>
LayerCount: 2
Fore
SplineSet
865 920 m 29
 865 520 l 25
 1035 520 l 25
 1035 920 l 25
 865 920 l 29
635 920 m 25
 635 520 l 25
 805 520 l 25
 805 920 l 25
 635 920 l 25
1035 290 m 25
 1095 290 l 25
 1095 60 l 25
 1325 60 l 25
 1325 0 l 25
 1035 0 l 25
 1035 290 l 25
175 690 m 25
 175 290 l 25
 345 290 l 25
 345 690 l 25
 175 690 l 25
175 920 m 25
 175 750 l 25
 345 750 l 25
 345 920 l 25
 175 920 l 25
405 230 m 9
 115 230 l 25
 115 980 l 25
 405 980 l 17
 405 520 l 25
 575 520 l 25
 575 980 l 25
 805 980 l 25
 805 1210 l 25
 865 1210 l 25
 865 980 l 25
 1095 980 l 25
 1095 520 l 25
 1325 520 l 25
 1341 460 l 25
 865 460 l 25
 865 0 l 25
 575 0 l 25
 575 60 l 25
 805 60 l 25
 805 460 l 25
 405 460 l 25
 405 230 l 9
EndSplineSet
Validated: 1
EndChar

StartChar: uni6C38
Encoding: 1170 27704 1170
Width: 1380
Flags: W
HStem: 0 60<115 345 575 805 1095 1325> 230 60<405 575> 460 60<1095 1325> 690 60<115 575> 920 60<345 805> 1150 60<575 865>
VStem: 345 60<60 230> 575 60<290 690> 805 60<60 920> 1035 60<60 460 520 750>
LayerCount: 2
Fore
SplineSet
1035 750 m 25
 1095 750 l 25
 1095 520 l 25
 1325 520 l 25
 1325 460 l 25
 1095 460 l 25
 1095 60 l 25
 1325 60 l 25
 1325 0 l 25
 1035 0 l 25
 1035 750 l 25
115 750 m 25
 635 750 l 25
 635 230 l 25
 405 230 l 25
 405 0 l 25
 115 0 l 25
 115 60 l 25
 345 60 l 25
 345 290 l 25
 575 290 l 25
 575 690 l 25
 115 690 l 25
 115 750 l 25
345 980 m 25
 865 980 l 1
 865 0 l 1
 575 0 l 1
 575 60 l 1
 805 60 l 5
 805 920 l 1
 345 920 l 25
 345 980 l 25
575 1210 m 25
 865 1210 l 25
 865 1150 l 25
 575 1150 l 25
 575 1210 l 25
EndSplineSet
Validated: 1
EndChar

StartChar: uni82F1
Encoding: 1171 33521 1171
Width: 1380
Flags: W
HStem: 0 60<345 575 805 1095> 230 60<115 345 405 575 635 1035 1095 1325> 460 60<405 575 635 1035> 730 20G<575 635> 730 20G<575 635> 920 60<115 345 405 1035 1095 1325> 1190 20G<345 405 1035 1095>
VStem: 345 60<290 460 690 920 980 1210> 575 60<60 230 290 460 520 750> 1035 60<290 460 690 920 980 1210>
LayerCount: 2
Fore
SplineSet
805 60 m 29xe7c0
 1095 60 l 25
 1095 0 l 25
 805 0 l 25
 805 60 l 29xe7c0
635 460 m 25
 635 290 l 25
 1035 290 l 25
 1035 460 l 25
 635 460 l 25
405 460 m 25
 405 290 l 25
 575 290 l 25
 575 460 l 25
 405 460 l 25
575 750 m 25xf7c0
 635 750 l 25
 635 520 l 25
 1095 520 l 25
 1095 290 l 25
 1325 290 l 25
 1325 230 l 25
 635 230 l 25
 635 0 l 25
 345 0 l 25
 345 60 l 25
 575 60 l 25
 575 230 l 25
 115 230 l 25
 115 290 l 25
 345 290 l 25
 345 520 l 25
 575 520 l 25
 575 750 l 25xf7c0
115 980 m 25
 345 980 l 25
 345 1210 l 25
 405 1210 l 25
 405 980 l 25
 1035 980 l 25
 1035 1210 l 25
 1095 1210 l 25
 1095 980 l 25
 1325 980 l 25
 1325 920 l 25
 1095 920 l 25
 1095 690 l 25
 1035 690 l 25
 1035 920 l 25
 405 920 l 25
 405 690 l 25
 345 690 l 25
 345 920 l 25
 115 920 l 25
 115 980 l 25
EndSplineSet
Validated: 1
EndChar

StartChar: uni8D8A
Encoding: 1172 36234 1172
Width: 1380
Flags: W
HStem: 0 60<175 345 405 1325> 230 60<635 865 1095 1325> 460 60<405 575 805 1035 1095 1325> 690 60<115 345 405 575> 920 60<115 345 405 575 635 1035 1095 1325> 1150 60<1095 1325>
VStem: 115 60<60 520> 345 60<60 460 520 690 750 920 980 1210> 575 60<290 460 520 690 750 920> 1035 60<290 460 520 920 980 1150>
LayerCount: 2
Fore
SplineSet
405 690 m 29
 405 520 l 25
 575 520 l 25
 575 690 l 25
 405 690 l 29
405 920 m 25
 405 750 l 25
 575 750 l 25
 575 920 l 25
 405 920 l 25
345 1210 m 25
 405 1210 l 25
 405 980 l 25
 1035 980 l 25
 1035 1210 l 25
 1325 1210 l 25
 1325 1150 l 25
 1095 1150 l 25
 1095 980 l 25
 1325 980 l 25
 1325 920 l 25
 1095 920 l 25
 1095 520 l 25
 1325 520 l 25
 1325 460 l 25
 1095 460 l 25
 1095 290 l 25
 1325 290 l 25
 1325 230 l 25
 1035 230 l 25
 1035 460 l 25
 805 460 l 25
 805 520 l 25
 1035 520 l 25
 1035 920 l 25
 635 920 l 25
 635 290 l 25
 865 290 l 25
 865 230 l 25
 575 230 l 25
 575 460 l 25
 405 460 l 25
 405 60 l 25
 1325 60 l 25
 1325 0 l 25
 115 0 l 25
 115 520 l 25
 175 520 l 25
 175 60 l 25
 345 60 l 25
 345 690 l 25
 115 690 l 25
 115 750 l 25
 345 750 l 25
 345 920 l 25
 115 920 l 25
 115 980 l 25
 345 980 l 25
 345 1210 l 25
EndSplineSet
Validated: 1
EndChar

StartChar: uni5186
Encoding: 1173 20870 1173
Width: 1380
Flags: W
HStem: 0 60<1035 1265> 690 60<175 575 635 1265> 1150 60<175 575 635 1265>
VStem: 115 60<0 690 750 1150> 575 60<750 1150> 1265 60<60 690 750 1150>
LayerCount: 2
Fore
SplineSet
635 1150 m 29
 635 750 l 25
 1265 750 l 25
 1265 1150 l 25
 635 1150 l 29
175 1150 m 25
 175 750 l 25
 575 750 l 25
 575 1150 l 25
 175 1150 l 25
115 1210 m 25
 1325 1210 l 25
 1325 0 l 25
 1035 0 l 25
 1035 60 l 25
 1265 60 l 25
 1265 690 l 25
 175 690 l 25
 175 0 l 25
 115 0 l 25
 115 1210 l 25
EndSplineSet
Validated: 1
EndChar

StartChar: uni5712
Encoding: 1174 22290 1174
Width: 1380
Flags: W
HStem: 0 60<175 575 635 1265> 230 60<345 575 865 1095> 460 60<405 575 635 805 865 1035> 690 60<175 345 405 575 635 1035 1095 1265> 920 60<345 575 635 865> 1150 60<175 575 635 1265>
VStem: 115 60<60 690 750 1150> 345 60<520 690> 575 60<60 230 290 460 750 920 980 1150> 805 60<290 460> 1035 60<520 690> 1265 60<60 690 750 1150>
LayerCount: 2
Fore
SplineSet
635 460 m 25
 635 60 l 25
 1265 60 l 25
 1265 690 l 25
 1095 690 l 25
 1095 460 l 25
 865 460 l 25
 865 290 l 25
 1095 290 l 25
 1095 230 l 25
 805 230 l 25
 805 460 l 25
 635 460 l 25
175 690 m 25
 175 60 l 25
 575 60 l 25
 575 230 l 25
 345 230 l 25
 345 290 l 25
 575 290 l 25
 575 460 l 25
 345 460 l 25
 345 690 l 25
 175 690 l 25
635 1150 m 25
 635 980 l 25
 865 980 l 25
 865 920 l 25
 635 920 l 25
 635 750 l 25
 1265 750 l 25
 1265 1150 l 25
 635 1150 l 25
575 1150 m 25
 175 1150 l 25
 175 750 l 25
 575 750 l 25
 575 920 l 25
 345 920 l 25
 345 980 l 25
 575 980 l 25
 575 1150 l 25
405 690 m 25
 405 520 l 25
 1035 520 l 25
 1035 690 l 25
 405 690 l 25
115 1210 m 25
 1325 1210 l 25
 1325 0 l 25
 115 0 l 25
 115 1210 l 25
EndSplineSet
Validated: 1
EndChar

StartChar: uni5EF6
Encoding: 1175 24310 1175
Width: 1380
Flags: W
HStem: 0 60<115 345 405 1325> 230 60<635 805 865 1325> 690 60<115 345 865 1095> 1150 60<115 345 575 805 865 1325>
VStem: 345 60<60 690 750 1150> 575 60<290 750> 805 60<290 690 750 1150>
CounterMasks: 1 0e
LayerCount: 2
Fore
SplineSet
575 1210 m 29
 1325 1210 l 25
 1325 1150 l 25
 865 1150 l 25
 865 750 l 25
 1095 750 l 25
 1095 690 l 25
 865 690 l 25
 865 290 l 25
 1325 290 l 25
 1325 230 l 25
 575 230 l 25
 575 750 l 25
 635 750 l 25
 635 290 l 25
 805 290 l 25
 805 1150 l 25
 575 1150 l 25
 575 1210 l 29
115 1210 m 25
 405 1210 l 25
 405 60 l 25
 1325 60 l 25
 1325 0 l 25
 115 0 l 25
 115 60 l 25
 345 60 l 25
 345 690 l 25
 115 690 l 25
 115 750 l 25
 345 750 l 25
 345 1150 l 25
 115 1150 l 25
 115 1210 l 25
EndSplineSet
Validated: 1
EndChar

StartChar: uni708E
Encoding: 1176 28814 1176
Width: 1380
Flags: W
HStem: 0 60<115 805 1035 1325> 690 60<115 805 1035 1325> 1190 20G<345 405 805 865 1265 1325>
VStem: 345 60<230 520 920 1210> 805 60<60 520 750 1210> 1265 60<230 520 920 1210>
CounterMasks: 1 1c
LayerCount: 2
Fore
SplineSet
1035 60 m 29
 1325 60 l 29
 1325 0 l 29
 1035 0 l 29
 1035 60 l 29
1265 520 m 29
 1325 520 l 29
 1325 230 l 29
 1265 230 l 29
 1265 520 l 29
805 520 m 29
 865 520 l 29
 865 0 l 29
 115 0 l 29
 115 60 l 29
 805 60 l 29
 805 520 l 29
345 520 m 29
 405 520 l 29
 405 230 l 29
 345 230 l 29
 345 520 l 29
1035 750 m 25
 1325 750 l 25
 1325 690 l 25
 1035 690 l 25
 1035 750 l 25
1265 1210 m 25
 1325 1210 l 25
 1325 920 l 25
 1265 920 l 25
 1265 1210 l 25
805 1210 m 25
 865 1210 l 25
 865 690 l 25
 115 690 l 25
 115 750 l 25
 805 750 l 25
 805 1210 l 25
345 1210 m 25
 405 1210 l 25
 405 920 l 25
 345 920 l 25
 345 1210 l 25
EndSplineSet
Validated: 1
EndChar

StartChar: uni5FDC
Encoding: 1177 24540 1177
Width: 1380
Flags: W
HStem: 0 60<635 1325> 460 60<1035 1265> 690 60<805 1095> 920 60<175 805 865 1325> 1190 20G<805 865>
VStem: 115 60<0 920> 345 60<0 520> 575 60<60 750> 805 60<980 1210> 1265 60<230 460>
LayerCount: 2
Fore
SplineSet
575 750 m 29
 635 750 l 25
 635 60 l 25
 1325 60 l 25
 1325 0 l 25
 575 0 l 25
 575 750 l 29
345 520 m 25
 405 520 l 25
 405 0 l 25
 345 0 l 25
 345 520 l 25
1035 520 m 25
 1325 520 l 25
 1325 230 l 25
 1265 230 l 25
 1265 460 l 25
 1035 460 l 25
 1035 520 l 25
805 750 m 25
 1095 750 l 25
 1095 690 l 25
 805 690 l 25
 805 750 l 25
805 1210 m 25
 865 1210 l 25
 865 980 l 25
 1325 980 l 25
 1325 920 l 25
 175 920 l 25
 175 0 l 25
 115 0 l 25
 115 980 l 25
 805 980 l 25
 805 1210 l 25
EndSplineSet
Validated: 1
EndChar

StartChar: uni62BC
Encoding: 1178 25276 1178
Width: 1380
Flags: W
HStem: 0 60<115 345> 460 60<115 345 405 635 865 1035 1095 1265> 920 60<115 345 405 635 865 1035 1095 1265> 1150 60<865 1035 1095 1265>
VStem: 345 60<60 460 520 920 980 1210> 805 60<520 920 980 1150> 1035 60<0 460 520 920 980 1150> 1265 60<520 920 980 1150>
LayerCount: 2
Fore
SplineSet
1095 920 m 29
 1095 520 l 25
 1265 520 l 25
 1265 920 l 25
 1095 920 l 29
1095 1150 m 25
 1095 980 l 25
 1265 980 l 25
 1265 1150 l 25
 1095 1150 l 25
865 920 m 25
 865 520 l 25
 1035 520 l 25
 1035 920 l 25
 865 920 l 25
865 1150 m 25
 865 980 l 25
 1035 980 l 25
 1035 1150 l 25
 865 1150 l 25
805 1210 m 25
 1325 1210 l 25
 1325 460 l 25
 1095 460 l 25
 1095 0 l 25
 1035 0 l 25
 1035 460 l 25
 805 460 l 25
 805 1210 l 25
405 1210 m 25
 405 980 l 25
 635 980 l 25
 635 920 l 25
 405 920 l 25
 405 520 l 25
 635 520 l 25
 635 460 l 25
 405 460 l 25
 405 0 l 25
 115 0 l 25
 115 60 l 25
 345 60 l 25
 345 460 l 25
 115 460 l 25
 115 520 l 25
 345 520 l 25
 345 920 l 25
 115 920 l 25
 115 980 l 25
 345 980 l 25
 345 1210 l 25
 405 1210 l 25
EndSplineSet
Validated: 1
EndChar

StartChar: uni5C4B
Encoding: 1179 23627 1179
Width: 1380
Flags: W
HStem: 0 60<345 805 865 1325> 230 60<575 805 865 1095> 460 60<635 805 865 1035> 690 60<345 575 635 1035 1095 1325> 920 60<175 1265> 1150 60<175 1265>
VStem: 115 60<0 920 980 1150> 575 60<520 690> 805 60<60 230 290 460> 1035 60<520 690> 1265 60<980 1150>
LayerCount: 2
Fore
SplineSet
635 690 m 29
 635 520 l 25
 1035 520 l 25
 1035 690 l 25
 635 690 l 29
345 750 m 25
 1325 750 l 25
 1325 690 l 25
 1095 690 l 25
 1095 460 l 25
 865 460 l 25
 865 290 l 25
 1095 290 l 25
 1095 230 l 25
 865 230 l 25
 865 60 l 25
 1325 60 l 25
 1325 0 l 25
 345 0 l 25
 345 60 l 25
 805 60 l 25
 805 230 l 25
 575 230 l 25
 575 290 l 25
 805 290 l 25
 805 460 l 25
 575 460 l 25
 575 690 l 25
 345 690 l 25
 345 750 l 25
175 1150 m 25
 175 980 l 25
 1265 980 l 25
 1265 1150 l 25
 175 1150 l 25
115 1210 m 25
 1325 1210 l 25
 1325 920 l 25
 175 920 l 25
 175 0 l 25
 115 0 l 25
 115 1210 l 25
EndSplineSet
Validated: 1
EndChar

StartChar: uni6E29
Encoding: 1180 28201 1180
Width: 1380
Flags: W
HStem: 0 60<115 345 405 575 635 805 865 1035 1095 1325> 460 60<635 805 865 1035> 690 60<635 1035> 920 60<115 405 635 1035> 1150 60<115 405 635 1035>
VStem: 345 60<60 750> 575 60<60 460 750 920 980 1150> 805 60<60 460> 1035 60<60 460 750 920 980 1150>
LayerCount: 2
Fore
SplineSet
865 460 m 29
 865 60 l 25
 1035 60 l 25
 1035 460 l 25
 865 460 l 29
635 460 m 25
 635 60 l 25
 805 60 l 25
 805 460 l 25
 635 460 l 25
635 920 m 25
 635 750 l 25
 1035 750 l 25
 1035 920 l 25
 635 920 l 25
635 1150 m 25
 635 980 l 25
 1035 980 l 25
 1035 1150 l 25
 635 1150 l 25
575 1210 m 25
 1095 1210 l 25
 1095 690 l 25
 575 690 l 25
 575 1210 l 25
345 750 m 25
 405 750 l 25
 405 60 l 25
 575 60 l 25
 575 520 l 25
 1095 520 l 25
 1095 60 l 25
 1325 60 l 25
 1325 0 l 25
 115 0 l 25
 115 60 l 25
 345 60 l 25
 345 750 l 25
115 980 m 25
 405 980 l 25
 405 920 l 25
 115 920 l 25
 115 980 l 25
115 1210 m 25
 405 1210 l 25
 405 1150 l 25
 115 1150 l 25
 115 1210 l 25
EndSplineSet
Validated: 1
EndChar

